/* XPM */
static char * box1_xpm[] = {
"57 60 472 2",
"  	c None",
". 	c #17EFFF",
"+ 	c #15EEFF",
"@ 	c #15EDFF",
"# 	c #16F0FF",
"$ 	c #17E2F1",
"% 	c #1A868E",
"& 	c #1B6C72",
"* 	c #18C8D5",
"= 	c #15EFFF",
"- 	c #16EEFF",
"; 	c #1D2B2C",
"> 	c #1E1E1E",
", 	c #1C5256",
"' 	c #18BBC7",
") 	c #16EFFF",
"! 	c #17F0FF",
"~ 	c #19949C",
"{ 	c #19A1AB",
"] 	c #1D383A",
"^ 	c #17F1FF",
"/ 	c #17EEFF",
"( 	c #15F1FF",
"_ 	c #17D5E3",
": 	c #1B6C73",
"< 	c #1B7980",
"[ 	c #1A868F",
"} 	c #1F1E1E",
"| 	c #1F1F1F",
"1 	c #19AEB9",
"2 	c #1E1F1F",
"3 	c #1E383A",
"4 	c #1AA1AB",
"5 	c #1D383B",
"6 	c #1E3A3B",
"7 	c #1C565A",
"8 	c #18B3BE",
"9 	c #1D393C",
"0 	c #1E2020",
"a 	c #1F2020",
"b 	c #1E3A3C",
"c 	c #1AB3BE",
"d 	c #1D565A",
"e 	c #1E3233",
"f 	c #1E3F41",
"g 	c #1C6065",
"h 	c #18B5C0",
"i 	c #1D2D2E",
"j 	c #18EFFF",
"k 	c #19B5C1",
"l 	c #1D3F41",
"m 	c #1E3335",
"n 	c #1E2828",
"o 	c #1D2E2F",
"p 	c #1D3739",
"q 	c #1E4345",
"r 	c #1B6268",
"s 	c #19B6C1",
"t 	c #1E393B",
"u 	c #1D2C2C",
"v 	c #1A878F",
"w 	c #18E2F1",
"x 	c #18B5C1",
"y 	c #1C6368",
"z 	c #1C4245",
"A 	c #1D3839",
"B 	c #1D2E30",
"C 	c #1E2829",
"D 	c #1E2424",
"E 	c #1E2727",
"F 	c #1E2B2B",
"G 	c #1E3133",
"H 	c #1E4447",
"I 	c #1D393B",
"J 	c #18C7D4",
"K 	c #1C6469",
"L 	c #1C4346",
"M 	c #1F3A3D",
"N 	c #1E2C2D",
"O 	c #1E2728",
"P 	c #1E2425",
"Q 	c #1E2627",
"R 	c #1E2B2C",
"S 	c #1E2E2F",
"T 	c #1D4345",
"U 	c #1B6167",
"V 	c #1A949D",
"W 	c #1B878F",
"X 	c #18C8D4",
"Y 	c #1A747A",
"Z 	c #1D3233",
"` 	c #1E2626",
" .	c #1C4E52",
"..	c #1C5054",
"+.	c #1E2D2E",
"@.	c #1D2D2D",
"#.	c #1E3334",
"$.	c #1D4245",
"%.	c #1C6266",
"&.	c #18D5E3",
"*.	c #1E393C",
"=.	c #1F2121",
"-.	c #202020",
";.	c #1C747B",
">.	c #1E3234",
",.	c #1E3031",
"'.	c #1D2C2D",
").	c #19B2BD",
"!.	c #1D282A",
"~.	c #1D292A",
"{.	c #1B5C61",
"].	c #17CBD8",
"^.	c #1E4245",
"/.	c #18BECB",
"(.	c #1C8991",
"_.	c #1E3C3E",
":.	c #1F2222",
"<.	c #1E2122",
"[.	c #202122",
"}.	c #202121",
"|.	c #1E2E2E",
"1.	c #18C9D6",
"2.	c #1B747B",
"3.	c #1E4144",
"4.	c #1E3638",
"5.	c #1E2E30",
"6.	c #1B828A",
"7.	c #19A6B1",
"8.	c #1D2829",
"9.	c #1D2828",
"0.	c #1D2A2B",
"a.	c #1E2D2F",
"b.	c #18BFCB",
"c.	c #1B787E",
"d.	c #1D3031",
"e.	c #1E2A2A",
"f.	c #1E2C2C",
"g.	c #1D2F30",
"h.	c #1D3638",
"i.	c #1C4244",
"j.	c #1B757B",
"k.	c #17D5E4",
"l.	c #1B8891",
"m.	c #1E3C3F",
"n.	c #1E3132",
"o.	c #1B8991",
"p.	c #18E1F2",
"q.	c #18CAD7",
"r.	c #1B767D",
"s.	c #1D4144",
"t.	c #1F383A",
"u.	c #1F2F30",
"v.	c #1F292A",
"w.	c #1E292A",
"x.	c #1C474A",
"y.	c #17D7E6",
"z.	c #1D464A",
"A.	c #1B6065",
"B.	c #1C3D3F",
"C.	c #1E2A2C",
"D.	c #1F2A2A",
"E.	c #1D4548",
"F.	c #1D787F",
"G.	c #18CAD6",
"H.	c #18D6E4",
"I.	c #18E2F2",
"J.	c #19CAD7",
"K.	c #1C7A81",
"L.	c #1C4548",
"M.	c #1E3A3D",
"N.	c #1F2C2D",
"O.	c #1F2728",
"P.	c #1F292B",
"Q.	c #1F2E30",
"R.	c #19A7B1",
"S.	c #19A8B2",
"T.	c #1D2A2A",
"U.	c #1D3132",
"V.	c #18C0CD",
"W.	c #1A919A",
"X.	c #1D3334",
"Y.	c #1E2F31",
"Z.	c #1E2A2B",
"`.	c #1D3436",
" +	c #1D3E40",
".+	c #1D494D",
"++	c #1B7D85",
"@+	c #18CDDA",
"#+	c #1D494C",
"$+	c #1E3E41",
"%+	c #1E282A",
"&+	c #1E3032",
"*+	c #1F3335",
"=+	c #1D494B",
"-+	c #17D8E6",
";+	c #1C4A4D",
">+	c #1D2A2C",
",+	c #1E2F30",
"'+	c #1C4C4F",
")+	c #16E3F3",
"!+	c #1E3436",
"~+	c #1D3234",
"{+	c #1D2F31",
"]+	c #1E494C",
"^+	c #1B5F64",
"/+	c #1E3F40",
"(+	c #1C3739",
"_+	c #1E3435",
":+	c #19B5C0",
"<+	c #1B7A82",
"[+	c #19AAB4",
"}+	c #1A939C",
"|+	c #1D3738",
"1+	c #1D3537",
"2+	c #1D3435",
"3+	c #1D3032",
"4+	c #1B6166",
"5+	c #1B6266",
"6+	c #1A5559",
"7+	c #1C575C",
"8+	c #1D6064",
"9+	c #203132",
"0+	c #1C2E30",
"a+	c #1D3437",
"b+	c #1B7982",
"c+	c #17D8E7",
"d+	c #1F2829",
"e+	c #1E2C2E",
"f+	c #1A9098",
"g+	c #1C5F65",
"h+	c #1D5458",
"i+	c #18D7E5",
"j+	c #1B8C94",
"k+	c #1D3335",
"l+	c #1B7B83",
"m+	c #1D3536",
"n+	c #1A959E",
"o+	c #18ACB7",
"p+	c #1D3D3F",
"q+	c #1D3A3C",
"r+	c #1C4E50",
"s+	c #18C0CC",
"t+	c #1D4B4F",
"u+	c #1C5458",
"v+	c #14F0FF",
"w+	c #1D474A",
"x+	c #1AA8B3",
"y+	c #1D484B",
"z+	c #1D3637",
"A+	c #1C3638",
"B+	c #1E393A",
"C+	c #1D3B3D",
"D+	c #1D3C3E",
"E+	c #1A8891",
"F+	c #18ABB6",
"G+	c #1E3536",
"H+	c #1F2D2F",
"I+	c #1C484B",
"J+	c #17E4F3",
"K+	c #1D4244",
"L+	c #1D4042",
"M+	c #1D3E41",
"N+	c #1C686E",
"O+	c #1A929B",
"P+	c #1F3436",
"Q+	c #1E3E40",
"R+	c #1C5358",
"S+	c #15F0FF",
"T+	c #1F3233",
"U+	c #1B868E",
"V+	c #1A777E",
"W+	c #1C3C3E",
"X+	c #1C3E40",
"Y+	c #1C3F41",
"Z+	c #1C5558",
"`+	c #17D9E7",
" @	c #1F2324",
".@	c #1E3537",
"+@	c #1D3A3D",
"@@	c #1999A2",
"#@	c #18C5D1",
"$@	c #1D4649",
"%@	c #1D4648",
"&@	c #1C4447",
"*@	c #1998A1",
"=@	c #17D9E8",
"-@	c #1B676D",
";@	c #1E3738",
">@	c #1F3334",
",@	c #1C5154",
"'@	c #1F2E2F",
")@	c #1C4F52",
"!@	c #19ADB8",
"~@	c #1D4C4F",
"{@	c #1E4346",
"]@	c #1D4447",
"^@	c #1C4446",
"/@	c #1E2323",
"(@	c #1E2324",
"_@	c #1D4043",
":@	c #1C4F53",
"<@	c #16DBE9",
"[@	c #1B7379",
"}@	c #1D5E63",
"|@	c #18C5D2",
"1@	c #1C5559",
"2@	c #1D5054",
"3@	c #1F2A2B",
"4@	c #1F3031",
"5@	c #1C3B3D",
"6@	c #19A2AC",
"7@	c #1C5A60",
"8@	c #1C4649",
"9@	c #1B5A5E",
"0@	c #17DAE8",
"a@	c #1C595D",
"b@	c #1E4043",
"c@	c #1D2627",
"d@	c #1D2728",
"e@	c #1E2D2D",
"f@	c #1D3E3F",
"g@	c #1A8790",
"h@	c #17D1DE",
"i@	c #17DAE9",
"j@	c #199BA5",
"k@	c #1C3F42",
"l@	c #1D4E52",
"m@	c #1F2828",
"n@	c #1E3739",
"o@	c #1A848C",
"p@	c #1A9CA6",
"q@	c #19BBC8",
"r@	c #19878F",
"s@	c #1E4649",
"t@	c #1C4143",
"u@	c #1C3537",
"v@	c #1E2525",
"w@	c #199CA5",
"x@	c #1A939B",
"y@	c #1D484C",
"z@	c #1D2C2E",
"A@	c #1C4D50",
"B@	c #1F2526",
"C@	c #1D4143",
"D@	c #1B4447",
"E@	c #1C5D62",
"F@	c #18D0DD",
"G@	c #1B5E64",
"H@	c #1C464A",
"I@	c #1D3D40",
"J@	c #1D2626",
"K@	c #1C585C",
"L@	c #18C6D3",
"M@	c #1A8890",
"N@	c #1AEEFF",
"O@	c #1C3536",
"P@	c #1D3F42",
"Q@	c #17DBE9",
"R@	c #17C5D2",
"S@	c #1A868D",
"T@	c #1C373A",
"U@	c #1F2727",
"V@	c #1D393A",
"W@	c #1C6A70",
"X@	c #1A9AA4",
"Y@	c #1A848D",
"Z@	c #1E4A4E",
"`@	c #1F2223",
" #	c #1C383A",
".#	c #1C3D40",
"+#	c #199099",
"@#	c #18B0BC",
"##	c #1C484C",
"$#	c #1A5B60",
"%#	c #16DAE8",
"&#	c #1AA3AD",
"*#	c #1F2929",
"=#	c #19939C",
"-#	c #1B6B71",
";#	c #1C4144",
">#	c #1B6F75",
",#	c #1C4A4E",
"'#	c #1E4C4F",
")#	c #1D2D2F",
"!#	c #1C575B",
"~#	c #1C595E",
"{#	c #1D4549",
"]#	c #1D4D51",
"^#	c #1E2929",
"/#	c #18C1CD",
"(#	c #1D3B3E",
"_#	c #1C4043",
":#	c #18C3D0",
"<#	c #1A969F",
"[#	c #1F2627",
"}#	c #1C3639",
"|#	c #19ADB7",
"1#	c #19ACB7",
"2#	c #1C4042",
"3#	c #1D3C3F",
"4#	c #1B7E85",
"5#	c #17D7E5",
"6#	c #1B5256",
"7#	c #1C4C50",
"8#	c #1F2425",
"9#	c #1D5154",
"0#	c #16D7E5",
"a#	c #1C5156",
"b#	c #1C4D52",
"c#	c #18AAB5",
"d#	c #1D2E2E",
"e#	c #1D4E51",
"f#	c #19B6C2",
"g#	c #1B7C83",
"h#	c #1C3436",
"i#	c #1A8F98",
"j#	c #19A4AE",
"k#	c #1B7B82",
"l#	c #17D7E4",
"m#	c #1D3232",
"n#	c #1B686E",
"o#	c #18B1BC",
"p#	c #19A5AF",
"q#	c #1C3233",
"r#	c #1B7A80",
"s#	c #1F2B2B",
"t#	c #1A8D95",
"u#	c #17E3F2",
"v#	c #17D6E4",
"w#	c #1A8A93",
"x#	c #17E4F2",
"y#	c #1D4B4E",
"z#	c #1A878E",
"A#	c #1F3133",
"B#	c #1A8C94",
"C#	c #1A8992",
"D#	c #1D3133",
"E#	c #1B8A92",
"F#	c #17E2F2",
"G#	c #1A8991",
"H#	c #1C3B3E",
"I#	c #1C5357",
"J#	c #19A9B3",
"K#	c #16EDFF",
"L#	c #1B7279",
"M#	c #1B787F",
"N#	c #18BFCC",
"O#	c #1D4448",
"P#	c #1D4A4C",
"Q#	c #1C3636",
"R#	c #1A8B93",
"S#	c #19EFFF",
"T#	c #1B747A",
"U#	c #18CBD8",
"V#	c #14EFFF",
"W#	c #19B0BC",
"X#	c #1B777E",
"Y#	c #1D3A3B",
"Z#	c #1A8E96",
"`#	c #18EDFF",
" $	c #17D6E5",
".$	c #1D5156",
"+$	c #1C5255",
"@$	c #1C7279",
"#$	c #1A8E97",
"$$	c #1C747A",
"%$	c #1B757C",
"&$	c #1A828A",
"*$	c #1AEDFF",
"=$	c #1A7A81",
"-$	c #1A97A0",
";$	c #19D7E4",
"                                                                                                                  ",
"                                                                                                                  ",
"                                                                                                                  ",
"                                                                                                                  ",
"                                                    . + @                                                         ",
"                                                # $ % & * = #                                                     ",
"                                            - $ % ; > > > , ' ) !                                                 ",
"                                        - - ~ ; > > > > > > > , ' ) !                                             ",
"                                    ) - { ] > > > > > > > > > > > , ' = +                                         ",
"                                ^ + ' , > > > > > > > > > > > > > > > ] { ) +                                     ",
"                            / ) ' , > > > > > > > > > > > > > > > > > > > ] { ) )                                 ",
"                        ( ) ' , > > > > > > > > > > > > > > > > > > > > > > > ] { + -                             ",
"                    . ) _ : > > > > > > > > > > > > > > > > > > > > > > > > > > > ] { ) #                         ",
"                  . $ < > > > > > > > > > > > > > > > > > > > > > > > > > > > > > > > ] { = !                     ",
"              = $ [ ; > > > > > > > > > > > > > > > } | > > > > > > > > > > > > > > > > > ] { ) !                 ",
"              = 1 ] > | 2 | > > > > > > > > > > > > > > > > > > > > > > > > > > > 2 > | 2 | 3 1 )                 ",
"            . ) ) ) 4 5 | | } 2 2 > > > > > > > > > > > > > > > > > > > > > > > | 2 2 | 6 { ) ) ) #               ",
"            . 7 8 . ) - { 9 0 | | | > > > > > > > > > > > > > > > > > > > > | } | a b { . ) . c d )               ",
"            ) e f g h ) . ) 4 9 2 | | > > > > > > > > > > > > > > > > > > 2 | 2 i 4 . ) j k g l m )               ",
"            . n o p q r s ) . . 4 t | > > > | > > > > > > > > > > > > > > 2 u v w ) . x y z A B C .               ",
"            - D E F G t H y s ) ) . 4 I > > > > > > > > > > > > > > > > ; v $ ) j J K L M e N O P )               ",
"            ) D Q n R S m b T U s . ) . V 5 | | | | | 2 2 | | | } } ; W w . ) X Y z b Z o N O C ` #               ",
"            ) ` n  ...; +.@.#.I $.%.s ) ) &.v *.a | a =.a -.a a N v $ ) ) * ;.$.t >.,.'.N ; ).!.O )               ",
"            ) n ~.{.].S +.R N +.G 3 ^.g /.. ) _ (._.:.<.[.}.|.W $ . ) 1.2.3.4.e N R R S 5.6.7.R 8.#               ",
"            # 9.0.a.b.c.d.5.'.0.e.f.g.h.i.j.1.) . k.l.m.n.o.p.) ) q.r.s.t.u.R v.w.N S g.x.y.z.'.e..               ",
"            # 8.; 5.A.y.B.n.B ; C.w.D.N n.I E.F.G.! ) H.I.) # J.K.L.M.e N.O.O.P.N.Q.,.Z R.S.,.'.T..               ",
"            ) 8.; S U.V.W.X.U.Y.@.R ~.Z.R o `. +.+++@+/ ) * < #+$+`.+.w.%+C w.; u.&+*+=+-+;+,.'.e.#               ",
"            ) n >+,+U.'+)+s.!+~+d.{+o +.; N 5.*+5 ]+^+/ ) E./+(+>.S ; Z.Z.N.@.g.e _+>.:+<+~+,.'.~.)               ",
"            ) E 0.a.U.!+[+}+|+h.1+2+Z 3+&+5.,+&+4+5+6+) ) 7+8+n.9+u.a.B 0+,.e X.a+1+b+c+1+>.,+f.d+#               ",
"            ) ` w.e+n.!+T c+L.b I ] p h.`.>.e f+c+g+h+! ) , i+j+S U.#.Z k+1+h.p ] p -+l+m+Z u.Z.E )               ",
"            . P 9.N &+!+] n+o+ + +p+p+q+] r+s+V.t+f u+v+) 5.w+x+_ y+z+A+B+q+C+D+D+E+F+3 G+e H+w.` )               ",
"            ) D O R ,.`.b I+J+7+i.K+L+M+N+-+O+#.P+Q+R+S+) '.5.T+U+$ V+C+W+X+L+Y+Z+`+, 6 m+g.R n  @.               ",
"            . D E R ,..@+@Y+@@#@$@%@&@*@=@-@;@e >@D+,@. . N.'@&+!+)@`+!@~@{@]@^@!@1 f b m+g.R Q /@)               ",
"            ) (@E f.n.;@D+_@:@<@[@}@#@|@1@C+h.>.,.b 2@- ) 3@'@4@_+p 5@6@=@7@8@9@0@a@b@q+`.n.N c@ @j               ",
"            ) P d@e@Z p f@$.w+g@h@i@j@]@k@q+1+n.S p l@- . m@e.4@e n@D+_@o@i@p@q@r@s@t@D+u@U.R O (@.               ",
"            ) v@8.+.~+5  +z w+w@) x@y@]@Y+q+G+5.z@1+A@) . B@D.R G h.C+C@D@E@F@) G@H@i.I@3 ~++.v.P .               ",
"            ) J@~.B 2+I  +K@#@L@M@h@H@L Q+] ~+|.N G+'+N@j ` m@~.B O@q+P@]@y+Q@R@i@S@$. +T@!+,+T.U@)               ",
"            ) d@0.B !+V@W@`+X@x.y+|@Y@C@p+n@Z N R 2+Z@) ) `@v@e.B _+ #.#$.+#@###$#%#&#Q+V@`.,.; *##               ",
"            ) C R {+2+=#`+-#;#]@E.>#0@,#C+;@U.N Z.`.'#j . D B@w.)#X.p D+!#=@~#{#^@]#!@`+ .G+d.e+Z.#               ",
"            ) ^#f.H@s+/#..(# +L+s._#:#<#q+1+U.e+R G+~@. . D [#3@S Z }#+@|#1#;#_@2#l 3#4#J+% n.S 0.)               ",
"            . C :@5#f+X.m+p I (#D+p+6#J+L .@U.S e+`.7#) j 8#d+Z.,+#.h.9#0#a#p+B._.M.t p 7#-+S.$@>+)               ",
"            ) O b#{.S g.U.#.`.h.p  #] c#}+4.>.,+d#p e#) ) m@^#N ,.X.n@f#g#q+t 3 p h#!+m >@&+i#5#:@)               ",
"            - j#_#~.0.; e+S {+U.X.m+h.$.-+s.k+d.,.V@)@) j d+R S 3+!+k#l#3 h.m+X.m#3+{+Y.5.e+N n#o#)               ",
"              ! # p#_#C C w.0.+.,+U.X..@}+[+2+U.&+C+9#- ) C.N n.q#.@-+r#4.m G B '.>+Z.s#R h.t#u#+                 ",
"                  ) v#w#l Q O w.R i d.X.C@x#y#Z G (#, = ) N u.U.k+z#S.m+m A#a.R w.c@E k+B#$ j                     ",
"                      ) k.C#Q+` C >+S &+~+O+V.D#>.D+, # ) a.&+#.~@-+;+k+d.+.R w.J@U.E#F#/                         ",
"                          ) v#G#P@8.; ,+d. +-+A.G H#I## ) 5.n.n.J#S.k+U.S F ^#X.o.I.K#                            ",
"                              ) v#L#8.; S ,.M#N#n.3#I## ) B T+O#v#P#D#,+'.Q#R#F#S#                                ",
"                                  ) v#T#0.+.+.U#g+C+6#V#) S 4@W#X#U.g.Y#Z#u#-                                     ",
"                                    `#)  $2.R :@.$9 +$! . e+@$H.Y.+@#$u#) .                                       ",
"                                        `## l#$$C.n@e#) ) T.1.%$&$u#) .                                           ",
"                                            *$# 5#=$x.) . v.-$i+= .                                               ",
"                                                  ) Q@. ! ;$. .                                                   ",
"                                                    ) @   )                                                       ",
"                                                                                                                  ",
"                                                                                                                  ",
"                                                                                                                  ",
"                                                                                                                  ",
"                                                                                                                  ",
"                                                                                                                  "};
