/* XPM */
static char * Button_exit_xpm[] = {
"100 23 29 1",
" 	c None",
".	c #242222",
"+	c #242323",
"@	c #222121",
"#	c #1F1F1F",
"$	c #1E1E1E",
"%	c #212121",
"&	c #242424",
"*	c #212020",
"=	c #222222",
"-	c #232222",
";	c #848383",
">	c #767575",
",	c #3F3F3F",
"'	c #5B5A5A",
")	c #848484",
"!	c #313030",
"~	c #5A5A5A",
"{	c #ADADAD",
"]	c #919191",
"^	c #686868",
"/	c #767676",
"(	c #202020",
"_	c #403F3F",
":	c #201F1F",
"<	c #929191",
"[	c #BABABA",
"}	c #4D4C4C",
"|	c #232323",
" .++++++++++++++++++++++++++++++++++++++++++++++++++++++++++++++++++++++++++++++++++++++++++++++++. ",
".@#$$$$$$$$$$$$$$$$$$$$$$$$$$$$$$$$$$$$$$$$$$$$$$$$$$$$$$$$$$$$$$$$$$$$$$$$$$$$$$$$$$$$$$$$$$$$$$#%&",
"+#$$$$$$$$$$$$$$$$$$$$$$$$$$$$$$$$$$$$$$$$$$$$$$$$$$$$$$$$$$$$$$$$$$$$$$$$$$$$$$$$$$$$$$$$$$$$$$$$$+",
"+$$$$$$$$$$$$$$$$$$$$$$$$$$$$$$$$$$$$$$$$$$$$$$$$$$$$$$$$$$$$$$$$$$$$$$$$$$$$$$$$$$$$$$$$$$$$$$$$$$+",
"+$$$$$$$$$$$$$$$$$$$$$$$$$$$$$$$$$$$$$$$$$$$$$$$$$$$$$$$$$$$$$$$$$$$$$$$$$$$$$$$$$$$$$$$$$$$$$$$$$$+",
"+$$$$$$$$$$$$$$$$$$$$$$$$$$$$$$$$$$$$$$$$$$$$$$$$$$$$$$$$$$$$$$$$$$$$$$$$$$$$$$$$$$$$$$$$$$$$$$$$$$+",
"+$$$$$$$$$$$$$$$$$$$$$$$$$$$$$$$$$$$$$$$$$$$$$$$$$$$$$$$$$$$$$$$$$$$$$$$$$$$$$$$$$$$$$$$$$$$$$$$$$$+",
"+$$$$$$$$$$$$$$$$$$$$$$$$$$$$$$$$$$$$$$$$$$$$$$$$$$$$$$$$$$$$$$$$$$$$$$$$$$$$$$$$$$$$$$$$$$$$$$$$$$+",
"+$$$$$$$$$$$$$$$$$$$$$$$$$$$$$$$$$$*++++++++=$$#-++++++++=++++++-$$$$$$$$$$$$$$$$$$$$$$$$$$$$$$$$$$+",
"+$$$$$$$$$$$$$$$$$$$$$$$$$$$$$$$$$$*;>>>>,+''%#-)!=~>{>>+=~>;]>^-$$$$$$$$$$$$$$$$$$$$$$$$$$$$$$$$$$+",
"+$$$$$$$$$$$$$$$$$$$$$$$$$$$$$$$$$$*/+((((#=/_-/,*:(@/+((:(*,'%(($$$$$$$$$$$$$$$$$$$$$$$$$$$$$$$$$$+",
"+$$$$$$$$$$$$$$$$$$$$$$$$$$$$$$$$$$*/+===%$#-<_^@$$$*/-$$$$#,'#$$$$$$$$$$$$$$$$$$$$$$$$$$$$$$$$$$$$+",
"+$$$$$$$$$$$$$$$$$$$$$$$$$$$$$$$$$$*////^=$$(_[+$$$$*/-$$$$#,'#$$$$$$$$$$$$$$$$$$$$$$$$$$$$$$$$$$$$+",
"+$$$$$$$$$$$$$$$$$$$$$$$$$$$$$$$$$$*/+@@@%$#-<}'%$$$*/-$$$$#,'#$$$$$$$$$$$$$$$$$$$$$$$$$$$$$$$$$$$$+",
"+$$$$$$$$$$$$$$$$$$$$$$$$$$$$$$$$$$*/+((((#@/,-/_(:(@/+(($$#,'#$$$$$$$$$$$$$$$$$$$$$$$$$$$$$$$$$$$$+",
"+$$$$$$$$$$$$$$$$$$$$$$$$$$$$$$$$$$*;>>>>_-''%$-/!='>{>>+$$#,'#$$$$$$$$$$$$$$$$$$$$$$$$$$$$$$$$$$$$+",
"+$$$$$$$$$$$$$$$$$$$$$$$$$$$$$$$$$$*++++++++@$$#+++++++++$$#++#$$$$$$$$$$$$$$$$$$$$$$$$$$$$$$$$$$$$+",
"+$$$$$$$$$$$$$$$$$$$$$$$$$$$$$$$$$$$$$$$$$$$$$$$$$$$$$$$$$$$$$$$$$$$$$$$$$$$$$$$$$$$$$$$$$$$$$$$$$$+",
"+$$$$$$$$$$$$$$$$$$$$$$$$$$$$$$$$$$$$$$$$$$$$$$$$$$$$$$$$$$$$$$$$$$$$$$$$$$$$$$$$$$$$$$$$$$$$$$$$$$+",
"+$$$$$$$$$$$$$$$$$$$$$$$$$$$$$$$$$$$$$$$$$$$$$$$$$$$$$$$$$$$$$$$$$$$$$$$$$$$$$$$$$$$$$$$$$$$$$$$$$$+",
"+$$$$$$$$$$$$$$$$$$$$$$$$$$$$$$$$$$$$$$$$$$$$$$$$$$$$$$$$$$$$$$$$$$$$$$$$$$$$$$$$$$$$$$$$$$$$$$$$$#+",
"&%#$$$$$$$$$$$$$$$$$$$$$$$$$$$$$$$$$$$$$$$$$$$$$$$$$$$$$$$$$$$$$$$$$$$$$$$$$$$$$$$$$$$$$$$$$$$$$$#@|",
" |++++++++++++++++++++++++++++++++++++++++++++++++++++++++++++++++++++++++++++++++++++++++++++++++& "};
