/* XPM */
static char * Button_start3_xpm[] = {
"120 30 29 1",
" 	c None",
".	c #22C302",
"+	c #51D139",
"@	c #3ACB20",
"#	c #FFFFFF",
"$	c #CCF1C5",
"%	c #3CCB20",
"&	c #53D13A",
"*	c #E0F7DC",
"=	c #C1F0B9",
"-	c #79DC66",
";	c #CCF0C4",
">	c #F8FDF7",
",	c #F1FCEF",
"'	c #F0FCEE",
")	c #F0FBEE",
"!	c #79DA66",
"~	c #B6ECAB",
"{	c #51D13A",
"]	c #C1EEB8",
"^	c #D6F3D0",
"/	c #E8F9E5",
"(	c #F9FDF7",
"_	c #DFF6DB",
":	c #66D552",
"<	c #E9F9E6",
"[	c #A8E79B",
"}	c #9AE38B",
"|	c #F0FCEF",
"   ..................................................................................................................   ",
" ...................................................................................................................... ",
" ...................................................................................................................... ",
"........................................................................................................................",
"........................................................................................................................",
"........................................................................................................................",
"........................................................................................................................",
"........................................................................................................................",
"........................................................................................................................",
"........................................................................................................................",
"........................................................................................................................",
"............................................+++++....++@......@+++@.+++...+++...........................................",
"............................................######$%&##*......$###=.*##%.-##;...........................................",
"............................................##>;,##=&##*......'###).!##~.$##&...........................................",
"............................................##).%##)&##*.....-##;##!.*#>{##;............................................",
"............................................##)..##*&##*.....]#>%##~.!##$##&............................................",
"............................................###,>##;&##*.....'#^./#*..*###;.............................................",
"............................................#####(_&&##*....:##)*>##%.!###&.............................................",
"............................................##).....&##<+++@]#######[..##)..............................................",
"............................................##).....&######}/#>..&##*..##)..............................................",
"............................................##).....&######~##*...|#>%.##)..............................................",
"........................................................................................................................",
"........................................................................................................................",
"........................................................................................................................",
"........................................................................................................................",
"........................................................................................................................",
"........................................................................................................................",
" ...................................................................................................................... ",
" ...................................................................................................................... ",
"   ..................................................................................................................   "};
