/* XPM */
static char * Close_xpm[] = {
"35 35 16 1",
" 	c #353434",
".	c #317910",
"+	c #629546",
"@	c #92B17D",
"#	c #6E9C54",
"$	c #F3E9E9",
"%	c #AABF98",
"&	c #DBDBCE",
"*	c #ABBF98",
"=	c #7AA361",
"-	c #C3CDB3",
";	c #E7E2DB",
">	c #CFD4C0",
",	c #49872B",
"'	c #4A872B",
")	c #3E801E",
"                                   ",
" ................................. ",
" ................................. ",
" ................................. ",
" ................................. ",
" ................................. ",
" ................................. ",
" ................................. ",
" ................................. ",
" ................................. ",
" ................................. ",
" ................................. ",
" ............+@@@@@@@@#........... ",
" ............@$$$$$$$$%........... ",
" ............@$$$$$$$$%........... ",
" ............@$$&*****=........... ",
" ............@$$-................. ",
" ............@$$;----@............ ",
" ............@$$$$$$$%............ ",
" ............@$$$$$$$%............ ",
" ............@$$>++++,............ ",
" ............@$$>''''')........... ",
" ............@$$$$$$$$%........... ",
" ............@$$$$$$$$%........... ",
" ............@$$$$$$$$%........... ",
" ................................. ",
" ................................. ",
" ................................. ",
" ................................. ",
" ................................. ",
" ................................. ",
" ................................. ",
" ................................. ",
" ................................. ",
"                                   "};
