/* XPM */
static char * Open_xpm[] = {
"35 35 17 1",
" 	c #353434",
".	c #1E1E1E",
"+	c #535151",
"@	c #898484",
"#	c #615E5E",
"$	c #F3E9E9",
"%	c #A39D9D",
"&	c #D9D0D0",
"*	c #6E6A6A",
"=	c #BEB7B7",
"-	c #E6DCDC",
";	c #BEB6B6",
">	c #888383",
",	c #CBC4C4",
"'	c #393737",
")	c #CCC3C3",
"!	c #2C2B2B",
"                                   ",
" ................................. ",
" ................................. ",
" ................................. ",
" ................................. ",
" ................................. ",
" ................................. ",
" ................................. ",
" ................................. ",
" ................................. ",
" ................................. ",
" ................................. ",
" ............+@@@@@@@@#........... ",
" ............@$$$$$$$$%........... ",
" ............@$$$$$$$$%........... ",
" ............@$$&%%%%%*........... ",
" ............@$$=................. ",
" ............@$$-;;;;>............ ",
" ............@$$$$$$$%............ ",
" ............@$$$$$$$%............ ",
" ............@$$,++++'............ ",
" ............@$$)'''''!........... ",
" ............@$$$$$$$$%........... ",
" ............@$$$$$$$$%........... ",
" ............@$$$$$$$$%........... ",
" ................................. ",
" ................................. ",
" ................................. ",
" ................................. ",
" ................................. ",
" ................................. ",
" ................................. ",
" ................................. ",
" ................................. ",
"                                   "};
