/* XPM */
static char * sprite1_xpm[] = {
"55 58 223 2",
"  	c None",
". 	c #15F1FF",
"+ 	c #16EFFF",
"@ 	c #17E2F1",
"# 	c #17EFFF",
"$ 	c #16EEFF",
"% 	c #16F0FF",
"& 	c #18BBC7",
"* 	c #1B7981",
"= 	c #1D2B2C",
"- 	c #1E2B2C",
"; 	c #19A1AB",
"> 	c #15EFFF",
", 	c #1E1E1E",
"' 	c #1B6C72",
") 	c #1B6D72",
"! 	c #1D383A",
"~ 	c #17D5E3",
"{ 	c #1C5F64",
"] 	c #1A868E",
"^ 	c #1C5256",
"/ 	c #19949D",
"( 	c #1B6C73",
"_ 	c #16F1FF",
": 	c #1B7A81",
"< 	c #1A858D",
"[ 	c #19AAB5",
"} 	c #1A949D",
"| 	c #15EEFF",
"1 	c #1B6B71",
"2 	c #1C5357",
"3 	c #1A9AA2",
"4 	c #17E0EF",
"5 	c #1A7980",
"6 	c #1D2C2E",
"7 	c #1D3B3D",
"8 	c #1C4D51",
"9 	c #1B757B",
"0 	c #17DFEE",
"a 	c #1B6D73",
"b 	c #17F0FF",
"c 	c #18C8D5",
"d 	c #1E2424",
"e 	c #1D292B",
"f 	c #1D3537",
"g 	c #1D474A",
"h 	c #1C5E62",
"i 	c #19B6C2",
"j 	c #19AEB9",
"k 	c #1E1F1F",
"l 	c #1E2122",
"m 	c #1E2728",
"n 	c #1E3233",
"o 	c #1D4144",
"p 	c #1B565A",
"q 	c #199AA4",
"r 	c #16E8F7",
"s 	c #1A878F",
"t 	c #1F1F1F",
"u 	c #1E2021",
"v 	c #1E2626",
"w 	c #1E2E2F",
"x 	c #1C4E52",
"y 	c #1A767B",
"z 	c #1E2020",
"A 	c #1E2B2B",
"B 	c #1D3637",
"C 	c #1D484B",
"D 	c #1B5F63",
"E 	c #1D4548",
"F 	c #1E2222",
"G 	c #1D2728",
"H 	c #1E3234",
"I 	c #1D4244",
"J 	c #1C575B",
"K 	c #1A9BA5",
"L 	c #17DCEB",
"M 	c #18A6B1",
"N 	c #1A97A1",
"O 	c #17EEFF",
"P 	c #1F1E1E",
"Q 	c #1E2526",
"R 	c #1E2E30",
"S 	c #1D3B3E",
"T 	c #1C5054",
"U 	c #1B767D",
"V 	c #18C9D6",
"W 	c #19A0AA",
"X 	c #1C6A6F",
"Y 	c #1D4345",
"Z 	c #1D393A",
"` 	c #1A858C",
" .	c #1C666C",
"..	c #18B6C2",
"+.	c #16E5F5",
"@.	c #17C8D5",
"#.	c #1C5559",
"$.	c #1D4245",
"%.	c #1E3B3C",
"&.	c #1E2D2E",
"*.	c #1A97A0",
"=.	c #1E1F20",
"-.	c #1E2828",
";.	c #1D3233",
">.	c #1C575C",
",.	c #18A3AC",
"'.	c #17E6F5",
").	c #18B5C0",
"!.	c #1B5255",
"~.	c #1D4042",
"{.	c #1D3032",
"].	c #1D2B2D",
"^.	c #1E2324",
"/.	c #1E2121",
"(.	c #1F2020",
"_.	c #1D2E2F",
":.	c #1E5054",
"<.	c #1B777D",
"[.	c #18ABB5",
"}.	c #1B757C",
"|.	c #1C464A",
"1.	c #1D3E40",
"2.	c #1D2F31",
"3.	c #1E2A2B",
"4.	c #1E2323",
"5.	c #1D393C",
"6.	c #1D2A2B",
"7.	c #1E3739",
"8.	c #1D4B4E",
"9.	c #18BBC6",
"0.	c #1A969F",
"a.	c #1B6064",
"b.	c #1D4446",
"c.	c #1D3C3E",
"d.	c #1E3536",
"e.	c #1E292A",
"f.	c #1E2223",
"g.	c #1F2021",
"h.	c #1A878E",
"i.	c #1F2A2B",
"j.	c #1D3839",
"k.	c #1C5055",
"l.	c #1B6F75",
"m.	c #18CEDB",
"n.	c #17D1DE",
"o.	c #1A8890",
"p.	c #1C5458",
"q.	c #1C4144",
"r.	c #1D3A3C",
"s.	c #1E2829",
"t.	c #1E2425",
"u.	c #19949C",
"v.	c #1D2F30",
"w.	c #1C474A",
"x.	c #1A696F",
"y.	c #17D3E2",
"z.	c #1C6469",
"A.	c #1E3436",
"B.	c #1A868F",
"C.	c #1B6D74",
"D.	c #16E8F8",
"E.	c #1F2121",
"F.	c #18AEB9",
"G.	c #1E3133",
"H.	c #1D4D51",
"I.	c #1E2525",
"J.	c #1E3638",
"K.	c #1A9CA5",
"L.	c #1B5F64",
"M.	c #1E2727",
"N.	c #1E3B3D",
"O.	c #1C5A5F",
"P.	c #1C4548",
"Q.	c #1D3E41",
"R.	c #1C6166",
"S.	c #18CCDA",
"T.	c #1C6065",
"U.	c #15F0FF",
"V.	c #1E2C2C",
"W.	c #1C4446",
"X.	c #1A686D",
"Y.	c #17DBE9",
"Z.	c #1D494C",
"`.	c #1A6F75",
" +	c #1A8992",
".+	c #16EDFF",
"++	c #1D3638",
"@+	c #199CA6",
"#+	c #1C5B60",
"$+	c #18BCC8",
"%+	c #1D292A",
"&+	c #1D3F42",
"*+	c #1C6368",
"=+	c #18D3E0",
"-+	c #18EFFF",
";+	c #1D2C2D",
">+	c #1C4B4E",
",+	c #1B7980",
"'+	c #1D3335",
")+	c #1A939C",
"!+	c #18ACB7",
"~+	c #1F2829",
"{+	c #1D3C3F",
"]+	c #1C5E63",
"^+	c #18BDC9",
"/+	c #1D4143",
"(+	c #1B656A",
"_+	c #17D3E1",
":+	c #17E1F1",
"<+	c #1D464A",
"[+	c #1F2323",
"}+	c #1C4C50",
"|+	c #1C5257",
"1+	c #1A959E",
"2+	c #1B7B82",
"3+	c #1C5A5E",
"4+	c #18B4BF",
"5+	c #1A99A3",
"6+	c #1C5D61",
"7+	c #18CAD7",
"8+	c #17DAE9",
"9+	c #18D8E6",
"0+	c #17E6F6",
"                                                                                                              ",
"                                                                                                              ",
"                                                                                                              ",
"                                                                                                              ",
"                                                                                                              ",
"                                                      . + + @ #                                               ",
"                                                $ # % & * = - ; >                                             ",
"                                          + + @ & * = , , , , , ' @ %                                         ",
"                                    + + @ & ) = , , , , , , , , , ! ~ +                                       ",
"                              + + @ ; { = , , , , , , , , , , , , , , ] > %                                   ",
"                        $ + @ ; ^ = , , , , , , , , , , , , , , , , , , { ~ $                                 ",
"                  + + @ / ^ , , , , , , , , , , , , , , , , , , , , , , , ! & +                               ",
"                  + ( , , , , , , , , , , , , , , , , , , , , , , , , , , , , ] % _                           ",
"                > + @ : , , , , , , , , , , , , , , , , , , , , , , , , , , , , ! ~ %                         ",
"                + < [ + } = , , , , , , , , , , , , , , , , , , , , , , , , , , , ! ; |                       ",
"                $ 1 2 3 4 ~ ! , , , , , , , , , , , , , , , , , , , , , , , , , , , , 5 @ %                   ",
"                + 6 7 8 9 0 @ a , , , , , , , , , , , , , , , , , , , , , , , , , , , , ! ~ b                 ",
"              > c d e f g h i + } , , , , , , , , , , , , , , , , , , , , , , , , , , , , , } $               ",
"              > j k l m n o p q r ~ ! , , , , , , , , , , , , , , , , , , , , , , , , , , , , ' ~ +           ",
"              $ s , t u v w 7 x y 0 @ a , , , , , , , , , , , , , , , , , , , , , , , , , , , ^ ; $           ",
"              + { , , k z d A B C D i + } , , , , , , , , , , , , , , , , , , , , , , = ^ / @ + + % +         ",
"              % E , , , , z F G H I J K r ~ ! , , , , , , , , , , , , , , , , , = : & @ + + + L M N O         ",
"              @ , , , , , P k u Q R S T U 0 @ a , , , , , , , , , , , , , E s & + + + + V W X Y Z ` #         ",
"            > & , , , , , , , t z d - B C  ...+ } , , , , , , , , , ^ / ~ + + + +.@.} #.$.%.H &.m *.+         ",
"            + ; , , , , , , , , , =.F -.;.o >.,.r ~ ! , , , = ) ; @ + + + '.).U !.~.! {.].m ^./.(.& #         ",
"            + : , , , , , , , , , , t /.Q _.S :.<.0 @ a : & + + % + L [.}.|.1.B 2.3.v 4.z 5.& , , @           ",
"            % ^ , , , , , , , , , , , t z 4.6.7.8.' 9.+ > + + c 0.a.b.c.d.w e.Q f.g.(., , @.h., - $           ",
"            % = , , , , , , , , , , , , t z F i.j.k.l.m.n.o.p.q.r.H 6 s.t.F z k k t , , } u., , ^ %           ",
"            @ , , , , , , , , , , , , , , , t ^.v.w.x.y.z.A.2.- m d /.z t P k , , , , B.@., , , * +           ",
"          > & , , , , , , , , , , , , , , , t l R C C.D.;.d f.E.k , , , , , , , , , a.~ ! , , , F.>           ",
"          + / , , , , , , , , , , , , , , , k 4.G.H.o.~ k k P , , , , , , , , , , ! ~ ! , , , , c +           ",
"          + { , , , , , , , , , , , , , , , t I.J.p.K.& , , , , , , , , , , , , ! ~ L., , , , , +             ",
"          + ^ , , , , , , , , , , , , , , , z M.N.O.)./ , , , , , , , , , , , , @.h., , , , , P.+             ",
"          + , , , , , , , , , , , , , , , , z e.Q.R.S.{ , , , , , , , , , , , } u., , , , , , T.+             ",
"        U.c , , , , , , , , , , , , , , , , z V.W.X.Y.E , , , , , , , , , , B.@., , , , , , , s %             ",
"        # j , , , , , , , , , , , , , , , P F v.Z.`.+ , , , , , , , , , , a.~ ! , , , , , , , F.%             ",
"        $ s , , , , , , , , , , , , , , , k 4.n x  +c , , , , , , , , , ! ~ ! , , , , , , , , c .+            ",
"        > { , , , , , , , , , , , , , , , (.I.++#.@+j , , , , , , , , ! ~ L., , , , , , , , - $               ",
"        > E , , , , , , , , , , , , , , , z M.r.#+$+: , , , , , , , , @.h., , , , , , , , , ^ +               ",
"        U.~ ! , , , , , , , , , , , , , , z %+&+*+=+^ , , , , , , , } u., , , , , , , , , , * >               ",
"          -+$ : , , , , , , , , , , , , , /.;+E 1 D.! , , , , , , B.@., , , , , , , , , , , } >               ",
"              > ; = , , , , , , , , , , t 4.{.>+,+@ , , , , , , a.~ ! , , , , , , , , , , , & #               ",
"                + ~ ! , , , , , , , , , k d '+T )+& , , , , , ! ~ ! , , , , , , , , , , , , @                 ",
"                  % % : , , , , , , , , (.v ! >.!+/ , , , , ! ~ L., , , , , , , , , , , , - $                 ",
"                      > ; = , , , , , , (.~+{+]+^+: , , , , @.h., , , , , , , , , , , , , ^ %                 ",
"                        $ ~ ! , , , , , z A /+(+_+^ , , , } u., , , , , , , , , , , , , , * %                 ",
"                          + :+: , , , t /.w <+' D.= , , B.~ = , , , , , , , , , , , = ^ / @ |                 ",
"                              > } = , t [+G.}+s c , , a.~ ! , , , , , , , , , = : & @ + |                     ",
"                                + ~ ! k t.++|+1+& , ! ~ ! , , , , , , , E s & % + +                           ",
"                                  % :+2+M.r.3+4+s ! ~ ,+, , , , , ^ / ~ $ + >                                 ",
"                                    + $ 5+C 6+7+{ ' h., , = ) ; @ + $ #                                       ",
"                                        O 8+l.9+E , = : & % + +                                               ",
"                                          % 0++ s & % + b                                                     ",
"                                              + % #                                                           ",
"                                                                                                              ",
"                                                                                                              ",
"                                                                                                              ",
"                                                                                                              "};
