/* XPM */
static char * sprite3_xpm[] = {
"64 66 462 2",
"  	c None",
". 	c #17EEFF",
"+ 	c #16EFFF",
"@ 	c #16EEFF",
"# 	c #17EFFF",
"$ 	c #15EEFF",
"% 	c #15EFFF",
"& 	c #17F0FF",
"* 	c #16E5F5",
"= 	c #17D5E3",
"- 	c #1A878F",
"; 	c #19949D",
"> 	c #19A1AB",
", 	c #19AEB9",
"' 	c #18BBC7",
") 	c #18C8D5",
"! 	c #17E2F1",
"~ 	c #16F0FF",
"{ 	c #19ADB9",
"] 	c #1B686D",
"^ 	c #16E7F7",
"/ 	c #1C5256",
"( 	c #1E1E1E",
"_ 	c #1D383A",
": 	c #1D4548",
"< 	c #1C4D51",
"[ 	c #1C4F53",
"} 	c #19A5AF",
"| 	c #1D2B2C",
"1 	c #15F0FF",
"2 	c #1A8991",
"3 	c #1E2D2F",
"4 	c #1D4246",
"5 	c #1C6268",
"6 	c #17D1DF",
"7 	c #1A949D",
"8 	c #1A7980",
"9 	c #18D5E3",
"0 	c #1E3A3C",
"a 	c #1E2728",
"b 	c #1D3436",
"c 	c #1C4E51",
"d 	c #1A7E85",
"e 	c #16E8F8",
"f 	c #1B6C73",
"g 	c #1E1F1F",
"h 	c #1F2222",
"i 	c #1D2A2B",
"j 	c #1D3E40",
"k 	c #1C5A5F",
"l 	c #19ABB5",
"m 	c #1E2425",
"n 	c #1D2F31",
"o 	c #1D4649",
"p 	c #1B666C",
"q 	c #17D3E0",
"r 	c #1F1E1E",
"s 	c #1F2020",
"t 	c #1D3738",
"u 	c #1C5054",
"v 	c #1B8189",
"w 	c #1E2222",
"x 	c #1E2B2C",
"y 	c #1C5C61",
"z 	c #19B3BE",
"A 	c #17C8D5",
"B 	c #15EDFF",
"C 	c #1F1F1F",
"D 	c #1E2525",
"E 	c #1E3132",
"F 	c #1C474A",
"G 	c #17D9E8",
"H 	c #1A878E",
"I 	c #1F2121",
"J 	c #1D3638",
"K 	c #1C5155",
"L 	c #1A9098",
"M 	c #1D3E41",
"N 	c #1C5D62",
"O 	c #18BAC6",
"P 	c #1E2020",
"Q 	c #1E3133",
"R 	c #1C484B",
"S 	c #1B7176",
"T 	c #16E1EF",
"U 	c #1B7A81",
"V 	c #1C5F64",
"W 	c #1E2828",
"X 	c #1C5357",
"Y 	c #1A929B",
"Z 	c #1E393B",
"` 	c #1E2323",
" .	c #1D2C2D",
"..	c #1D4044",
"+.	c #18BCC8",
"@.	c #1E2526",
"#.	c #1E3334",
"$.	c #1D4B4F",
"%.	c #1C737A",
"&.	c #16E2F0",
"*.	c #1F1F20",
"=.	c #1E2121",
"-.	c #1E292A",
";.	c #1E3A3D",
">.	c #1C565A",
",.	c #1B959D",
"'.	c #1E2E2E",
").	c #1E2021",
"!.	c #1F2021",
"~.	c #1F2424",
"{.	c #1E2E2F",
"].	c #1D4547",
"^.	c #1C6368",
"/.	c #18BDC9",
"(.	c #1AAFBA",
"_.	c #1F2122",
":.	c #1E2122",
"<.	c #1E2C2D",
"[.	c #1E2627",
"}.	c #1E3638",
"|.	c #1D5156",
"1.	c #1C7C84",
"2.	c #1B6267",
"3.	c #1E2424",
"4.	c #1E2223",
"5.	c #1E1F20",
"6.	c #1D5358",
"7.	c #1E2324",
"8.	c #1E3031",
"9.	c #1C4448",
"0.	c #1B696E",
"a.	c #17C7D3",
"b.	c #19A3AD",
"c.	c #18A2AD",
"d.	c #1B8890",
"e.	c #1C7B82",
"f.	c #1C6E74",
"g.	c #1D6065",
"h.	c #1D5457",
"i.	c #1D5458",
"j.	c #1E474A",
"k.	c #1D2E2F",
"l.	c #1F2323",
"m.	c #1E2D2E",
"n.	c #1B4346",
"o.	c #1A747B",
"p.	c #1A949E",
"q.	c #19A3AE",
"r.	c #18A7B0",
"s.	c #18B5C1",
"t.	c #19B6C2",
"u.	c #17BEC9",
"v.	c #18C5D1",
"w.	c #19CBD9",
"x.	c #18D3E1",
"y.	c #18DAE9",
"z.	c #17E1F0",
"A.	c #17E8F8",
"B.	c #19BCC8",
"C.	c #1F2626",
"D.	c #1D3334",
"E.	c #1C4B4E",
"F.	c #17CCD8",
"G.	c #19A6B0",
"H.	c #18BECA",
"I.	c #1C6267",
"J.	c #1C5E63",
"K.	c #1D5F64",
"L.	c #1D6066",
"M.	c #1C6065",
"N.	c #1C6166",
"O.	c #1C6369",
"P.	c #1D656A",
"Q.	c #1D666B",
"R.	c #1A696E",
"S.	c #1C6C72",
"T.	c #1B6E74",
"U.	c #1B7178",
"V.	c #1A8288",
"W.	c #1A838A",
"X.	c #18929A",
"Y.	c #18929B",
"Z.	c #199099",
"`.	c #1A9BA5",
" +	c #1B939D",
".+	c #18C7D4",
"++	c #1F2B2B",
"@+	c #1D3B3D",
"#+	c #1B8E97",
"$+	c #18D7E6",
"%+	c #1A97A0",
"&+	c #1D4447",
"*+	c #1D4346",
"=+	c #1E4548",
"-+	c #1E4A4D",
";+	c #1D4B4E",
">+	c #1D4D51",
",+	c #1C4E52",
"'+	c #1C5255",
")+	c #1C5358",
"!+	c #1D4F52",
"~+	c #1B6064",
"{+	c #1E3233",
"]+	c #1C484D",
"^+	c #16DCEB",
"/+	c #1B757C",
"(+	c #1E2F31",
"_+	c #1E3E41",
":+	c #17D7E5",
"<+	c #1D3F41",
"[+	c #1F3738",
"}+	c #1F3638",
"|+	c #1E3537",
"1+	c #1E3434",
"2+	c #1F3537",
"3+	c #1D3235",
"4+	c #1E3234",
"5+	c #1D3335",
"6+	c #1C3637",
"7+	c #1D3739",
"8+	c #1C383A",
"9+	c #1D393C",
"0+	c #1C3A3C",
"a+	c #1D3C3E",
"b+	c #1A939B",
"c+	c #1D292A",
"d+	c #1D3D3F",
"e+	c #19A0AA",
"f+	c #16D7E4",
"g+	c #1E2A2B",
"h+	c #19A9B3",
"i+	c #1A8D95",
"j+	c #1E3436",
"k+	c #1D3233",
"l+	c #1D3132",
"m+	c #1D2D2F",
"n+	c #1F2F30",
"o+	c #1E3032",
"p+	c #1D494C",
"q+	c #18C0CC",
"r+	c #199AA4",
"s+	c #1E2C2E",
"t+	c #1F3536",
"u+	c #1C5E62",
"v+	c #18E6F5",
"w+	c #1C595D",
"x+	c #1F2E2F",
"y+	c #1B6368",
"z+	c #1E3435",
"A+	c #1C3233",
"B+	c #1D3133",
"C+	c #1D3234",
"D+	c #1C3E40",
"E+	c #199DA6",
"F+	c #17E3F2",
"G+	c #1A828A",
"H+	c #1E2B2D",
"I+	c #19A4AE",
"J+	c #16EDFF",
"K+	c #1D3F42",
"L+	c #19B4C0",
"M+	c #1AA4AD",
"N+	c #1F2828",
"O+	c #1F3031",
"P+	c #1D3639",
"Q+	c #18C2CE",
"R+	c #1A7B82",
"S+	c #1D3A3D",
"T+	c #1D3A3C",
"U+	c #1C3839",
"V+	c #1C3739",
"W+	c #1E3739",
"X+	c #1D3538",
"Y+	c #1A868E",
"Z+	c #17E4F2",
"`+	c #189CA6",
" @	c #1D3C3F",
".@	c #1E2A2C",
"+@	c #1B5A5E",
"@@	c #1D6368",
"#@	c #1E3D3F",
"$@	c #1E2C2C",
"%@	c #1D3031",
"&@	c #1B696F",
"*@	c #18C3CF",
"=@	c #1C3F42",
"-@	c #1D3D40",
";@	c #1C3A3D",
">@	c #1C383B",
",@	c #1C656B",
"'@	c #18C1CD",
")@	c #1E2F30",
"!@	c #1D2D2E",
"~@	c #17D6E4",
"{@	c #1E2E30",
"]@	c #1D4446",
"^@	c #18DBEA",
"/@	c #1B8991",
"(@	c #1F2425",
"_@	c #1E2829",
":@	c #1D3537",
"<@	c #18C4D1",
"[@	c #1C4245",
"}@	c #1C4244",
"|@	c #1E4144",
"1@	c #1E5458",
"2@	c #19ABB7",
"3@	c #17D8E7",
"4@	c #1C7077",
"5@	c #1E3536",
"6@	c #1D393A",
"7@	c #1A8B93",
"8@	c #18D5E4",
"9@	c #1E2626",
"0@	c #1C4042",
"a@	c #1A848C",
"b@	c #18C5D2",
"c@	c #1C4749",
"d@	c #1C4649",
"e@	c #1D4E52",
"f@	c #1A98A2",
"g@	c #17DAE7",
"h@	c #19959E",
"i@	c #1C4346",
"j@	c #1C4144",
"k@	c #18DCEB",
"l@	c #1C6F75",
"m@	c #1F2525",
"n@	c #1F2627",
"o@	c #1D2E30",
"p@	c #1C3335",
"q@	c #1D393B",
"r@	c #17E5F4",
"s@	c #1C696F",
"t@	c #1C7379",
"u@	c #17DAE9",
"v@	c #1D565A",
"w@	c #1F3C3F",
"x@	c #1E3335",
"y@	c #1998A1",
"z@	c #202020",
"A@	c #1E3E40",
"B@	c #1AA0AA",
"C@	c #17D5E4",
"D@	c #1F2526",
"E@	c #1F2A2B",
"F@	c #1D3637",
"G@	c #1C3B3D",
"H@	c #1D4043",
"I@	c #1D484B",
"J@	c #1A9DA6",
"K@	c #17DBE9",
"L@	c #1B7177",
"M@	c #1F2829",
"N@	c #1D3536",
"O@	c #1F2F31",
"P@	c #1D4144",
"Q@	c #1D5053",
"R@	c #19A6B1",
"S@	c #1B4649",
"T@	c #1E393C",
"U@	c #1D2F30",
"V@	c #17B6C1",
"W@	c #1D2729",
"X@	c #1E3D40",
"Y@	c #17E4F4",
"Z@	c #1B4447",
"`@	c #1C4043",
" #	c #1F2E2E",
".#	c #1D2829",
"+#	c #1B7076",
"@#	c #1D3A3B",
"##	c #1A8188",
"$#	c #1C686D",
"%#	c #18C3D0",
"&#	c #1A6D73",
"*#	c #1C4447",
"=#	c #1D464A",
"-#	c #1C5C60",
";#	c #16E4F4",
">#	c #1C3F41",
",#	c #1F2B2C",
"'#	c #17E1F1",
")#	c #1C484C",
"!#	c #16DCEA",
"~#	c #1A8C95",
"{#	c #1AAAB5",
"]#	c #17D9E7",
"^#	c #1A7F86",
"/#	c #1E4043",
"(#	c #1D4245",
"_#	c #1D4347",
":#	c #198C94",
"<#	c #1D3839",
"[#	c #1F3335",
"}#	c #1F2727",
"|#	c #1B7C84",
"1#	c #1F2223",
"2#	c #1A8E97",
"3#	c #17D8E6",
"4#	c #1A939C",
"5#	c #1E4347",
"6#	c #1D383B",
"7#	c #1E3C3E",
"8#	c #1C3D3F",
"9#	c #1B6A70",
"0#	c #1E3B3D",
"a#	c #1E2929",
"b#	c #1D7A81",
"c#	c #202121",
"d#	c #1B6065",
"e#	c #16DDEB",
"f#	c #1B747B",
"g#	c #1D3032",
"h#	c #18C1CE",
"i#	c #1E3637",
"j#	c #1C666B",
"k#	c #1D3435",
"l#	c #1F3132",
"m#	c #19E1F1",
"n#	c #19B5C0",
"o#	c #1C494D",
"p#	c #1B6468",
"q#	c #1B5E64",
"r#	c #18C0CD",
"s#	c #1D4143",
"t#	c #19BECA",
"u#	c #1D4345",
"v#	c #1C3234",
"w#	c #1D2C2E",
"x#	c #1A8189",
"y#	c #19B3BF",
"z#	c #19A4AF",
"A#	c #1C3B3E",
"B#	c #1D2B2B",
"C#	c #1E2A2A",
"D#	c #1F2A2A",
"E#	c #19A7B1",
"F#	c #1A747A",
"G#	c #16D6E4",
"H#	c #1E3F42",
"I#	c #1F2728",
"J#	c #1D2A2C",
"K#	c #1C3638",
"L#	c #18D7E5",
"M#	c #18EEFF",
"N#	c #16E2F1",
"O#	c #18BCC9",
"P#	c #18A5AF",
"Q#	c #198D95",
"R#	c #1A8087",
"S#	c #1C4A4E",
"T#	c #1D2A2A",
"U#	c #1C555A",
"V#	c #18EFFF",
"W#	c #19EEFF",
"X#	c #18F0FF",
"Y#	c #17C9D6",
"Z#	c #18BEC9",
"`#	c #18B1BC",
" $	c #17F1FF",
".$	c #19F0FF",
"                                                                                                                                ",
"                                                                                                                                ",
"                                                                                                                                ",
"                                                                                                                                ",
"                                                                                                                                ",
"                                                                                                                                ",
"                                                                                                                                ",
"                                                                                                                                ",
"                                                                                                                                ",
"                                                                                                                                ",
"                                        . + @ # $ @ % $ # # &                                                                   ",
"                                      @ * = - ; > > , ' ' ' ) = = ! + + + $ % $ + + ~ %                                         ",
"                                    + { ] ^ / ( ( ( ( ( ( ( ( ( ( ( ( ( ( _ _ _ : / / ' #                                       ",
"                                    % < [ } = | ( ( ( ( ( ( ( ( ( ( ( ( ( ( ( ( ( ( ( _ ! 1                                     ",
"                                  1 2 3 4 5 6 7 ( ( ( ( ( ( ( ( ( ( ( ( ( ( ( ( ( ( ( ( 8 @                                     ",
"                                + 9 0 a b c d e / ( ( ( ( ( ( ( ( ( ( ( ( ( ( ( ( ( ( ( ( ' @                                   ",
"                                + f g h i j k l = | ( ( ( ( ( ( ( ( ( ( ( ( ( ( ( ( ( ( ( _ ! 1                                 ",
"                              # = ( ( g m n o p q - ( ( ( ( ( ( ( ( ( ( ( ( ( ( ( ( ( ( ( ( 8 +                                 ",
"                              % : ( ( r s a t u v e : ( ( ( ( ( ( ( ( ( ( ( ( ( ( ( ( ( ( ( ( ' +                               ",
"                            @ > ( ( ( ( g w x j y z A ( ( ( ( ( ( ( ( ( ( ( ( ( ( ( ( ( ( ( ( _ ! B                             ",
"                            + _ ( ( ( ( C g D E F ] G - ( ( ( ( ( ( ( ( ( ( ( ( ( ( ( ( ( ( ( ( 8 $                             ",
"                          & H ( ( ( ( ( ( ( I a J K L ! _ ( ( ( ( ( ( ( ( ( ( ( ( ( ( ( ( ( ( ( ( , +                           ",
"                        @ = ( ( ( ( ( ( ( ( g w x M N O ' ( ( ( ( ( ( ( ( ( ( ( ( ( ( ( ( ( ( ( ( x ! #                         ",
"                        % f ( ( ( ( ( ( ( ( r P D Q R S T U ( ( ( ( ( ( ( ( ( ( ( ( ( ( ( ( ( ( ( ( V $                         ",
"                      & A ( ( ( ( ( ( ( ( ( ( C s W _ X Y ! Z ( g g C ( C C g r r ( g ( ( C ( ( C C ( , +                       ",
"                      % _ ( ( ( ( ( ( ( ( ( ( C g `  ...V +.' r C C C C C C ( ( g ( ( ( ( ( ( ( ( ( ( x ! B                     ",
"                    ~ > ( ( ( ( ( ( ( ( ( ( ( ( ( s @.#.$.%.&.U *.C g g s *.g g C C ( ( ( ( ( ( ( ( ( ( V %                     ",
"                    = _ ( ( ( ( ( ( ( ( ( ( ( ( ( C =.-.;.>.,.! '.).!.!.s ).P P s C ( ( ( ( ( C ( ( ( ( r , +                   ",
"                  ~ H ( ( ( ( ( ( ( ( ( ( ( ( ( ( ( C ~.{.].^./.(._.w w h :._.!.s C C ( ( ( C C *.C g P C <.! #                 ",
"                @ = ( ( ( ( ( ( ( ( ( ( ( ( ( ( ( ( C I [.}.|.1.e 2.m 3.3.4.w w ).P s C g g s 5.s s s s s C 6.+                 ",
"                % f ( ( ( ( ( ( ( ( ( ( ( ( ( ( ( ( ( C 7.8.9.0.a.~ /././.b.c.2 d.e.f.g.h.i.j.;.k.w w w w I I 7 +               ",
"              + , ( ( ( ( ( ( ( ( ( ( ( ( ( ( ( ( ( C C l.m.n.o.& ~ p.q.r.s.t.u.v.w.x.x.y.z.A.@ + % + = = A B.A .               ",
"              + _ ( ( ( ( ( ( ( ( ( ( ( ( ( ( ( ( ( r !.C.D.E.F.~ G.H.I.J.K.L.M.N.O.P.Q.] R.S.T.U.V.W.X.Y.Z.`. +.+1             ",
"            % ) ( ( ( ( ( ( ( ( ( ( ( ( ( ( ( ( ( ( C h ++@+#++ $+c ; %+&+: *+*+&+*+=+: o -+;+>+,+u '+X )+X !+X y.              ",
"              ~ ~+( ( ( ( ( ( ( ( ( ( ( ( ( ( ( ( ( s 3.{+]+^+# /+(+_+:+<+[+}+|+1+2+3+4+5+6+7+8+9+@+0+a+a+9+7+b+#               ",
"              ~ ! | ( ( ( ( ( ( ( ( ( ( ( ( ( ( ( r =.c+d+e++ f+g+{.E h+i+j+5+k+l+8.m+{.n+o+o+l+l+Q p+q+r+s+*++                 ",
"                + 7 ( ( ( ( ( ( ( ( ( ( ( ( ( ( ( C D t+u+v++ w+i x+{+y+! b J j+z+A+B+Q 8.4+4+C+D+E+F+G+H+-.I+J+                ",
"                  $ / ( ( ( ( ( ( ( ( ( ( ( ( ( *.:.| K+L++ M+N+| O+4+P+Q+R+S+T+U+V+W+X+j+|+j+Y+Z+`+ @m..@+@+                   ",
"                  # = | ( ( ( ( ( ( ( ( ( ( ( C P [.J @@+ + #@a $@%@b _ &@*@=@<+-@ @;@>@_ ,@'@'@y+l+)@!@c+~@@                   ",
"                    + 7 ( ( ( ( ( ( ( ( ( ( ( g ` {@]@^@# /@(@_@<.%@:@0+D+<@f.[@}@|@<+1@2@3@4@5@C+o+m.x %.@                     ",
"                      @ / ( ( ( ( ( ( ( ( ( r )._@6@7@+ 8@8.9@_@{.D.7+d+0@a@b@c@d@e@f@g@h@i@}.D.o+k.| j@~@J+                    ",
"                      # = | ( ( ( ( ( ( ( C s ~.B+/ k@# l@m@n@.@o@p@q@<+[@K r@s@t@u@v.v@w@U+x@E {.i _@y@%                       ",
"                        + - ( ( ( ( ( ( ( z@=.| A@B@+ C@D@C.E@s+l+F@G@H@: I@J@r@K@L@]@K+;.:@Q x+i M@K+$                         ",
"                          ~ : ( ( ( C C s P a N@~+# + <+N+-.<.O@C+V+ @P@Q@R@r@u@)+S@j@j T@p@U@H+a C.b.@                         ",
"                          ~ A ( ( ( r C s m )@&+V@+ I+W@i <.)@B+b Z X@i+Y@G.X R@`.Z@`@a+t E  #.#D@+#+                           ",
"                            + U ( ( C s h g+@###~ F+}@x m+%@C+j+W+$#*@%#&#*#=#-#;#< >#;.|+%@,#[.3.8@#                           ",
"                              '#_ g C h @.4+)#!#% ~#H+{@l+C+j+>+{#]#^#j K+/#(#_#<@:#d+<#[#!@-.}#|##                             ",
"                              + ' g C 1#H+M 2#+ :+<.{@l+5+`@b+3#4#5#6#q@;@7#8#<+9#*@0#J Q {.a#j 8@                              ",
"                                ~ b#c#a b d#e#+ f#{.g#C+^.3#h#>+}.i#b }.W+7+_ 0 q@H.j#k#l#m.M@I+&                               ",
"                                  m#d+{.P@n#& H. .(+o#q+3#p#b 5+#.Q o+l+B+C+k#}.t q#r#{+(+.@s#+                                 ",
"                                  ~ t#|+N.+ + u#q@`.Z+a@v#D.k+g#8.x+<.m.w#{.U@E 4+4+= g.{.x H.&                                 ",
"                                    + x#y#% z#}@F+r+A#o+E 8.o@3 B#C#D#a#.#-.x m.)@8.~#E# .F#%                                   ",
"                                      + + G#H#_@,+$@!@{.m.m.| -.W n@n@m @.I#M@C#J#<.|+! K#L#&                                   ",
"                                        M#N#O#I+P#i+Q#R#f#F#k w+S#d+ @~.` ~.(@n@M@.#T#U#%+%                                     ",
"                                          + V#W#1 & # + + X#@ @ @ + # # # ! = Y#/.Z#`#} F+                                      ",
"                                                                              1  $+ .$&                                         ",
"                                                                                                                                ",
"                                                                                                                                ",
"                                                                                                                                ",
"                                                                                                                                ",
"                                                                                                                                ",
"                                                                                                                                ",
"                                                                                                                                ",
"                                                                                                                                ",
"                                                                                                                                ",
"                                                                                                                                "};
