/* XPM */
static char * sprite4_xpm[] = {
"67 68 423 2",
"  	c None",
". 	c #16EFFF",
"+ 	c #15EFFF",
"@ 	c #16F0FF",
"# 	c #19BBC7",
"$ 	c #17F0FF",
"% 	c #17EFFF",
"& 	c #17E2F1",
"* 	c #18BBC7",
"= 	c #1A949D",
"- 	c #1D5357",
"; 	c #1D2C2D",
"> 	c #1C6E74",
", 	c #17DAE8",
"' 	c #18B8C3",
") 	c #1A868E",
"! 	c #1C5256",
"~ 	c #1D2C2C",
"{ 	c #1E1E1E",
"] 	c #1F1F1F",
"^ 	c #1E2020",
"/ 	c #1B8890",
"( 	c #1D4345",
"_ 	c #18D6E5",
": 	c #16EEFF",
"< 	c #1D2B2C",
"[ 	c #1F1E1E",
"} 	c #1F2020",
"| 	c #1C474B",
"1 	c #17DCEB",
"2 	c #1D4A4E",
"3 	c #1E3436",
"4 	c #1D4144",
"5 	c #18D6E4",
"6 	c #1B7981",
"7 	c #1AA2AC",
"8 	c #18B4C1",
"9 	c #1D4244",
"0 	c #1D3030",
"a 	c #1E2829",
"b 	c #1E4D50",
"c 	c #15F0FF",
"d 	c #1D3A3D",
"e 	c #1B6469",
"f 	c #1E3B3D",
"g 	c #1D2D2E",
"h 	c #1E2A2B",
"i 	c #1E2929",
"j 	c #1B7379",
"k 	c #15F1FF",
"l 	c #17F1FF",
"m 	c #19A1AB",
"n 	c #1E1F1F",
"o 	c #1B7B82",
"p 	c #18B7C3",
"q 	c #1D484B",
"r 	c #1E3638",
"s 	c #1B5256",
"t 	c #18BFCB",
"u 	c #1E2B2C",
"v 	c #1D292A",
"w 	c #1A8C94",
"x 	c #1D383A",
"y 	c #17D5E3",
"z 	c #1A7A81",
"A 	c #1D3F41",
"B 	c #1E3334",
"C 	c #1E3A3D",
"D 	c #17E3F2",
"E 	c #1E2E2F",
"F 	c #1E2A2A",
"G 	c #1AA4AF",
"H 	c #17EEFF",
"I 	c #16F1FF",
"J 	c #1C6D73",
"K 	c #1C4B4E",
"L 	c #1D3031",
"M 	c #1E2F30",
"N 	c #17D7E6",
"O 	c #1E2E30",
"P 	c #1C3537",
"Q 	c #18CAD7",
"R 	c #1B6C73",
"S 	c #198E97",
"T 	c #1D3436",
"U 	c #1E3032",
"V 	c #18B4BF",
"W 	c #1C6D74",
"X 	c #1D2F31",
"Y 	c #1E2D2E",
"Z 	c #1D2A2B",
"` 	c #1D4143",
" .	c #17D6E4",
"..	c #1B565B",
"+.	c #1C393B",
"@.	c #1E3132",
"#.	c #1E3133",
"$.	c #19919A",
"%.	c #1A929A",
"&.	c #1D3133",
"*.	c #1D282A",
"=.	c #1D4B4F",
"-.	c #17E2F2",
";.	c #16ECFF",
">.	c #1AA1AB",
",.	c #19B4C0",
"'.	c #1C4144",
").	c #1E3435",
"!.	c #1D2E2E",
"~.	c #1E3233",
"{.	c #1B6E75",
"].	c #19B5C0",
"^.	c #1D3335",
"/.	c #1E2728",
"(.	c #1B7077",
"_.	c #1C6268",
":.	c #1E393B",
"<.	c #1E2D2F",
"[.	c #1E2F31",
"}.	c #1E3234",
"|.	c #1D4C4F",
"1.	c #17D8E6",
"2.	c #1E2C2C",
"3.	c #1E2828",
"4.	c #1E2526",
"5.	c #1A8991",
"6.	c #1B6D72",
"7.	c #1C4346",
"8.	c #1F2C2D",
"9.	c #1E2C2D",
"0.	c #1E3031",
"a.	c #1E3134",
"b.	c #1F3639",
"c.	c #17E4F3",
"d.	c #1D4346",
"e.	c #1F3233",
"f.	c #1F2828",
"g.	c #1E2424",
"h.	c #18D5E3",
"i.	c #1D7980",
"j.	c #1D3739",
"k.	c #17CCDA",
"l.	c #1D5C60",
"m.	c #1E3739",
"n.	c #1F2F30",
"o.	c #18C9D7",
"p.	c #1F2121",
"q.	c #1D4A4D",
"r.	c #1E3335",
"s.	c #1F2E2E",
"t.	c #1D3A3C",
"u.	c #18ACB7",
"v.	c #1C8188",
"w.	c #1E3537",
"x.	c #1D2E30",
"y.	c #1E292A",
"z.	c #1F2222",
"A.	c #18BCC8",
"B.	c #1E4043",
"C.	c #1F3132",
"D.	c #1E2C2E",
"E.	c #1E3A3C",
"F.	c #1D3C3F",
"G.	c #19A2AD",
"H.	c #1D3D40",
"I.	c #1C3B3C",
"J.	c #1D3234",
"K.	c #1D2F30",
"L.	c #18EFFF",
"M.	c #1E2121",
"N.	c #1D3C3E",
"O.	c #16E6F5",
"P.	c #1B6166",
"Q.	c #1D393B",
"R.	c #1E383B",
"S.	c #1C3B3E",
"T.	c #1D3E41",
"U.	c #1B6D73",
"V.	c #18C3D1",
"W.	c #1D3E40",
"X.	c #1D3B3E",
"Y.	c #1C676D",
"Z.	c #19AEB9",
"`.	c #1E2222",
" +	c #17B6C2",
".+	c #1C4548",
"++	c #1D3537",
"@+	c #1E383A",
"#+	c #1D4F53",
"$+	c #17E4F4",
"%+	c #1D4447",
"&+	c #1F4043",
"*+	c #1C3A3B",
"=+	c #1D3638",
"-+	c #198C95",
";+	c #1C5F64",
">+	c #16E2F2",
",+	c #1B3D40",
"'+	c #1D3334",
")+	c #1C3D3F",
"!+	c #1E4143",
"~+	c #1A4245",
"{+	c #1D464A",
"]+	c #17DAE9",
"^+	c #1C5D62",
"/+	c #1D4548",
"(+	c #1D4245",
"_+	c #1C4042",
":+	c #1D3233",
"<+	c #1C4649",
"[+	c #1C5054",
"}+	c #1998A1",
"|+	c #15EEFF",
"1+	c #1B6F75",
"2+	c #1C494C",
"3+	c #1E3536",
"4+	c #1D383B",
"5+	c #1D474A",
"6+	c #1C5559",
"7+	c #1B6368",
"8+	c #1B6F76",
"9+	c #1B8790",
"0+	c #17D0DE",
"a+	c #19B2BD",
"b+	c #18A5B0",
"c+	c #19AFBA",
"d+	c #17B8C4",
"e+	c #18C3CF",
"f+	c #17D9E7",
"g+	c #17D9E6",
"h+	c #1C4245",
"i+	c #17EDFF",
"j+	c #1B7980",
"k+	c #1C5258",
"l+	c #1C7A82",
"m+	c #198D96",
"n+	c #18B5C1",
"o+	c #18BFCC",
"p+	c #17D9E8",
"q+	c #18D0DD",
"r+	c #18C5D2",
"s+	c #18B0BC",
"t+	c #17D1DE",
"u+	c #18C6D2",
"v+	c #1B929B",
"w+	c #1A858D",
"x+	c #1A787E",
"y+	c #1C6065",
"z+	c #1C5156",
"A+	c #1D3435",
"B+	c #19949D",
"C+	c #17C8D5",
"D+	c #17CEDC",
"E+	c #1C6F75",
"F+	c #1B6B71",
"G+	c #1E4A4D",
"H+	c #1C3638",
"I+	c #1D3B3D",
"J+	c #1E4245",
"K+	c #1E4447",
"L+	c #1A868F",
"M+	c #19B1BD",
"N+	c #1D3D3F",
"O+	c #1C3436",
"P+	c #19A4AF",
"Q+	c #1B7A81",
"R+	c #18D3E0",
"S+	c #19ABB6",
"T+	c #1B8F98",
"U+	c #18DEEC",
"V+	c #199BA4",
"W+	c #1E373A",
"X+	c #1C3A3C",
"Y+	c #1E3E40",
"Z+	c #1D4042",
"`+	c #1D5B60",
" @	c #1D4043",
".@	c #1A878F",
"+@	c #17E5F5",
"@@	c #18C8D5",
"#@	c #19959F",
"$@	c #1B757C",
"%@	c #1C5357",
"&@	c #1E4446",
"*@	c #1D5256",
"=@	c #1C7177",
"-@	c #17E7F5",
";@	c #1B8D95",
">@	c #1F383A",
",@	c #1C3F41",
"'@	c #16E4F3",
")@	c #1C4C50",
"!@	c #1C3E41",
"~@	c #1E3B3E",
"{@	c #1B7177",
"]@	c #18B5C0",
"^@	c #1A949E",
"/@	c #1C6A70",
"(@	c #18CAD8",
"_@	c #1C5358",
":@	c #1A848B",
"<@	c #1A7379",
"[@	c #18CEDC",
"}@	c #1B6064",
"|@	c #1D3637",
"1@	c #1F2B2C",
"2@	c #1F2727",
"3@	c #1F2525",
"4@	c #17D5E4",
"5@	c #17D2E0",
"6@	c #19AAB5",
"7@	c #1A8A92",
"8@	c #1B5E63",
"9@	c #1C4447",
"0@	c #1E2E2E",
"a@	c #1E2627",
"b@	c #1F2324",
"c@	c #1F2021",
"d@	c #1F2526",
"e@	c #19A0AB",
"f@	c #1D4D51",
"g@	c #1F3538",
"h@	c #1C3739",
"i@	c #1E3C3E",
"j@	c #1AACB8",
"k@	c #1B8087",
"l@	c #1D3A3B",
"m@	c #1E3639",
"n@	c #1C3234",
"o@	c #1F2D2E",
"p@	c #1C565A",
"q@	c #17E5F4",
"r@	c #18C7D4",
"s@	c #199FA9",
"t@	c #1C5356",
"u@	c #1D3032",
"v@	c #1E2324",
"w@	c #1E1E1F",
"x@	c #18C8D6",
"y@	c #1E2727",
"z@	c #1C4446",
"A@	c #1E3E41",
"B@	c #1E2626",
"C@	c #1B8991",
"D@	c #1F2424",
"E@	c #1AAEBA",
"F@	c #1E2729",
"G@	c #1E2425",
"H@	c #1E2223",
"I@	c #1C474A",
"J@	c #18C9D6",
"K@	c #1E3033",
"L@	c #1C646A",
"M@	c #18C1CE",
"N@	c #17D7E5",
"O@	c #1E2021",
"P@	c #1C5257",
"Q@	c #1F2626",
"R@	c #1E282A",
"S@	c #1E4144",
"T@	c #16E3F3",
"U@	c #19A2AC",
"V@	c #16E5F5",
"W@	c #1D393C",
"X@	c #1C767D",
"Y@	c #1B7076",
"Z@	c #1F2E2F",
"`@	c #1D2829",
" #	c #1B7278",
".#	c #1D4C50",
"+#	c #1A9EA8",
"@#	c #1D4044",
"##	c #19AAB4",
"$#	c #16D6E4",
"%#	c #1B7A82",
"&#	c #19A9B4",
"*#	c #1D2B2D",
"=#	c #1B5B5F",
"-#	c #17E1F1",
";#	c #17C8D6",
">#	c #17D7E4",
",#	c #1C3639",
"'#	c #1C4A4D",
")#	c #19A5AF",
"!#	c #1D2E2F",
"~#	c #1E3839",
"{#	c #1C6167",
"]#	c #16DDEC",
"^#	c #1998A3",
"/#	c #18CBD8",
"(#	c #1999A2",
"_#	c #1F2223",
":#	c #1E3D3E",
"<#	c #1A8189",
"[#	c #1AA7B1",
"}#	c #1A757B",
"|#	c #1D2A2A",
"1#	c #14F1FF",
"2#	c #1E2525",
"3#	c #1C3F42",
"4#	c #1A98A1",
"5#	c #1C5B60",
"6#	c #1A676C",
"7#	c #18A2AC",
"8#	c #1C4143",
"9#	c #18BEC9",
"0#	c #202021",
"a#	c #1F2728",
"b#	c #1D474B",
"c#	c #19B6C1",
"d#	c #1C585C",
"e#	c #17ECFF",
"f#	c #1C5155",
"g#	c #18D2DF",
"h#	c #1F1E1F",
"i#	c #1F2323",
"j#	c #1F2A2B",
"k#	c #1C585D",
"l#	c #19A4AE",
"m#	c #1B878F",
"n#	c #18E2F2",
"o#	c #1A7980",
"p#	c #14EEFF",
"                                                                                                                                      ",
"                                                                                                                                      ",
"                                                                                                                                      ",
"                                                                                                                                      ",
"                                                                                                                                      ",
"                                                                                                                                      ",
"                                                                                                                                      ",
"                                                                                                                                      ",
"                                                                                                                                      ",
"                                                                              .                                                       ",
"                                                                      + @ . . # . @ $                                                 ",
"                                                              + % . & * = - ; > % , ' %                                               ",
"                                                      + . . & * ) ! ~ { ] ] ^ * % / ( _ %                                             ",
"                                              : $ . & * ) ! < { { { { [ ] } | . 1 2 3 4 5 .                                           ",
"                                      : $ . & * 6 ! < { { { { { { { { { } } 7 . 8 9 0 a b : .                                         ",
"                                  c & * 6 ! { { { { { { { { { { { { { ] } d . + e f g h i j k                                         ",
"                                l m { { { { { { { { { { { { { { { { n ] } o . p q r s t u v w .                                       ",
"                                + x { { { { { { { { { { { { { { { { { ] } y % z A B C D E < F G H                                     ",
"                              I * { { { { { { { { { { { { { { { { { { ] J . 1 K x L M N q O < P Q $                                   ",
"                              . R { { { { { { { { { { { { { { { { { n ] # . S 9 T M U V W X Y Z `  .:                                 ",
"                              y { { { { { { { { { { { { { { { { { { { x . 1 ..+.@.M #.$.%.&.M < *.=.-.;.                              ",
"                            . m { { { { { { { { { { { { { { { { { { { >.% ,.'.).!.O ~.{.].^.U E Z /.(..                               ",
"                            + x { { { { { { { { { { { { { { { { { { x % . _.:.<.Y [.}.|.1.3 ~.E 2.3.4.5.%                             ",
"                          . * { { { { { { { { { { { { { { { { { [ n 6.% t 7.}.8.9.0.a.b.c.d.).e.Y < f.g.7 .                           ",
"                          . R { { { { { { { { { { { { { { { { n n ^ h.. i.f O 8.Y #.T j.k.l.m.^.~.n.8./.~.o.@                         ",
"                          y { { { { { { { { { { { { { { ] ] n } p.J % 1 q.r.u s.L ).j.t.u.v.f j.w.}.x.< y.`  .$                       ",
"                        % m { { { { { { { { { { { { { n ] ] ^ } z.A.. S B.C.D.x.r.r E.F.w G.H.I.x T J.K.u h '.-.L.                    ",
"                        + x { { { { { { { { { { { { { { n n } M.N.. O.P.Q.0.g &.w.R.S.T.U.V.4 W.X.x r J.0.9.u Y..                     ",
"                      % Z.{ { { { { { { { { { { { { { ] n ^ } `.G.+  +.+++[.C.^.@+I.W.4 #+$+%+4 &+N.*+=+B U Y < -+.                   ",
"                      @ ;+{ { { { { { { { { { { { { { { n ^ M.N.>+@ Y.,+'+0.}.=+t.)+!+~+{+]+^+/+(+_+)+t.=+:+N.<+[+}+|+                ",
"                      y { { { { { { { { { { { { { { { [ n p.p.1+@ Q 2+x ~.}.3+4+5+6+7+8+9+0+a+b+c+d+e+f+g+. 1.N t h+Q                 ",
"                    i+j+{ { { { { { { { { { { { { { ] < k+l+A.-.. = m+n+o+1.1.. c.p+q+r+s+t+u+v+w+x+y+z+7.A+C.E < 9 +                 ",
"                    + x { { { { { { { { { { { < 6.B+C+% % . . |++ D+E+F+;+G+b H+I+A J+K+<+L+M+<+7.` N++.O+@.O < v P+.                 ",
"                  : m { { { { { { { { /+Q+m y . . . . . R+S+T+6 U+. V+Y Y M 0.^.W+X+Y+Z+h+`+, %+ @H.t.m.J.[.u y.4 D                   ",
"                  . ! { { { < ! .@* & . + . . +@@@#@$@%@&@W.F+*@=@-@$ ;@Z D.E @.^.>@+.N.,@'.'@)@!@~@H+T ~.D.F /.{@:                   ",
"                  y x 6.B+C+. . . . . 1 ]@^@/@{+Z+Q.T M 9.y.(@_@Z+:@. @ <@y.< Y L A+P Q.N.T.[@}@S.Q.|@&.M 1@2@3@4@%                   ",
"                . & . . . . . 5@6@7@8@9@W.x J.0@h a@g.b@c@`.. d@X 4 e@+ D f@/.y.9.K.'+g@h@i@j@k@l@m@n@0.o@i 3@p@L.                    ",
"                  + q@r@s@$@t@(+N.=+u@; i 4.v@M.^ n ] { w@%@x@z.y@}.z@u..  .A@B@/.2.M }.3 x C@s@@+T #.; F B@D@E@$                     ",
"                  $+%@i@Q.A+x.u F@G@H@M.^ n n { { { { { n U.m } z./.r.I@x@. J@u@G@a u Y K@3 L@M@r ~.[.u a g.X.$                       ",
"                  : N@9 B@g.z.O@^ n { { { { { { { { { { { = Q+] } c@/.^.P@1 . 7 `.Q@R@Y [.~.S@T@++~.O u 3.G@U@$                       ",
"                    @ @@; ] [ { { { { { { { { { { { { { { * ! { n n M.a =+;+V@% C@g.f.< M @.3+1.)@J.O < a 4.y                         ",
"                      % m { { { { { { { { { { { { { { { { & < { { { ] `.h W@X@. % Y@/.h Z@0.A+n+1+:+[.9.`@ #.                         ",
"                        : .@{ { { { { { { { { { { { { { .+@@{ { { { { ^ b@2.F.= . & .#y.D.K.'++#) J.[.; i  .%                         ",
"                          |+R { { { { { { { { { { { { { y+Z.{ { { { { ] } g.E @###. $#9 u x.&.%#&#J.M *#=#@                           ",
"                          H -#/+{ { { { { { { { { { { { = Q+{ { { { { { ] } 4.U /+;#. >#,#Y [.'#N #.E u )#.                           ",
"                            . y x { { { { { { { { { { { * ! { { { { { { { [ ^ y@A+! 1 % M+< O @.D F.!#7..                             ",
"                              @ C+< { { { { { { { { { { & < { { { { { { { ] n M.3.~#{#]#% ^#; M /#*@< (#.                             ",
"                                . m { { { { { { { { { .+@@{ { { { { { { { { { ] _#1@:#1+@ $ <#; [#}#|# .1#                            ",
"                                  : .@{ { { { { { { { y+Z.{ { { { { { { { { { { n 2#E 3#4#@ . 5#5#6#j |+                              ",
"                                    |+R { { { { { { { .@.@{ { { { { { { { { { { n } a@0.9@7#+ D 8#/.9#.                               ",
"                                      -#/+{ { { { { { * ! { { { { { { { { { { { { } 0#a#r.b#c#. >#d#%                                 ",
"                                      e#y x { { { { { & < { { { { { { { { { { { n n ] H@`@3 f#g#. . +                                 ",
"                                        @ y < { { { u & { { { { { { { { { { { { { { h#} i#j#k#l#%                                     ",
"                                          . Z.{ { { ! * { { { { { { { { { { { { { u - m#* n#: .                                       ",
"                                            . .@{ { .@.@{ { { { { { { { { x 6.B+C+@ . . $                                             ",
"                                              + Q+{ o#! { { { { { /+Q+m y @ . p#%                                                     ",
"                                                . ! { { < ! Q+* & |+. :                                                               ",
"                                                : & B+C+@ . @ @                                                                       ",
"                                                  c : $                                                                               ",
"                                                                                                                                      ",
"                                                                                                                                      ",
"                                                                                                                                      ",
"                                                                                                                                      ",
"                                                                                                                                      ",
"                                                                                                                                      ",
"                                                                                                                                      ",
"                                                                                                                                      ",
"                                                                                                                                      "};
