/* XPM */
static char * sprite7_xpm[] = {
"60 63 467 2",
"  	c None",
". 	c #64F3FF",
"+ 	c #9EF8FF",
"@ 	c #B2FAFF",
"# 	c #6AF5FF",
"$ 	c #86F7FF",
"% 	c #9BF7FE",
"& 	c #ADF8FE",
"* 	c #B8FAFF",
"= 	c #D1FCFF",
"- 	c #E1FCFE",
"; 	c #D9FCFE",
"> 	c #C2FBFF",
", 	c #C6FBFF",
"' 	c #A0F9FF",
") 	c #1AF0FF",
"! 	c #44F1FF",
"~ 	c #6EF3FF",
"{ 	c #79F6FD",
"] 	c #91F7FE",
"^ 	c #A5F8FF",
"/ 	c #B5F9FE",
"( 	c #C3FAFD",
"_ 	c #D1FBFE",
": 	c #BBFAFE",
"< 	c #AFF9FE",
"[ 	c #8CF7FE",
"} 	c #81F6FE",
"| 	c #5EF4FF",
"1 	c #52F3FF",
"2 	c #2FF1FF",
"3 	c #4DF2FE",
"4 	c #BFF6FA",
"5 	c #16F0FF",
"6 	c #B2F9FE",
"7 	c #1CEFFF",
"8 	c #1EEFFF",
"9 	c #70F4FD",
"0 	c #92F5FC",
"a 	c #A3F6FD",
"b 	c #A8F6FD",
"c 	c #B7F7FD",
"d 	c #A6F7FE",
"e 	c #94F6FE",
"f 	c #81F5FE",
"g 	c #6EF4FE",
"h 	c #58F3FE",
"i 	c #4EF2FE",
"j 	c #2CF0FE",
"k 	c #16EFFF",
"l 	c #5DF2FD",
"m 	c #DBF7F9",
"n 	c #6BF2FC",
"o 	c #2EF1FF",
"p 	c #C6FBFE",
"q 	c #20EFFF",
"r 	c #16EEFF",
"s 	c #22F0FF",
"t 	c #A1F6FD",
"u 	c #7DF4FD",
"v 	c #82F4FC",
"w 	c #29F0FE",
"x 	c #17EFFF",
"y 	c #87F4FB",
"z 	c #DDF7F9",
"A 	c #41F0FE",
"B 	c #74F5FE",
"C 	c #93F8FE",
"D 	c #1FF1FF",
"E 	c #23EFFF",
"F 	c #48F0FB",
"G 	c #90F5FD",
"H 	c #32F0FE",
"I 	c #DCF7F9",
"J 	c #15EFFF",
"K 	c #17EEFF",
"L 	c #95F5FB",
"M 	c #CEF7F9",
"N 	c #32F1FE",
"O 	c #46F2FF",
"P 	c #19EFFF",
"Q 	c #18EFFF",
"R 	c #23F0FF",
"S 	c #25F1FF",
"T 	c #7EF4FD",
"U 	c #50F2FD",
"V 	c #79F3FB",
"W 	c #C0F6FA",
"X 	c #15F0FF",
"Y 	c #24F0FE",
"Z 	c #B1F5FB",
"` 	c #42F1FE",
" .	c #B2F8FE",
"..	c #29F1FF",
"+.	c #5EF2FD",
"@.	c #88F3FC",
"#.	c #24F1FF",
"$.	c #8DF4FC",
"%.	c #26F0FE",
"&.	c #7AF3FC",
"*.	c #33F0FE",
"=.	c #87F4FC",
"-.	c #7FF5FE",
";.	c #64F4FE",
">.	c #26F0FF",
",.	c #B2F5FA",
"'.	c #2AF1FF",
").	c #28F0FF",
"!.	c #53F0FD",
"~.	c #71F3FC",
"{.	c #EAF7F9",
"].	c #41F1FE",
"^.	c #17F0FF",
"/.	c #79F3FC",
"(.	c #A6F7FD",
"_.	c #43F2FF",
":.	c #19F0FF",
"<.	c #18F0FF",
"[.	c #2EF2FF",
"}.	c #6FF1FB",
"|.	c #78F3FB",
"1.	c #76F3FC",
"2.	c #E6F7F9",
"3.	c #4EF1FD",
"4.	c #47F2FE",
"5.	c #95F7FE",
"6.	c #31F1FF",
"7.	c #18EEFF",
"8.	c #F8F8F8",
"9.	c #2DF0FF",
"0.	c #83F3FB",
"a.	c #95F4FC",
"b.	c #81F4FB",
"c.	c #D6F7F9",
"d.	c #80F5FD",
"e.	c #65F4FE",
"f.	c #25F0FF",
"g.	c #1BF0FF",
"h.	c #34F1FF",
"i.	c #52F0FC",
"j.	c #57F0FC",
"k.	c #4FF2FD",
"l.	c #23F0FE",
"m.	c #98F4FC",
"n.	c #C3F6F9",
"o.	c #ACF7FC",
"p.	c #1DF0FF",
"q.	c #38F2FF",
"r.	c #69F2FC",
"s.	c #35F0FE",
"t.	c #5CF3FD",
"u.	c #3DF1FE",
"v.	c #BBF6FA",
"w.	c #8BF4FC",
"x.	c #4BF1FE",
"y.	c #7FF5FD",
"z.	c #36F1FF",
"A.	c #96F4FB",
"B.	c #1EF0FF",
"C.	c #3EF2FF",
"D.	c #27F0FF",
"E.	c #66F1FB",
"F.	c #14EFFF",
"G.	c #A1F4FB",
"H.	c #EDF8F8",
"I.	c #7BF3FC",
"J.	c #7FF4FD",
"K.	c #5AF3FE",
"L.	c #6BF3FD",
"M.	c #A4F5FB",
"N.	c #40F3FF",
"O.	c #24EFFF",
"P.	c #4AF1FB",
"Q.	c #4AEFFC",
"R.	c #62F3FC",
"S.	c #C8F6FA",
"T.	c #27EFFE",
"U.	c #8FF5FC",
"V.	c #45F2FF",
"W.	c #B1F5FA",
"X.	c #45F3FF",
"Y.	c #22F1FF",
"Z.	c #5CEFF9",
"`.	c #2AF0FE",
" +	c #7FF3FC",
".+	c #CAF6FA",
"++	c #3CF1FE",
"@+	c #4EF2FD",
"#+	c #54F1FD",
"$+	c #78F3FD",
"%+	c #3BF2FF",
"&+	c #2AF0FF",
"*+	c #33EEFC",
"=+	c #51EFFA",
"-+	c #8EF4FB",
";+	c #C1F6F9",
">+	c #30F0FE",
",+	c #7CF3FC",
"'+	c #59F3FE",
")+	c #24EFFE",
"!+	c #32F1FF",
"~+	c #4AF2FF",
"{+	c #45EDFA",
"]+	c #31EFFC",
"^+	c #AAF5FB",
"/+	c #24F0FF",
"(+	c #31F0FE",
"_+	c #7EF3FC",
":+	c #4EF2FF",
"<+	c #40F1FE",
"[+	c #33F1FF",
"}+	c #4DF2FF",
"|+	c #49EEFA",
"1+	c #1DEFFE",
"2+	c #DAF6F9",
"3+	c #84F3FC",
"4+	c #4FF1FD",
"5+	c #55F1FC",
"6+	c #60F2FD",
"7+	c #42F2FF",
"8+	c #B2F6FA",
"9+	c #6CF3FD",
"0+	c #39F1FF",
"a+	c #4BF2FF",
"b+	c #2DEFFC",
"c+	c #3AEEFA",
"d+	c #E9F7F9",
"e+	c #78F3FC",
"f+	c #95F4FB",
"g+	c #96F4FC",
"h+	c #6AF1FB",
"i+	c #5AF2FE",
"j+	c #20F0FF",
"k+	c #41F2FF",
"l+	c #47F3FF",
"m+	c #34ECFA",
"n+	c #25EEFC",
"o+	c #15EEFF",
"p+	c #50F1FD",
"q+	c #4FF2FF",
"r+	c #6AF2FD",
"s+	c #56F3FF",
"t+	c #37ECF8",
"u+	c #1AEFFE",
"v+	c #4CF0FB",
"w+	c #6BF2FD",
"x+	c #EAF7F8",
"y+	c #87F3FB",
"z+	c #29F0FF",
"A+	c #58F4FF",
"B+	c #24EBFA",
"C+	c #27EDFA",
"D+	c #A3F4FB",
"E+	c #CDF7F9",
"F+	c #B0F5FA",
"G+	c #1FF0FE",
"H+	c #5FF0FA",
"I+	c #5EF3FE",
"J+	c #21EFFF",
"K+	c #25F0FE",
"L+	c #CEF7FA",
"M+	c #4CF3FF",
"N+	c #46F3FF",
"O+	c #28EBF8",
"P+	c #1DEEFD",
"Q+	c #3CF0FD",
"R+	c #57F0FB",
"S+	c #52F2FE",
"T+	c #4FF2FE",
"U+	c #A4F5FA",
"V+	c #5CF2FD",
"W+	c #1CF0FF",
"X+	c #6BF4FF",
"Y+	c #22EAF8",
"Z+	c #40EFFB",
"`+	c #40F0FE",
" @	c #3AF1FF",
".@	c #65F3FF",
"+@	c #1AECFB",
"@@	c #1AEAFA",
"#@	c #1EF0FE",
"$@	c #27EEFE",
"%@	c #46EFFB",
"&@	c #61F4FE",
"*@	c #7AF2FC",
"=@	c #63F5FE",
"-@	c #15E9F8",
";@	c #17EDFD",
">@	c #18EEFE",
",@	c #1BEEFE",
"'@	c #21EDFD",
")@	c #24EDFC",
"!@	c #25EDFC",
"~@	c #2AEDFC",
"{@	c #2FEDFB",
"]@	c #37EEFB",
"^@	c #3BEEFB",
"/@	c #47EFFC",
"(@	c #4AF0FC",
"_@	c #52F1FD",
":@	c #21F0FF",
"<@	c #7BF6FF",
"[@	c #15ECFD",
"}@	c #11E9F8",
"|@	c #16EEFE",
"1@	c #16EDFD",
"2@	c #18EDFD",
"3@	c #19ECFB",
"4@	c #1BECFA",
"5@	c #1EECFB",
"6@	c #1FEBFA",
"7@	c #36EEFB",
"8@	c #48EFFB",
"9@	c #53F1FD",
"0@	c #63F3FD",
"a@	c #71F4FD",
"b@	c #73F4FE",
"c@	c #69F3FE",
"d@	c #61F2FE",
"e@	c #46F2FE",
"f@	c #50F1FE",
"g@	c #66F3FD",
"h@	c #67F4FF",
"i@	c #41F1FF",
"j@	c #70F5FE",
"k@	c #0DE9F8",
"l@	c #0CE8F9",
"m@	c #0FEAFA",
"n@	c #10EAF9",
"o@	c #25ECFA",
"p@	c #37EDFB",
"q@	c #59F2FC",
"r@	c #69F3FD",
"s@	c #77F4FD",
"t@	c #84F5FD",
"u@	c #92F7FE",
"v@	c #75F5FE",
"w@	c #5EF4FE",
"x@	c #3FF1FF",
"y@	c #38F1FF",
"z@	c #1DEFFF",
"A@	c #5DF3FE",
"B@	c #6CF4FE",
"C@	c #40F1FD",
"D@	c #CEF6FA",
"E@	c #78F6FE",
"F@	c #91F6FD",
"G@	c #99F7FD",
"H@	c #ABF8FE",
"I@	c #6EF4FF",
"J@	c #49F2FF",
"K@	c #62F3FE",
"L@	c #68F4FE",
"M@	c #8CF8FF",
"N@	c #A7F8FE",
"O@	c #6BF4FE",
"P@	c #75F4FE",
"Q@	c #70F4FF",
"R@	c #68F4FF",
"S@	c #6FF4FE",
"T@	c #78F5FE",
"U@	c #8EF7FE",
"V@	c #B3FAFF",
"W@	c #6AF4FE",
"X@	c #7BF5FE",
"Y@	c #5CF3FF",
"Z@	c #A3F5FB",
"`@	c #3AF2FE",
" #	c #8FF6FE",
".#	c #B7FAFF",
"+#	c #2BF0FE",
"@#	c #7DF5FD",
"##	c #7BF6FE",
"$#	c #4EF3FE",
"%#	c #87F3FC",
"&#	c #88F4FC",
"*#	c #72F6FF",
"=#	c #69F4FF",
"-#	c #BCFAFF",
";#	c #58F3FF",
">#	c #80F5FE",
",#	c #7EF6FE",
"'#	c #50F3FE",
")#	c #A5F8FE",
"!#	c #BFFBFE",
"~#	c #5AF4FF",
"{#	c #3CF1FF",
"]#	c #8AF6FE",
"^#	c #7FF6FE",
"/#	c #53F3FE",
"(#	c #41F1FD",
"_#	c #97F8FE",
":#	c #C3FBFF",
"<#	c #5BF4FF",
"[#	c #44F2FF",
"}#	c #84F6FE",
"|#	c #91F8FE",
"1#	c #6BF5FF",
"2#	c #59F1FF",
"3#	c #CCFBFF",
"4#	c #89F7FE",
"5#	c #2CF0FF",
"6#	c #5AF5FF",
"7#	c #C4FAFE",
"8#	c #95F8FE",
"9#	c #8BF6FE",
"0#	c #2EF0FF",
"a#	c #A1F9FF",
"b#	c #C8FAFE",
"c#	c #3CF2FF",
"d#	c #5AF3FF",
"e#	c #98F7FE",
"f#	c #86F6FE",
"g#	c #30F0FF",
"h#	c #ACF9FE",
"i#	c #6BF6FF",
"j#	c #71F6FF",
"k#	c #D2FCFF",
"l#	c #99F7FE",
"m#	c #8FF9FF",
"n#	c #CAFBFF",
"o#	c #30F1FF",
"p#	c #71F5FE",
"q#	c #99F8FE",
"r#	c #91F7FF",
"s#	c #CEFCFF",
"t#	c #A2F8FE",
"u#	c #B0F9FE",
"v#	c #92F7FF",
"w#	c #34F1FE",
"x#	c #AEF9FE",
"y#	c #AEF9FF",
"z#	c #D5FCFF",
"A#	c #2DF1FF",
"B#	c #4FF3FF",
"C#	c #64F4FF",
"D#	c #83F6FE",
"E#	c #AAF9FE",
"F#	c #BCFAFE",
"G#	c #AEF8FE",
"H#	c #91F8FF",
"I#	c #B2F9FF",
"J#	c #D9FCFF",
"K#	c #3DF2FF",
"L#	c #62F4FF",
"M#	c #7AF6FF",
"N#	c #B3FAFE",
"O#	c #BEFBFE",
"P#	c #CCFCFE",
"Q#	c #C3FAFE",
"R#	c #ACF8FE",
"S#	c #9BF7FF",
"T#	c #7CF6FF",
"U#	c #71F3FD",
"V#	c #B5F9FF",
"W#	c #DCFCFF",
"X#	c #A0F8FF",
"Y#	c #DFFDFF",
"Z#	c #E2FDFF",
"`#	c #D3FCFF",
" $	c #ADF8FF",
".$	c #8CF7FF",
"+$	c #5CF4FF",
"@$	c #C3FCFF",
"#$	c #B7FBFF",
"$$	c #9AF9FF",
"%$	c #66F5FF",
"                                                                                                                        ",
"                                                                                                                        ",
"                                                                                                                        ",
"                                                                                                                        ",
"                                                                                                                        ",
"                                                                                                                        ",
"                                                                                                                        ",
"                                                                                                                        ",
"                                                                      . + @                                             ",
"                                                      # $ % & * = - ; > , ' )                                           ",
"                                    ! ~ { ] ^ / ( _ : < [ } | 1 2 3 4 5 6 | 7 8                                         ",
"                          9 0 a b c d e f g h i j k k k k k k k l m n o p q r 7 s                                       ",
"                          t u v w x x x k k k x k x x k k k k y z A x B C 8 k k D E                                     ",
"                        F G H I H k k k k k J k k K r k k x L M N k r / O P k k Q R S                                   ",
"                        T U k V W k x r k 5 X k k r k 5 Y W Z Y x k `  ...k k +.@.x #.S                                 ",
"                        $.%.k k W &.k k k k 5 k r x k *.I =.5 X k r -.;.>.k Q l ,.x x '.).                              ",
"                      !.~.x k r H {.].5 J x x x ^.k i {./.5 k k k k (._.:.k r H I k k <.[...                            ",
"                      }.` 5 k K x |.M k x k k 5 X 1.2.3.5 5 k k x 4.5.6.k k 7.K 8.x k k ) 6.9.                          ",
"                      0.Y 5 k k k 5 ,.a.k k J X b.c.H 5 k k k k 5 d.e.f.r k Q k I H k k x g.h.9.                        ",
"                    i.j.x k k J J 5 R {.k.k l.m.n.Y ^.k k k x ^.w o._.p.Q k k 5 ,.l k r x 5 g.q.o                       ",
"                    r.s.x k k k k J k t.I u.v.w.k k 5 k x k k x x.y.z.5 k k k 5 A./.x k x k k B.C.D.                    ",
"                    E.k x k 5 F.x r J 5 G.H.I.X J 5 ^.5 k x k K J.K.).k x k k k L.M.k k k k k k B.N.O.                  ",
"                  P.Q.k k k x k k 5 k R.S.I k.k x k 5 5 k k x T.U.V.x J k k k k l W.k 5 5 k x k k ).X.Y.                ",
"                  Z.`.5 k x x k ^.5  +.+++@+I Y x x 5 5 k r x #+$+%+k 5 k J k k H I k k 5 5 k r k k &+O                 ",
"                *+=+5 k k k k k X -+;+>+5 k A.a.5 k k k 7.k 7.,+'+D.x k x k 5 k k {.)+k k k k r k x k !+~+              ",
"                {+]+k k k x k )+v.^+l.k k J /+I @+5 k k x ^.(+_+:+k r k x 5 5 k k I <+k k k 5 k k k k k [+}+            ",
"                |+1+k k k k *.2+3+5 X k k k X 4+I Y x x Q ^.5+6+7+k k k k k k k k 8+9+k k k k k k k Y i 5 0+a+          ",
"              b+c+5 k k k A d+e+k k J r k k 5 x f+g+k x k k h+i+j+5 k k k k k k k f+/.k k k k N /.W {.,.k k+l+          ",
"              m+n+k k k /.{.@+k k k o+F.x k k x O.I p+K k (+E.q+x 5 k k 5 k x k k r+M.k i f+I {.f+4+Y k k s+            ",
"              t+u+k k y I N 5 ^.k k 5 ^.F.k k k x k.I )+k v++.h.k k x k k k k k Y w+x+{.W y+3.k 5 k k k z+A+            ",
"            B+C+5 Y D+E+Y k k k k k x k J k k k x Q f+F+G+H+I+J+r x x k k K+/.W I L+8.Y k k k J k J k k M+N+            ",
"            O+P+k f+f+k k k k x k x k K x k ^.k Q x Q G.Q+R+S+k Q K T+=.4 {.U+V+Y k {.K+k k k k k k k W+X+              ",
"            Y+k k k 5 k k k x k k x k x K k k k <.^.k Q Z+l z.H f+{.I L 3.x 5 5 k k L+`+k k k k k k k  @.@              ",
"          +@@@k k ^.^.x 5 k 5 J k Q K Q Q r k k u+#@)+$@%@&@Q f.*@*.k k k k k k k k M.L.k k k k 5 5 k =@~+              ",
"          -@;@k r k X k k k x k >@,@P+'@)@!@~@{@]@^@/@(@_@&@:@Q x x x x k k k k k k =.=.k J k J k 5 /+<@                ",
"        [@}@k |@|@1@1@2@3@4@5@6@{@7@8@9@+.0@a@b@c@d@3 e@f@g@h@s x x k k k k 5 k k k w+M.k k k k k k i@j@                ",
"        k@l@m@n@o@p@F q@r@s@t@u@-.v@w@i x@y@R k k x x Q z@A@B@B@/+k 5 k k k k k k k C@D@k k k k 5 k E@M+                ",
"        r.F@G@H@5.f I@K.J@y@>.k x k k k k k k k k k Q k k 7 K@j@L@B.J k k k k k J k /+x+k 5 k k k o M@                  ",
"          N@E@k k k k k k k k k k k k k k k k k k k Q k k k /+O@P@B@B.k 5 k 5 k k k k {.Y k k k k L@Q@                  ",
"            < R@k k k k k k k k k k k k k k k k k k x k k k x /+S@T@K.k k 5 5 k k r 5 L+<+r k x k U@                    ",
"              V@W@k k k k k k k k k k k k k k k k k k k k k k k R b@X@Y@r r 5 k x r k Z@L.k k k `@ #                    ",
"                .#B@k k k k k k k k k k k k k k k k k k k k k k k +#@###$#r Q ^.x r r %#&#k 5 5 *#=#                    ",
"                  -#;#k k k k k k k k k k k k k k k k k k k k k k k +#>#,#'#k 5 k k k r+M.k k j+)#                      ",
"                    !#~#k k k k k k k k k k k k k k k k k k k k k k k {#]#^#/#x k J k (#D@k 5 1 _#                      ",
"                      :#<#k k k k k k k k k k k k k k k k k k k k k k k [#U@}#[#^.X k x <+k k |#1#                      ",
"                      2#3#V.k k k k k k k k k k k k k k k k k k k k k k k s+] 4#O k 5 ^.^.5 5#/                         ",
"                        6#7# @k k k k k k k k k k k k k k k k k k k k k k x ;#8#9#0#k k k k '+a#                        ",
"                          <#b#c#k k k k k k k k k k k k k k k k k k k k k k k d#e#f#g#k k k h#i#                        ",
"                            j#k#c#k k k k k k k k k k k k k k k k k k k k k k k e.l#f#>.k y@p                           ",
"                              m#n#o#k k k k k k k k k k k k k k k k k k k k x k k p#q#f#).f#_#                          ",
"                                r#s#o#k k k k k k k k k k k k k k k k k k k k k x k f#t#e#u#                            ",
"                                  v#= 6.k k k k k k k k k k k k k k k k k k k k k k w#N@x#&                             ",
"                                    y#z#!+k k k k k k k k k k k k k :@A#B#C#D#[ E#F#G#+ H#                              ",
"                                      I#J#!+k k k k k R K#L#M#v#N#O#P#Q#R#S#T#U#                                        ",
"                                        V#W## $ X#, Y#Z#`#*  $.$+$                                                      ",
"                                          @$= #$$$%$                                                                    ",
"                                                                                                                        ",
"                                                                                                                        ",
"                                                                                                                        ",
"                                                                                                                        ",
"                                                                                                                        ",
"                                                                                                                        ",
"                                                                                                                        "};
