/* XPM */
static char * sprite2_xpm[] = {
"60 63 177 2",
"  	c None",
". 	c #17F0FF",
"+ 	c #16EEFF",
"@ 	c #15F0FF",
"# 	c #16EFFF",
"$ 	c #16F0FF",
"% 	c #17E2F1",
"& 	c #18C8D5",
"* 	c #19A1AB",
"= 	c #1A878F",
"- 	c #1B6D72",
"; 	c #17D5E3",
"> 	c #15EFFF",
", 	c #15EDFF",
"' 	c #15EEFF",
") 	c #1D4548",
"! 	c #1D2B2C",
"~ 	c #1E1E1E",
"{ 	c #1D383A",
"] 	c #19AEB9",
"^ 	c #1B7981",
"/ 	c #16EDFF",
"( 	c #18BBC7",
"_ 	c #17CBD9",
": 	c #1C4F53",
"< 	c #1A7980",
"[ 	c #1A949D",
"} 	c #19C9D5",
"| 	c #1E2324",
"1 	c #1D2A2C",
"2 	c #1A929B",
"3 	c #17EFFF",
"4 	c #1C6D73",
"5 	c #1F1F1F",
"6 	c #1E2C2D",
"7 	c #1A929A",
"8 	c #1E2020",
"9 	c #1E2425",
"0 	c #1D2B2D",
"a 	c #1C5256",
"b 	c #1E1F1F",
"c 	c #1E2424",
"d 	c #1E2D2E",
"e 	c #1A9EA8",
"f 	c #1B6C73",
"g 	c #1B6C72",
"h 	c #1F2020",
"i 	c #1E2D2F",
"j 	c #19AAB4",
"k 	c #1D2D2F",
"l 	c #18C1CD",
"m 	c #16E1F1",
"n 	c #17EEFF",
"o 	c #1D3A3D",
"p 	c #18CDDA",
"q 	c #1A868E",
"r 	c #1E2021",
"s 	c #1F2626",
"t 	c #1D3B3D",
"u 	c #17D8E6",
"v 	c #1E2626",
"w 	c #1D484B",
"x 	c #18D8E6",
"y 	c #1E2121",
"z 	c #1E2727",
"A 	c #1D494C",
"B 	c #19A1AA",
"C 	c #1F2122",
"D 	c #17C8D5",
"E 	c #1E2122",
"F 	c #1E2728",
"G 	c #1C5559",
"H 	c #17E4F3",
"I 	c #1B6064",
"J 	c #1E2829",
"K 	c #1D565B",
"L 	c #17E3F3",
"M 	c #19949D",
"N 	c #17D9E6",
"O 	c #18CCDA",
"P 	c #1F2121",
"Q 	c #1E2A2B",
"R 	c #1A7B83",
"S 	c #17D9E7",
"T 	c #19ABB5",
"U 	c #199EA8",
"V 	c #1B7C82",
"W 	c #1C6E74",
"X 	c #1C4A4D",
"Y 	c #1D3D3F",
"Z 	c #1C5C61",
"` 	c #1E2627",
" .	c #1D3335",
"..	c #1A939C",
"+.	c #1B7B82",
"@.	c #1B6E74",
"#.	c #1D4B4D",
"$.	c #1D3031",
"%.	c #1D2E30",
"&.	c #1E2526",
"*.	c #1E2223",
"=.	c #19A2AB",
"-.	c #1D2627",
";.	c #1D3738",
">.	c #1B8992",
",.	c #14EFFF",
"'.	c #17D7E5",
").	c #1B777E",
"!.	c #1B6066",
"~.	c #1C494C",
"{.	c #1D3032",
"].	c #1E2E2F",
"^.	c #1E2222",
"/.	c #18D5E3",
"(.	c #1D3F42",
"_.	c #18C7D4",
":.	c #1B7B83",
"<.	c #19A4AF",
"[.	c #1C6065",
"}.	c #1E3234",
"|.	c #1C5E63",
"1.	c #1D383B",
"2.	c #1F1E1E",
"3.	c #1D393C",
"4.	c #1A8C95",
"5.	c #1E2B2C",
"6.	c #1A878E",
"7.	c #1E1E1F",
"8.	c #1D2C2D",
"9.	c #1C4346",
"0.	c #18D3E0",
"a.	c #1C5F64",
"b.	c #1B7980",
"c.	c #1D2324",
"d.	c #1D3B3E",
"e.	c #19B3BF",
"f.	c #1A868F",
"g.	c #17E1EF",
"h.	c #1D2D2E",
"i.	c #1C4548",
"j.	c #17DCEB",
"k.	c #17E1F1",
"l.	c #1E2525",
"m.	c #1D3436",
"n.	c #1B757C",
"o.	c #19949C",
"p.	c #1E2A2A",
"q.	c #1D3E40",
"r.	c #18B4C0",
"s.	c #1E3031",
"t.	c #1C484B",
"u.	c #16E5F5",
"v.	c #1D3639",
"w.	c #1A8992",
"x.	c #1D4043",
"y.	c #17C7D4",
"z.	c #1E2323",
"A.	c #1D3132",
"B.	c #1B5D61",
"C.	c #1D393B",
"D.	c #1A8B94",
"E.	c #1C4246",
"F.	c #18D2E0",
"G.	c #18B2BE",
"H.	c #1D2E2F",
"I.	c #1C4648",
"J.	c #17DCEA",
"K.	c #1B7A81",
"L.	c #1D3437",
"M.	c #1D3E41",
"N.	c #1B6F75",
"O.	c #1E2F30",
"P.	c #1C474A",
"Q.	c #1B5F64",
"R.	c #17E2F2",
"S.	c #1C565B",
"T.	c #17D9E8",
"                                                                                                                        ",
"                                                                                                                        ",
"                                                                                                                        ",
"                                                                                                                        ",
"                                                                                                                        ",
"                                                                                                                        ",
"                                                                                                                        ",
"                                                                    . + @ + #                                           ",
"                                                      $ + # $ # $ % & * = - ; >                                         ",
"                                        + , + + ' $ ; & * = - ) ! ~ ~ ~ ~ ~ { ; +                                       ",
"                                $ + # ; ] * ^ - ) ! ~ ~ ~ ~ ~ ~ ~ ~ ~ ~ ~ ~ ~ { ; #                                     ",
"                              # % ) ! ~ ~ ~ ~ ~ ~ ~ ~ ~ ~ ~ ~ ~ ~ ~ ~ ~ ~ ~ ~ ~ { ; '                                   ",
"                            > # / ( ~ ~ ~ ~ ~ ~ ~ ~ ~ ~ ~ ~ ~ ~ ~ ~ ~ ~ ~ ~ ~ ~ ~ { ; +                                 ",
"                          # _ # # # * ~ ~ ~ ~ ~ ~ ~ ~ ~ ~ ~ ~ ~ ~ ~ ~ ~ ~ ~ ~ ~ ~ ~ { ; #                               ",
"                          # : < # # $ [ ~ ~ ~ ~ ~ ~ ~ ~ ~ ~ ~ ~ ~ ~ ~ ~ ~ ~ ~ ~ ~ ~ ~ ) % $                             ",
"                        # } | 1 2 3 @ ' = ~ ~ ~ ~ ~ ~ ~ ~ ~ ~ ~ ~ ~ ~ ~ ~ ~ ~ ~ ~ ~ ~ ~ ) % +                           ",
"                        3 4 5 | 6 7 # + # = ~ ~ ~ ~ ~ ~ ~ ~ ~ ~ ~ ~ ~ ~ ~ ~ ~ ~ ~ ~ ~ ~ ~ ) % .                         ",
"                        > { ~ 8 9 0 2 # ' # = ~ ~ ~ ~ ~ ~ ~ ~ ~ ~ ~ ~ ~ ~ ~ ~ ~ ~ ~ ~ ~ ~ ~ a +                         ",
"                      , ( ~ ~ b 8 c d e # # # f ~ ~ ~ ~ ~ ~ ~ ~ ~ ~ ~ ~ ~ ~ ~ ~ ~ ~ ~ ~ ~ ~ ~ g >                       ",
"                      # f ~ ~ ~ ~ h c i j # # + f ~ ~ ~ ~ ~ ~ ~ ~ ~ ~ ~ ~ ~ ~ ~ ~ ~ ~ ~ ~ ~ ~ ~ g >                     ",
"                      % ! ~ ~ ~ ~ 5 8 9 k l $ ' m ) ~ ~ ~ ~ ~ ~ ~ ~ ~ ~ ~ ~ ~ ~ ~ ~ ~ ~ ~ ~ ~ ~ ~ g #                   ",
"                    n * ~ ~ ~ ~ ~ ~ 5 8 9 o p > @ m ) ~ ~ ~ ~ ~ ~ ~ ~ ~ ~ ~ ~ ~ ~ ~ ~ ~ ~ ~ ~ ~ ~ ~ q >                 ",
"                    $ a ~ ~ ~ ~ ~ ~ ~ b r s t u # $ ; { ~ ~ ~ ~ ~ ~ ~ ~ ~ ~ ~ ~ ~ ~ ~ ~ ~ ~ ~ ~ ~ ~ ~ q #               ",
"                    ; ~ ~ ~ ~ ~ ~ ~ ~ ~ b r v w x + $ ; { ~ ~ ~ ~ ~ ~ ~ ~ ~ ~ ~ ~ ~ ~ ~ ~ ~ ~ ~ ~ ~ ~ ~ q $             ",
"                  + * ~ ~ ~ ~ ~ ~ ~ ~ ~ ~ 5 y z A u $ + ; { ~ ~ ~ ~ ~ ~ ~ ~ ~ ~ ~ ~ ~ ~ ~ ~ ~ ~ ~ ~ ~ ~ ~ B .           ",
"                  > ) ~ ~ ~ ~ ~ ~ ~ ~ ~ ~ 5 ~ C z A u # # D ! ~ ~ ~ ~ ~ ~ ~ ~ ~ ~ ~ ~ ~ ~ { a - = * ( ; # # #           ",
"                > & ~ ~ ~ ~ ~ ~ ~ ~ ~ ~ ~ ~ ~ b E F G H > ' D ! ~ ~ ~ ~ ~ { I - = * D ; # # # $ # + ' $ 3 $             ",
"                . f ~ ~ ~ ~ ~ ~ ~ ~ ~ ~ ~ ~ ~ ~ b E J K L # 3 ] M * D ; > # > # # + > $ # 3 + > # > # > N O +           ",
"                > { ~ ~ ~ ~ ~ ~ ~ ~ ~ ~ ~ ~ ~ ~ ~ 5 P Q R 3 $ > + > > + + $ n + # > # > S p T U V W X Y d Z $           ",
"              + ( ~ ~ ~ ~ ~ ~ ~ ~ ~ ~ ~ ~ ~ ~ ~ ~ ~ h `  .= # . > @ # # S p T ..+.@.#.$.%.6 Q J z &.| *.E =..           ",
"              # f ~ ~ ~ ~ ~ ~ ~ ~ ~ ~ ~ ~ ~ ~ ~ ~ ~ 8 -.;.>.,.'.).!.~.{.].6 Q J ` &.| *.^.y h b b ~ ~ ~ ~ /.            ",
"              % ! ~ ~ ~ ~ ~ ~ ~ ~ ~ ~ ~ ~ ~ ~ ~ ~ b y 1 (._.# :.<.c | ^.y 8 8 b b b ~ ~ ~ ~ ~ ~ ~ [ M ~ [.+             ",
"            . * ~ ~ ~ ~ ~ ~ ~ ~ ~ ~ ~ ~ ~ ~ ~ ~ ~ b *.}.|.3 # 1.] [ ~ 2.~ ~ ~ ~ ~ ~ ~ ~ ~ ~ ~ ! D B ! ~ * $             ",
"            $ a ~ ~ ~ ~ ~ ~ ~ ~ ~ ~ ~ ~ ~ ~ ~ ~ ~ 8 F 3.4.# ] ~ 5.; a ~ ~ ~ ~ ~ ~ ~ ~ ~ ~ ~ { ; 6.~ ~ { #               ",
"            ; ~ ~ ~ ~ ~ ~ ~ ~ ~ ~ ~ ~ ~ ~ ~ ~ ~ 7.r 8.9.0.# a.~ ~ a ; ! ~ ~ ~ ~ ~ ~ ~ ~ ~ a % b.~ ~ ~ - #               ",
"          . * ~ ~ ~ ~ ~ ~ ~ ~ ~ ~ ~ ~ ~ ~ ~ ~ ~ b c. .!.# ; ~ ~ ~ ~ [ [ ~ ~ ~ ~ ~ ~ ~ ~ ^ % ) ~ ~ ~ ~ ( n               ",
"          $ ) ~ ~ ~ ~ ~ ~ ~ ~ ~ ~ ~ ~ ~ ~ ~ ~ 5 h J d.e.> * ~ ~ ~ ~ 5.; a ~ ~ ~ ~ ~ ~ f.; { ~ ~ ~ ~ { #                 ",
"          g.) ~ ~ ~ ~ ~ ~ ~ ~ ~ ~ ~ ~ ~ ~ ~ ~ 5 ^.h.i.j.# a ~ ~ ~ ~ ~ a ; ! ~ ~ ~ ! ] ( ! ~ ~ ~ ~ ~ ^ >                 ",
"            k.) ~ ~ ~ ~ ~ ~ ~ ~ ~ ~ ~ ~ ~ ~ ~ 5 l.m.n.# ; ~ ~ ~ ~ ~ ~ ~ [ [ ~ ~ { D o.~ ~ ~ ~ ~ ~ ~ ; '                 ",
"            > ; { ~ ~ ~ ~ ~ ~ ~ ~ ~ ~ ~ ~ ~ 5 8 p.q.r.# = ~ ~ ~ ~ ~ ~ ~ 5.; a ) ; 6.~ ~ ~ ~ ~ ~ ~ a $                   ",
"              . ; { ~ ~ ~ ~ ~ ~ ~ ~ ~ ~ ~ ~ 5 *.s.t.u.# { ~ ~ ~ ~ ~ ~ ~ ~ a ; ; g ~ ~ ~ ~ ~ ~ ~ ~ * #                   ",
"                # ; { ~ ~ ~ ~ ~ ~ ~ ~ ~ ~ ~ 8 v v.w.> ( ~ ~ ~ ~ ~ ~ ~ ~ ~ f.# * ~ ~ ~ ~ ~ ~ ~ ~ ~ ;                     ",
"                  $ ; ! ~ ~ ~ ~ ~ ~ ~ ~ ~ 5 8 1 x.y.# f ~ ~ ~ ~ ~ ~ ~ ~ [ D ) ; I ~ ~ ~ ~ ~ ~ ~ [.+                     ",
"                    @ D ! ~ ~ ~ ~ ~ ~ ~ ~ b z.A.B.# # { ~ ~ ~ ~ ~ ~ ! D B ! ~ a % ! ~ ~ ~ ~ ~ ~ * +                     ",
"                      $ ( ~ ~ ~ ~ ~ ~ ~ 5 h F C.D.# ] ~ ~ ~ ~ ~ ~ { ; 6.~ ~ ~ ~ [ ] ~ ~ ~ ~ ~ { #                       ",
"                        3 * ~ ~ ~ ~ ~ ~ b E 6 E.F.# a.~ ~ ~ ~ ~ a % b.~ ~ ~ ~ ~ ~ & f ~ ~ ~ ~ - >                       ",
"                          $ [ ~ ~ ~ ~ ~ b 9  .I # ; ~ ~ ~ ~ ~ ^ % a ~ ~ ~ ~ ~ ~ ~ ) % { ~ ~ ~ ( +                       ",
"                            + = ~ ~ ~ 5 h J d.G.> * ~ ~ ~ ~ f.; { ~ ~ ~ ~ ~ ~ ~ ~ ~ < ( ~ ~ { @                         ",
"                              # = ~ ~ b ^.H.I.J.# a ~ ~ ! ] ( ! ~ ~ ~ ~ ~ ~ ~ ~ ~ ~ ~ ( K.~ ^ $                         ",
"                                > = ~ 8 &.L.n.# ; ~ ~ { D o.~ ~ ~ ~ ~ ~ ~ ~ ~ ~ ~ ~ ~ { ; { ; .                         ",
"                                  ' f 8 p.M.r.# = ~ ) ; 6.~ ~ ~ ~ ~ ~ ~ ~ ~ ~ ~ ~ ~ ~ ~ a.- #                           ",
"                                    + N.O.P.u.# { f ; Q.~ ~ ~ ~ ~ ~ ~ ~ ~ ~ ~ ~ ~ ~ { ) - ( $                           ",
"                                      R.S.q @ ( ~ ( ) ~ ~ ~ ~ ~ ~ ~ { a - = * ] ; # > + $ .                             ",
"                                      # L T.# f ~ ~ { I - = * ( ; # > + . + + +                                         ",
"                                          + # ; ; # ' $ # + $ +                                                         ",
"                                                                                                                        ",
"                                                                                                                        ",
"                                                                                                                        ",
"                                                                                                                        ",
"                                                                                                                        ",
"                                                                                                                        ",
"                                                                                                                        ",
"                                                                                                                        "};
