/* XPM */
static char * sprite5_xpm[] = {
"67 67 519 2",
"  	c None",
". 	c #16EEFF",
"+ 	c #16F0FF",
"@ 	c #16EFFF",
"# 	c #18D5E3",
"$ 	c #17E4F3",
"% 	c #15EFFF",
"& 	c #17E2F1",
"* 	c #1B878F",
"= 	c #1E2C2D",
"- 	c #18BBC7",
"; 	c #1C777E",
"> 	c #1A909A",
", 	c #15F0FF",
"' 	c #17C8D5",
") 	c #1B7A81",
"! 	c #1D2B2C",
"~ 	c #1E1F1F",
"{ 	c #1F2020",
"] 	c #1D5A5E",
"^ 	c #1E2F30",
"/ 	c #1A8B93",
"( 	c #14EFFF",
"_ 	c #1C5256",
": 	c #1E1E1E",
"< 	c #1F1F1F",
"[ 	c #1D4649",
"} 	c #18D2E1",
"| 	c #1D4447",
"1 	c #1D2E30",
"2 	c #1E2526",
"3 	c #1C646A",
"4 	c #17E2F2",
"5 	c #19A1AB",
"6 	c #1E1E1F",
"7 	c #1C7A82",
"8 	c #19B5C0",
"9 	c #1C4143",
"0 	c #1D2E2F",
"a 	c #1E2627",
"b 	c #1F2728",
"c 	c #1E4043",
"d 	c #18D6E4",
"e 	c #17F1FF",
"f 	c #1A868E",
"g 	c #19AEB9",
"h 	c #1A8C95",
"i 	c #1D3C3F",
"j 	c #1E2D2E",
"k 	c #1E282A",
"l 	c #1D292A",
"m 	c #18CAD7",
"n 	c #16F1FF",
"o 	c #1B7981",
"p 	c #1B6D73",
"q 	c #1E393B",
"r 	c #17D5E3",
"s 	c #1D3638",
"t 	c #1D2A2B",
"u 	c #1E292A",
"v 	c #1A98A1",
"w 	c #17EEFF",
"x 	c #1F1E1E",
"y 	c #16E6F5",
"z 	c #1C4A4E",
"A 	c #1D3637",
"B 	c #1D2C2D",
"C 	c #18BFCB",
"D 	c #1A828A",
"E 	c #1E2E30",
"F 	c #1D2B2D",
"G 	c #1E2A2A",
"H 	c #1A8C94",
"I 	c #16EDFF",
"J 	c #17EFFF",
"K 	c #19949D",
"L 	c #1D4548",
"M 	c #1C6065",
"N 	c #18C8D6",
"O 	c #1E3334",
"P 	c #1D2D2E",
"Q 	c #1C5E64",
"R 	c #18BCC8",
"S 	c #1D3032",
"T 	c #1D282A",
"U 	c #1C666B",
"V 	c #18E3F2",
"W 	c #1A949D",
"X 	c #1998A1",
"Y 	c #1D3F42",
"Z 	c #1D3031",
"` 	c #1E2C2E",
" .	c #1E2E2F",
"..	c #1D3132",
"+.	c #1C3B3E",
"@.	c #1E2B2C",
"#.	c #1D2828",
"$.	c #1D3E41",
"%.	c #17D5E4",
"&.	c #17EDFF",
"*.	c #1C5F64",
"=.	c #18C8D5",
"-.	c #1B777E",
";.	c #1E3A3D",
">.	c #1E2E2E",
",.	c #1D2C2C",
"'.	c #1D3233",
").	c #199DA7",
"!.	c #1A8D96",
"~.	c #1D3234",
"{.	c #1E3031",
"].	c #1D2C2E",
"^.	c #1E3D40",
"/.	c #18C9D6",
"(.	c #1D3537",
"_.	c #1E3233",
":.	c #1B6166",
"<.	c #17D6E5",
"[.	c #1D3435",
"}.	c #1F3234",
"|.	c #1E2829",
"1.	c #1E2424",
"2.	c #1B969F",
"3.	c #18EFFF",
"4.	c #1E3232",
"5.	c #1F2A2A",
"6.	c #1F2F30",
"7.	c #1D3436",
"8.	c #18CBD8",
"9.	c #1C5F65",
"0.	c #1E3436",
"a.	c #1E3133",
"b.	c #1E2728",
"c.	c #1A8992",
"d.	c #1A878F",
"e.	c #19AAB5",
"f.	c #1F2929",
"g.	c #1E3234",
"h.	c #1E3637",
"i.	c #1B939C",
"j.	c #199CA6",
"k.	c #1E3739",
"l.	c #1D3536",
"m.	c #1F3335",
"n.	c #1D2F30",
"o.	c #1E2D2F",
"p.	c #1F292A",
"q.	c #1E2828",
"r.	c #1B7F86",
"s.	c #17E3F2",
"t.	c #1B8188",
"u.	c #1E2A2B",
"v.	c #1D3738",
"w.	c #1D4547",
"x.	c #1E3639",
"y.	c #1E3537",
"z.	c #1D4244",
"A.	c #1F1F20",
"B.	c #1D5F64",
"C.	c #1D3335",
"D.	c #1F292B",
"E.	c #1F2829",
"F.	c #1E2C2C",
"G.	c #1D373A",
"H.	c #1E3C3E",
"I.	c #17C1CE",
"J.	c #1C676C",
"K.	c #1D3E40",
"L.	c #1D3B3D",
"M.	c #1C383A",
"N.	c #1E3738",
"O.	c #1F3536",
"P.	c #1C4245",
"Q.	c #1D474A",
"R.	c #17D3E1",
"S.	c #1D3538",
"T.	c #1D3A3C",
"U.	c #1D3D40",
"V.	c #18BFCC",
"W.	c #1E4144",
"X.	c #1E3E41",
"Y.	c #1F393B",
"Z.	c #1D3739",
"`.	c #19B1BC",
" +	c #1E2020",
".+	c #18B5C0",
"++	c #1C4144",
"@+	c #202A2B",
"#+	c #1F2B2C",
"$+	c #1C3335",
"%+	c #1D383A",
"&+	c #1D3B3E",
"*+	c #1E4044",
"=+	c #1E4E51",
"-+	c #16E3F2",
";+	c #1C4C50",
">+	c #1D4346",
",+	c #1C4043",
"'+	c #1D3C3E",
")+	c #1D393B",
"!+	c #1E3336",
"~+	c #1C494C",
"{+	c #1B838A",
"]+	c #19A6B0",
"^+	c #19B1BD",
"/+	c #18AEB9",
"(+	c #1A8E96",
"_+	c #1C3C3F",
":+	c #1E3A3C",
"<+	c #1C4448",
"[+	c #1A9098",
"}+	c #1C474A",
"|+	c #1D4245",
"1+	c #1B5559",
"2+	c #18AAB5",
"3+	c #17E4F2",
"4+	c #17D8E6",
"5+	c #19A8B2",
"6+	c #1C767D",
"7+	c #1A8D95",
"8+	c #1F2121",
"9+	c #1B6E73",
"0+	c #1D383B",
"a+	c #1E3335",
"b+	c #1C3F41",
"c+	c #1C4346",
"d+	c #1B7278",
"e+	c #18C2CF",
"f+	c #1A929B",
"g+	c #18B0BB",
"h+	c #17E5F4",
"i+	c #17D9E8",
"j+	c #18ADB8",
"k+	c #1A7E86",
"l+	c #1C4D51",
"m+	c #1E2F31",
"n+	c #17B2BD",
"o+	c #1E3B3D",
"p+	c #1D4B4F",
"q+	c #1E383A",
"r+	c #1D3437",
"s+	c #1D3D3F",
"t+	c #1C565B",
"u+	c #1A8F97",
"v+	c #18AFBB",
"w+	c #18C6D3",
"x+	c #1C5A5F",
"y+	c #1C4244",
"z+	c #1C3D40",
"A+	c #1E3032",
"B+	c #17D6E4",
"C+	c #1E2021",
"D+	c #1F2323",
"E+	c #1D6267",
"F+	c #1E4547",
"G+	c #1F2E30",
"H+	c #1D4C4E",
"I+	c #1B7B82",
"J+	c #19ABB6",
"K+	c #17D9E7",
"L+	c #18AFBA",
"M+	c #1A858D",
"N+	c #1B5E63",
"O+	c #199CA5",
"P+	c #1A9BA5",
"Q+	c #1C464A",
"R+	c #1C4446",
"S+	c #1F383A",
"T+	c #1E3435",
"U+	c #1E2D2D",
"V+	c #1D4144",
"W+	c #1F2222",
"X+	c #1E565A",
"Y+	c #1AA8B2",
"Z+	c #1E3E40",
"`+	c #1B6D74",
" @	c #19A7B2",
".@	c #18D7E6",
"+@	c #1A888F",
"@@	c #1D5256",
"#@	c #1D4143",
"$@	c #1E4446",
"%@	c #1D4648",
"&@	c #1B5A5E",
"*@	c #16E5F4",
"=@	c #1D4446",
"-@	c #1D3A3B",
";@	c #1C3537",
">@	c #1F2A2B",
",@	c #1C8991",
"'@	c #18E1F2",
")@	c #1A9099",
"!@	c #1B828A",
"~@	c #1D484B",
"{@	c #203334",
"]@	c #203436",
"^@	c #1E3E3F",
"/@	c #1E3F42",
"(@	c #1D4044",
"_@	c #18C1CE",
":@	c #1B6C72",
"<@	c #1C3234",
"[@	c #1D2A2C",
"}@	c #19A3AE",
"|@	c #1C5357",
"1@	c #17DDEC",
"2@	c #1BA8B2",
"3@	c #1AAAB4",
"4@	c #199AA4",
"5@	c #1E3132",
"6@	c #1D3A3D",
"7@	c #1B8B94",
"8@	c #18B8C4",
"9@	c #1C393C",
"0@	c #1D2D2F",
"a@	c #1D2A2A",
"b@	c #1E2626",
"c@	c #18C9D7",
"d@	c #18EEFF",
"e@	c #1C4A4D",
"f@	c #1D5356",
"g@	c #1C8A92",
"h@	c #18E7F6",
"i@	c #17F0FF",
"j@	c #18CAD8",
"k@	c #1C4447",
"l@	c #1F2C2E",
"m@	c #1F2D2E",
"n@	c #1C3435",
"o@	c #1C3638",
"p@	c #1C3B3D",
"q@	c #16D9E7",
"r@	c #1C4548",
"s@	c #17E5F5",
"t@	c #1B6267",
"u@	c #1E383B",
"v@	c #198C94",
"w@	c #1D4A4C",
"x@	c #1B6B70",
"y@	c #17DEEC",
"z@	c #16D6E5",
"A@	c #1D2F31",
"B@	c #1E3536",
"C@	c #1D3639",
"D@	c #1D565A",
"E@	c #18F0FF",
"F@	c #1E1F20",
"G@	c #17C8D6",
"H@	c #1B949E",
"I@	c #1D5459",
"J@	c #203537",
"K@	c #1F4A4E",
"L@	c #1B666B",
"M@	c #1B656B",
"N@	c #1E3638",
"O@	c #19C1CD",
"P@	c #1D3133",
"Q@	c #1F3031",
"R@	c #1A8A92",
"S@	c #19BBC7",
"T@	c #1D2F2F",
"U@	c #1E2B2D",
"V@	c #18BECA",
"W@	c #1E3839",
"X@	c #1C4F53",
"Y@	c #202323",
"Z@	c #202425",
"`@	c #1F2828",
" #	c #1F2A2C",
".#	c #1D4042",
"+#	c #1D3334",
"@#	c #1D2829",
"##	c #18BEC9",
"$#	c #1C5356",
"%#	c #18E2F1",
"&#	c #16E5F5",
"*#	c #1AA2AC",
"=#	c #1C595D",
"-#	c #1C6167",
";#	c #18BDCA",
">#	c #1E494C",
",#	c #1AA1AB",
"'#	c #1B959E",
")#	c #1E2223",
"!#	c #1A9AA3",
"~#	c #1A919A",
"{#	c #1A969F",
"]#	c #1E4245",
"^#	c #1B7076",
"/#	c #19B2BE",
"(#	c #1F3032",
"_#	c #1D4345",
":#	c #1B8189",
"<#	c #19C8D6",
"[#	c #1F2727",
"}#	c #1B6065",
"|#	c #1C5C61",
"1#	c #18C7D5",
"2#	c #1B767D",
"3#	c #1D484A",
"4#	c #1B7E86",
"5#	c #1C6368",
"6#	c #18DCEB",
"7#	c #18D4E3",
"8#	c #1D3F41",
"9#	c #1B6268",
"0#	c #1C3133",
"a#	c #1B8288",
"b#	c #17E4F4",
"c#	c #1C5457",
"d#	c #1D3839",
"e#	c #1C6165",
"f#	c #1E5B5F",
"g#	c #1E2B2B",
"h#	c #1A8F98",
"i#	c #18B2BE",
"j#	c #17DAE7",
"k#	c #1C595E",
"l#	c #1E3C3D",
"m#	c #1A99A2",
"n#	c #1F3132",
"o#	c #1C575A",
"p#	c #18D7E5",
"q#	c #1E2525",
"r#	c #1B676C",
"s#	c #17CAD8",
"t#	c #18B3BE",
"u#	c #1A848B",
"v#	c #1C6166",
"w#	c #1C3739",
"x#	c #199AA3",
"y#	c #1D4A4E",
"z#	c #1AA5AF",
"A#	c #1A8E97",
"B#	c #1C6B71",
"C#	c #1A8991",
"D#	c #1E2425",
"E#	c #1C5154",
"F#	c #1B6A71",
"G#	c #18C0CD",
"H#	c #17CCDA",
"I#	c #19A9B3",
"J#	c #1A7E85",
"K#	c #1B7C83",
"L#	c #1D494D",
"M#	c #189AA3",
"N#	c #1C696F",
"O#	c #19BFCB",
"P#	c #1C767C",
"Q#	c #19B0BB",
"R#	c #1C585C",
"S#	c #19ACB6",
"T#	c #18CEDB",
"U#	c #18C4D1",
"V#	c #189FAA",
"W#	c #1A7D84",
"X#	c #1B8087",
"Y#	c #1D464A",
"Z#	c #1D494B",
"`#	c #1A747C",
" $	c #18DEEC",
".$	c #17D7E5",
"+$	c #1D393A",
"@$	c #1B6E74",
"#$	c #18BBC8",
"$$	c #18C5D2",
"%$	c #19A4AE",
"&$	c #1A777E",
"*$	c #1C5458",
"=$	c #1B686E",
"-$	c #18DDEC",
";$	c #1C5053",
">$	c #19EEFF",
",$	c #1D4D51",
"'$	c #18C1CD",
")$	c #1C7E84",
"!$	c #1A7077",
"~$	c #18B9C5",
"{$	c #18C2CE",
"]$	c #1A939C",
"^$	c #1C6469",
"/$	c #19C1CE",
"($	c #1B666C",
"_$	c #1C4042",
":$	c #1A939B",
"<$	c #18B4C0",
"[$	c #1A848C",
"}$	c #1C6267",
"|$	c #1E3F40",
"1$	c #19A2AC",
"2$	c #1E2929",
"3$	c #1D4145",
"4$	c #189BA5",
"5$	c #1F3233",
"6$	c #1C4C51",
"7$	c #18CFDE",
"8$	c #1A97A0",
"9$	c #1E5D61",
"0$	c #19BFCC",
"a$	c #19EDFF",
"b$	c #1C393B",
"c$	c #1E2F2F",
"d$	c #1C3738",
"e$	c #1A8087",
"f$	c #1D2526",
"g$	c #1D2929",
"h$	c #1B6369",
"i$	c #1A8B92",
"j$	c #1E2727",
"k$	c #1D4B4E",
"l$	c #19969F",
"m$	c #1C3536",
"n$	c #1A676D",
"o$	c #18BDC8",
"p$	c #15EEFF",
"q$	c #17D7E4",
"r$	c #1A8C93",
"s$	c #18E2F2",
"t$	c #17E2F0",
"                                                                                                                                      ",
"                                                                                                                                      ",
"                                                                                                                                      ",
"                                                                                                                                      ",
"                                                                                                                                      ",
"                                                                                                                                      ",
"                                                                                                                                      ",
"                                                                                                                                      ",
"                                                                      .                                                               ",
"                                                                  + @ # . $ %                                                         ",
"                                                            % @ & * = - @ ; > .                                                       ",
"                                                        , @ ' ) ! ~ { & @ ] ^ / @ (                                                   ",
"                                                    . . - _ : < : ~ [ @ } | 1 2 3 4 @                                                 ",
"                                                @ & 5 _ : : : < : 6 7 @ 8 9 0 a b c d e                                               ",
"                                          % @ & f ! : : : : : : : < g @ h i j k 2 l 9 m n                                             ",
"                                      . @ - o ! : : : : : : : : : ~ # @ p q j l r s t u v w                                           ",
"                                  . . - _ : : : : : : : : : : x : q @ y z A B B C D E F G H + I                                       ",
"                            @ J & K L : : : : : : : : : : : : : : M @ N L O j P Q R S E = T U V J                                     ",
"                          @ & f ! : : : : : : : : : : : : : : : : W @ X Y Z `  ...& +.S E @.#.$.%.&.                                  ",
"                          , *.: : : : : : : : : : : : : : : : : : =.@ -.;.>.,.^ '.).!.~.{.].l b ^./.@                                 ",
"                          % L : : : : : : : : : : : : : : : : < @.@ J z (.@.t  ._.:.<.[.}.^ ,.|.a 1.2.3.                              ",
"                          & : : : : : : : : : : : : : : : : : : _ J /.| 4.5.t 6...7.8.9.0.a.1 B u b.2 c.% @                           ",
"                        w - : : : : : : : : : : : : : : : : : : d.@ e.^.j f.@. .g.h.i.j.k.l.m.n.o.t p.q.r.s.J                         ",
"                        . d.: : : : : : : : : : : : : : : : : : - J t.q G b u.^ ~.v.w.& [ q x.y...n.j ,.l z.<.+                       ",
"                        @ _ : : : : : : : : : : : : : : : : < A.& @ B.C.D.E.F.Z C.G.H.I.J.K.L.M.N.O._.^ j = P.<.,                     ",
"                        + ! : : : : : : : : : : : : : : < < ~ Q.J R.Q._.5.l j a.S.T.U.t.V.W.X.H.;.Y.(.~.a.^ j Z.`.+                   ",
"                      , =.: : : : : : : : : : : : : : ~ < <  +7 J .+++1 @+#+^ $+%+&+*+=+-+;+>+,+$.'+)+k.!+~+{+]+^+@                   ",
"                      w g ~ : ~ 6 x x 6 : : : : : : : : ~ ~ { /+@ (+_+ .u j S (.:+X.,+<+]+[+}+<+|+1+/ 2+3+4+5+6+7+,                   ",
"                      n ) : : : : : : : : : : : : : < < < { 8+# @ 9+0+].F.^ a+Z.&+b+c+Q.d+e+f+g+h+i+j+k+l+0.m+B n+3.                  ",
"                      @ _ : : : : : : : : : : : : : < A.{ { o+J y p+q+ .j a.r+0+s+t+u+v+h+@ w+d.x+y+z+T.(.A+ .t B+                    ",
"                      @ : : : : : : : : : : : : ~ < ~ A.C+D+E+3.C F+y.G+A+H+I+J+K+i+L+M+N+O+P+Q+R+Y '+S+T+m+U+V+@                     ",
"                    J - : : : : : : : : : : : : < { { { W+X+N w Y+Z+`+ @.@3+e.+@@@$.#@$@%@&@*@=@++U.-@;@..P >@U @                     ",
"                    @ K : : : : : : : : : : : : { { j ,@'@J w . % i.)@!@~@{@]@l.Z.L.^@/@(@++_@:@b+'+%+<@1 [@|.}@+                     ",
"                    @ *.: : : : : : : : : : : x |@W & J J 1@2@3@J @ 4@>. .^  .5@C.(.q 6@_+c 7@8@U.9@s g.0@a@b@c@d@                    ",
"                    % L : : : : : : : : : : *.- @ @ J =.) l+e@f@g@h@i@j@k@l@m@^ n.}.n@o@%+p@| q@r@%+$+A+j |.a.i@                      ",
"                    & : : : < < ~ < ~ ,.* & @ @ s@5 t@L Z+u@:+v@w@x@y@@ z@>+u >@@.j A@~.B@C@q C f N.a+E @.E.D@E@                      ",
"                  + - < < ~ ~ { F@|@g @ J @ G@H@I@Y %+J@A+_.K@4+%+k@L@R.J s.M@b@q.|.@.E n.a+N@M O@N@P@Q@= |.R@n                       ",
"                  . * < < { j 7 S@@ @ @ N -.[ 6@7.T@= U@P  .M V@a+W@b+X@g . J c.Y@Z@`@ #` A+g.T+3+.#+#{.= @###J                       ",
"                  + $#~ = d.%#@ @ &#*#=#| o+~.].@.u.@.m@E 5@-#;#}.a.y.L.>#,#J @ '#)#1.a t  .S 7.!#~#T+..j a@s.                        ",
"                  @ M - J J J /.{#1+]#q T+>.u.T u.=  .{._.0.^#/#0.(#{.S s _#:#s@J <#i [#u = ^ ~.}#4+~.P@G+|#+                         ",
"                  J @ @ @ 1#2#3#K.N.S ^ B @.G B P n.'.C.N@%+4# @k.[.Z m+T@C.K.5#6#3.7#8#|.t E ..a+V@9#0#E a#J                         ",
"                  % b#P+c#z.M.O E ! B B m@ .j  ...+#A d#T.s+H O+6@s a+..>.]._.H.e#6#3.d f#g# .5@g.h#O+P@E i#@                         ",
"                    j#k#_. .g#u G ! j  .1 {.Z ..7.s M.l#K.Y m#h#K.T.s [.n#` F...;.o#g . @ 7+j Q@a.o+s.&+^ p#I                         ",
"                      w r.q#2 q.r#s#t#u#v#_.[.l.w#T.'+$.W.=@x#)@,+U.T.s O ^ ].j ..T.y#z#J @ A#^ m+5@V@B#_ @                           ",
"                        % C#D#b G E#F#j.G#@ H#I#J#|#s+V+R+[ `.K#R+.#K.)+h.g.^ m@^ P@L.L#M#+ J t#6@{.N#O#P#,                           ",
"                          i@Q#+#@#! j m+..[.R#+@S#T#@ U#V#W#w+X#Y#>+b+s+%+7.'.{.^ m+O H.Z#`# $@ .$[ q+s.^+.                           ",
"                            J B+.#l t o.E {.~.(.+$'+e@@$[+#$h+h+$$%$&$*$'+%+y.T+'..._.+#o+r@=$-$% <.;$~.m >$                          ",
"                              w B+,$@#t ,. .^ '.(.-@s+.#>+z.'$)$!$!#~$i+$ {$]$^$#@[.O }.T+q V+&@/$@ @ H .                             ",
"                                J + r.q.@#t ! n.~.s )+s+(@.#j@($L >+_$K._ d+:$'$3+4+<$[$}$X.l.|$;+1$@ w .                             ",
"                                  I . / a b 2$! ^ +#v.:+K.U.r =#3$8#s+L.+$v.l.B@B@o#9+4$C s.2#5$q+6$7$J                               ",
"                                      . 8$P@b@2$= {.T+s 9@%+& z K.'+)+Z.(.C.P@a.a.5@Z m+ .U+@.9$0$&.a$                                ",
"                                        w %.s+2 |.B {.C.Z.T+@ i b$d#N@[.P@A@ . .c$ .P = d$e$V@J J                                     ",
"                                          + r _+f$g$= {.C.5@@ q+N@T+_.Z  .B t u.! t P.7+s.i@.                                         ",
"                                            i@& h$[#l ! ^ | 4+C.P@{. .= u.|.b b.] V@, i@                                              ",
"                                              3.. i$`@l B >+.${. .= G q.a '.c.%.J (                                                   ",
"                                                  J v #.l k#C = t |.j$k$l$4 @ %                                                       ",
"                                                    w m #@m$n$k q.=#o$p$i@                                                            ",
"                                                      w q$_$7.r$s$@ %                                                                 ",
"                                                        p$t$4 + &.                                                                    ",
"                                                                                                                                      ",
"                                                                                                                                      ",
"                                                                                                                                      ",
"                                                                                                                                      ",
"                                                                                                                                      ",
"                                                                                                                                      ",
"                                                                                                                                      ",
"                                                                                                                                      "};
