/* XPM */
static char * sprite_xpm[] = {
"52 58 131 2",
"  	c None",
". 	c #16EEFF",
"+ 	c #16EFFF",
"@ 	c #15EDFF",
"# 	c #17E2F1",
"$ 	c #1A868E",
"% 	c #1B6C72",
"& 	c #18BBC7",
"* 	c #15EFFF",
"= 	c #16F0FF",
"- 	c #1D2B2C",
"; 	c #1E1E1E",
"> 	c #1C5256",
", 	c #17F0FF",
"' 	c #19949C",
") 	c #19A1AB",
"! 	c #1D383A",
"~ 	c #19AEB9",
"{ 	c #15EEFF",
"] 	c #17EFFF",
"^ 	c #17D5E3",
"/ 	c #1B6C73",
"( 	c #1C5A5E",
"_ 	c #19B3BF",
": 	c #18B2BD",
"< 	c #1C585C",
"[ 	c #1D3334",
"} 	c #1D3E41",
"| 	c #1B5F65",
"1 	c #19B5C0",
"2 	c #1A949D",
"3 	c #18B4BF",
"4 	c #1C5E63",
"5 	c #1D3E40",
"6 	c #1D3132",
"7 	c #1E2526",
"8 	c #1E2C2C",
"9 	c #1D3435",
"0 	c #1D3F41",
"a 	c #1B5F66",
"b 	c #1A878F",
"c 	c #19B4BF",
"d 	c #1C5F63",
"e 	c #1E3334",
"f 	c #1D292B",
"g 	c #1E2425",
"h 	c #1E1F1F",
"i 	c #1E2121",
"j 	c #1E2B2C",
"k 	c #1D3335",
"l 	c #1B6066",
"m 	c #18B5C0",
"n 	c #17C7D4",
"o 	c #1C676E",
"p 	c #1D2A2A",
"q 	c #1E2525",
"r 	c #1E2122",
"s 	c #1E3436",
"t 	c #1E4042",
"u 	c #1C6066",
"v 	c #18C8D5",
"w 	c #1A7278",
"x 	c #1E3E41",
"y 	c #1D3234",
"z 	c #1D292A",
"A 	c #1E2021",
"B 	c #1F1F1F",
"C 	c #1D3F42",
"D 	c #1C6065",
"E 	c #18C9D6",
"F 	c #1B737A",
"G 	c #1E3435",
"H 	c #1E2A2B",
"I 	c #1E2424",
"J 	c #1E2020",
"K 	c #1B747B",
"L 	c #1D4042",
"M 	c #1F2121",
"N 	c #1D2B2B",
"O 	c #17C7D5",
"P 	c #1A757B",
"Q 	c #1D4143",
"R 	c #1F2626",
"S 	c #1E2222",
"T 	c #17C9D6",
"U 	c #1B757C",
"V 	c #1D4144",
"W 	c #1E3537",
"X 	c #1F2020",
"Y 	c #1D4244",
"Z 	c #1B7980",
"` 	c #17DCEC",
" .	c #18C7D4",
"..	c #1D4345",
"+.	c #1D3637",
"@.	c #1D2C2D",
"#.	c #1E2626",
"$.	c #1D2E2F",
"%.	c #1D4043",
"&.	c #1C595D",
"*.	c #1D3D3F",
"=.	c #1D2E2E",
"-.	c #1E2727",
";.	c #1F1E1E",
">.	c #1B4E51",
",.	c #1E292A",
"'.	c #1E2324",
").	c #1D3031",
"!.	c #1D4A4E",
"~.	c #1E1F20",
"{.	c #1D2F31",
"].	c #1C494D",
"^.	c #1D4A4D",
"/.	c #1E3031",
"(.	c #1C494C",
"_.	c #1D2F30",
":.	c #1D494D",
"<.	c #1E2F31",
"[.	c #1C484C",
"}.	c #17E1F1",
"|.	c #17EEFF",
"1.	c #1B7A81",
"2.	c #1B6D73",
"3.	c #1E2F30",
"4.	c #1C484A",
"5.	c #16EDFF",
"6.	c #15F0FF",
"7.	c #17D6E4",
"8.	c #1B777E",
"9.	c #1D4447",
"0.	c #16DAE9",
"                                                                                                        ",
"                                                                                                        ",
"                                                                                                        ",
"                                                                                                        ",
"                                                . + @                                                   ",
"                                            . # $ % & * =                                               ",
"                                        . # $ - ; ; ; > & + ,                                           ",
"                                    . . ' - ; ; ; ; ; ; ; > & * .                                       ",
"                                = . ) ! ; ; ; ; ; ; ; ; ; ; ; > ~ * =                                   ",
"                            = { & > ; ; ; ; ; ; ; ; ; ; ; ; ; ; ; ! ) + =                               ",
"                        ] + & > ; ; ; ; ; ; ; ; ; ; ; ; ; ; ; ; ; ; ; ! ) * =                           ",
"                    @ + & > ; ; ; ; ; ; ; ; ; ; ; ; ; ; ; ; ; ; ; ; ; ; ; ! ) * =                       ",
"                * + ^ / ; ; ; ; ; ; ; ; ; ; ; ; ; ; ; ; ; ; ; ; ; ; ; ; ; ; ; ! ) = .                   ",
"              + # $ ; ; ; ; ; ; ; ; ; ; ; ; ; ; ; ; ; ; ; ; ; ; ; ; ; ; ; ; ; ; ; ! ) = ,               ",
"          + # $ - ; ; ; ; ; ; ; ; ; ; ; ; ; ; ; ; ; ; ; ; ; ; ; ; ; ; ; ; ; ; ; ; ; ; ! ) + +           ",
"        * + ~ ! ; ; ; ; ; ; ; ; ; ; ; ; ; ; ; ; ; ; ; ; ; ; ; ; ; ; ; ; ; ; ; ; ; ; ; ; ! ~ + +         ",
"        + + + + ) ! ; ; ; ; ; ; ; ; ; ; ; ; ; ; ; ; ; ; ; ; ; ; ; ; ; ; ; ; ; ; ; ; ! ) + + + +         ",
"        + ( _ + + + ) ! ; ; ; ; ; ; ; ; ; ; ; ; ; ; ; ; ; ; ; ; ; ; ; ; ; ; ; ; ! ) + + + : < ]         ",
"        + [ } | 1 + + + ) ! ; ; ; ; ; ; ; ; ; ; ; ; ; ; ; ; ; ; ; ; ; ; ; ; - 2 + + + 3 4 5 6 +         ",
"        + 7 8 9 0 a 1 + + + ) ! ; ; ; ; ; ; ; ; ; ; ; ; ; ; ; ; ; ; ; ; - b # + + c d 5 e f g +         ",
"        + h i g j k 0 l m + + + ) ! ; ; ; ; ; ; ; ; ; ; ; ; ; ; ; ; - b # + * n o 5 e p q i h +         ",
"        + ; ; h r g 8 s t u m + + + b ! ; ; ; ; ; ; ; ; ; ; ; ; - b # + + v w x y z g A h h ; +         ",
"        + ; ; ; ; B i g 8 k C D m + + ^ b ! ; ; ; ; ; ; ; ; - b # + + E F 0 G H I i J ; ; ; ; +         ",
"        + ; ; ; ; ; ; B r g j k 0 u v + + ^ b ! ; ; ; ; - b # + + E K L k - g M B ; ; ; ; ; ; +         ",
"        + ; ; ; ; ; ; ; B h i g N 9 } F O + + ^ b ; - b # + = E P Q s - R S J B B ; ; ; ; ; ; +         ",
"        + ; ; ; ; ; ; ; ; B ; B r g 8 G C F v + + ^ # + + T U V W - 7 S X B B ; ; ; ; ; ; ; ; +         ",
"        + ; ; ; ; ; ; ; ; ; ; B ; h i 7 j 9 Y Z ` + +  .U ..+.@.#.S h ; ; ; ; ; ; ; ; ; ; ; ; +         ",
"        + ; ; ; ; ; ; ; ; ; ; ; ; h ; J i #.$.%.&.] + *.+.=.-.r J ; ;.; ; ; ; ; ; ; ; ; ; ; ; +         ",
"        + ; ; ; ; ; ; ; ; ; ; ; ; ; ; B h X 7 s >.+ = ,.#.'.X B B ; ; ; ; ; ; ; ; ; ; ; ; ; ; +         ",
"        + ; ; ; ; ; ; ; ; ; ; ; ; ; ; ; ; B S ).!.= + i ~.h ; ; ; ; ; ; ; ; ; ; ; ; ; ; ; ; ; +         ",
"        + ; ; ; ; ; ; ; ; ; ; ; ; ; ; ; ; ; i {.].+ + ; ; ; ; ; ; ; ; ; ; ; ; ; ; ; ; ; ; ; ; +         ",
"        + ; ; ; ; ; ; ; ; ; ; ; ; ; ; ; ; ; i {.^.+ + ; ; ; ; ; ; ; ; ; ; ; ; ; ; ; ; ; ; ; ; +         ",
"        + ; ; ; ; ; ; ; ; ; ; ; ; ; ; ; ; ; i {.^.+ + ; ; ; ; ; ; ; ; ; ; ; ; ; ; ; ; ; ; ; ; +         ",
"        + ; ; ; ; ; ; ; ; ; ; ; ; ; ; ; ; ; i ).].+ + ; ; ; ; ; ; ; ; ; ; ; ; ; ; ; ; ; ; ; ; +         ",
"        + ; ; ; ; ; ; ; ; ; ; ; ; ; ; ; ; ; i /.(.+ + ; ; ; ; ; ; ; ; ; ; ; ; ; ; ; ; ; ; ; ; +         ",
"        + ; ; ; ; ; ; ; ; ; ; ; ; ; ; ; ; ; i {.].* + ; ; ; ; ; ; ; ; ; ; ; ; ; ; ; ; ; ; ; ; +         ",
"        + ; ; ; ; ; ; ; ; ; ; ; ; ; ; ; ; ; i {.^.+ + ; ; ; ; ; ; ; ; ; ; ; ; ; ; ; ; ; ; ; ; +         ",
"        + ; ; ; ; ; ; ; ; ; ; ; ; ; ; ; ; ; i _.].+ + ; ; ; ; ; ; ; ; ; ; ; ; ; ; ; ; ; ; ; ; +         ",
"        + ; ; ; ; ; ; ; ; ; ; ; ; ; ; ; ; ; i {.^.+ + ; ; ; ; ; ; ; ; ; ; ; ; ; ; ; ; ; ; ; ; +         ",
"        + ; ; ; ; ; ; ; ; ; ; ; ; ; ; ; ; ; M _.:.+ + ; ; ; ; ; ; ; ; ; ; ; ; ; ; ; ; ; ; ; ; +         ",
"        + ; ; ; ; ; ; ; ; ; ; ; ; ; ; ; ; ; J <.].+ + ; ; ; ; ; ; ; ; ; ; ; ; ; ; ; ; ; ; ; ; +         ",
"        + ; ; ; ; ; ; ; ; ; ; ; ; ; ; ; ; ; i {.(.+ + ; ; ; ; ; ; ; ; ; ; ; ; ; ; ; ; ; ; ; ; +         ",
"        + ) ! ; ; ; ; ; ; ; ; ; ; ; ; ; ; ; i _.].+ + ; ; ; ; ; ; ; ; ; ; ; ; ; ; ; ; ; ; - b .         ",
"          . + ) ! ; ; ; ; ; ; ; ; ; ; ; ; ; i _.[.+ + ; ; ; ; ; ; ; ; ; ; ; ; ; ; ; ; - b }.|.          ",
"              , + ) ! ; ; ; ; ; ; ; ; ; ; ; i {.(.+ + ; ; ; ; ; ; ; ; ; ; ; ; ; ; - b # +               ",
"                  + ^ b ! ; ; ; ; ; ; ; ; ; i {.:.+ + ; ; ; ; ; ; ; ; ; ; ; ; - b # +                   ",
"                      + ^ b ! ; ; ; ; ; ; ; i _.].+ + ; ; ; ; ; ; ; ; ; ; - b # ]                       ",
"                          + ^ b ! ; ; ; ; ; i _.].+ + ; ; ; ; ; ; ; ; - b # ,                           ",
"                              + ^ 1.; ; ; ; i {.].+ + ; ; ; ; ; ; - b # ]                               ",
"                                  + ^ 2.; ; M {.(.+ + ; ; ; ; - b # +                                   ",
"                                      + ^ 2.i 3.4.+ + ; ; - b # + 5.                                    ",
"                                          6.7.8.9.+ + - b # + ]                                         ",
"                                              + 0.+ + ^ + ]                                             ",
"                                                + |.+ +                                                 ",
"                                                                                                        ",
"                                                                                                        ",
"                                                                                                        ",
"                                                                                                        "};
