/* XPM */
static char * sprite6_xpm[] = {
"59 60 532 2",
"  	c None",
". 	c #19F2FF",
"+ 	c #14EFFF",
"@ 	c #17EFFF",
"# 	c #16EFFF",
"$ 	c #18F0FF",
"% 	c #19EEFF",
"& 	c #17EEFF",
"* 	c #16F0FF",
"= 	c #17E2F2",
"- 	c #17BECA",
"; 	c #1899A2",
"> 	c #1A8088",
", 	c #1A7F86",
"' 	c #1AC8D6",
") 	c #1AA2AD",
"! 	c #1B7C84",
"~ 	c #1B656A",
"{ 	c #1E4043",
"] 	c #1D2829",
"^ 	c #1D2A2B",
"/ 	c #1E2D2E",
"( 	c #1E2B2C",
"_ 	c #17D7E5",
": 	c #1A747B",
"< 	c #17E3F1",
"[ 	c #16EEFF",
"} 	c #17F0FF",
"| 	c #17F1FF",
"1 	c #17D6E5",
"2 	c #19B1BC",
"3 	c #1998A1",
"4 	c #1C7278",
"5 	c #1D3E41",
"6 	c #1F2424",
"7 	c #1E2425",
"8 	c #1E2525",
"9 	c #1E2627",
"0 	c #1E2829",
"a 	c #1F2C2D",
"b 	c #1F2E2F",
"c 	c #1E2F30",
"d 	c #1B767D",
"e 	c #18BFCB",
"f 	c #1D2C2D",
"g 	c #1B747B",
"h 	c #18EFFF",
"i 	c #18E2F2",
"j 	c #18BCC9",
"k 	c #1997A1",
"l 	c #1A7279",
"m 	c #1C4D52",
"n 	c #1C3638",
"o 	c #1D2A2A",
"p 	c #1D292A",
"q 	c #1F2829",
"r 	c #1E2728",
"s 	c #1D2B2C",
"t 	c #1D2E2F",
"u 	c #1E3032",
"v 	c #1E3234",
"w 	c #1D3132",
"x 	c #17D7E6",
"y 	c #1A787F",
"z 	c #1E2E2F",
"A 	c #1E2C2D",
"B 	c #1A99A2",
"C 	c #15EFFF",
"D 	c #1A98A1",
"E 	c #1C6E74",
"F 	c #1D4144",
"G 	c #1E2526",
"H 	c #1F2627",
"I 	c #1E2C2E",
"J 	c #1D2C2C",
"K 	c #1D3233",
"L 	c #1E3536",
"M 	c #1D3638",
"N 	c #1B7A81",
"O 	c #17D8E7",
"P 	c #1D3335",
"Q 	c #1E3031",
"R 	c #1E2D2D",
"S 	c #1E3637",
"T 	c #18CAD7",
"U 	c #14EEFF",
"V 	c #1AA8B2",
"W 	c #1D4043",
"X 	c #1D3133",
"Y 	c #1B757C",
"Z 	c #1C4549",
"` 	c #1D2F31",
" .	c #1D3032",
"..	c #1F3334",
"+.	c #1D3435",
"@.	c #1D3637",
"#.	c #1D3739",
"$.	c #1D393B",
"%.	c #1D383A",
"&.	c #18CDDA",
"*.	c #1A7C84",
"=.	c #1C3537",
"-.	c #1E3133",
";.	c #1D2E2E",
">.	c #1F2B2B",
",.	c #1A868E",
"'.	c #17E2F1",
").	c #19959E",
"!.	c #1C3E40",
"~.	c #1D3031",
"{.	c #1E2B2B",
"].	c #1E4244",
"^.	c #19A4AE",
"/.	c #18BFCC",
"(.	c #1A7880",
"_.	c #1C494C",
":.	c #1E3436",
"<.	c #1E3335",
"[.	c #1D3436",
"}.	c #1E3739",
"|.	c #1D3A3D",
"1.	c #1E3D3F",
"2.	c #1D3D3F",
"3.	c #1B686E",
"4.	c #17D9E7",
"5.	c #1E3B3E",
"6.	c #1C3739",
"7.	c #1E2828",
"8.	c #1B7076",
"9.	c #1E393B",
"0.	c #1A7A81",
"a.	c #16E6F5",
"b.	c #1B6268",
"c.	c #1D3B3E",
"d.	c #1F3032",
"e.	c #1C5B60",
"f.	c #19A6B0",
"g.	c #1AA9B2",
"h.	c #1E383A",
"i.	c #1C3A3C",
"j.	c #1C4043",
"k.	c #18C4D1",
"l.	c #1A8289",
"m.	c #1D3E40",
"n.	c #1D3A3C",
"o.	c #1E3638",
"p.	c #1E292A",
"q.	c #1A97A0",
"r.	c #16EDFF",
"s.	c #18C8D5",
"t.	c #1E1E1E",
"u.	c #1F1F1F",
"v.	c #1A949E",
"w.	c #17DBEB",
"x.	c #1C5458",
"y.	c #1D2D2F",
"z.	c #1C767C",
"A.	c #18C1CE",
"B.	c #19A9B4",
"C.	c #1B696E",
"D.	c #1D4346",
"E.	c #1D4548",
"F.	c #1A6F74",
"G.	c #1C3F42",
"H.	c #1D3C3E",
"I.	c #1D3839",
"J.	c #1E3334",
"K.	c #1E2F31",
"L.	c #18C9D7",
"M.	c #19949D",
"N.	c #1E1F1F",
"O.	c #17D5E3",
"P.	c #19B5C2",
"Q.	c #1C4548",
"R.	c #1E3537",
"S.	c #1D2C2E",
"T.	c #1E3233",
"U.	c #1D494D",
"V.	c #1A7980",
"W.	c #17CEDC",
"X.	c #17D9E8",
"Y.	c #19A3AD",
"Z.	c #1C5B5F",
"`.	c #1D484C",
" +	c #18C5D2",
".+	c #1A858D",
"++	c #1D4649",
"@+	c #1C4144",
"#+	c #1E3A3C",
"$+	c #1D3536",
"%+	c #16E2F2",
"&+	c #18EEFF",
"*+	c #1C5256",
"=+	c #1996A0",
"-+	c #1D4244",
";+	c #1D3234",
">+	c #1E3336",
",+	c #1D393C",
"'+	c #1D5257",
")+	c #19A1AB",
"!+	c #16DAE9",
"~+	c #17D0DE",
"{+	c #16E5F4",
"]+	c #1C5D61",
"^+	c #1D474A",
"/+	c #1D4245",
"(+	c #1C3F41",
"_+	c #1D3B3D",
":+	c #1E2A2B",
"<+	c #1B737A",
"[+	c #1A6C72",
"}+	c #1F2A2B",
"|+	c #1F3638",
"1+	c #1C3D3F",
"2+	c #1D4547",
"3+	c #18C3D0",
"4+	c #17C3D0",
"5+	c #17DBE9",
"6+	c #19C0CC",
"7+	c #1B7E86",
"8+	c #1C4648",
"9+	c #1E3132",
"0+	c #1E2E30",
"a+	c #1E2E2E",
"b+	c #1998A2",
"c+	c #19AEB9",
"d+	c #1A949D",
"e+	c #18DBEB",
"f+	c #1F3435",
"g+	c #1D373A",
"h+	c #1D3F42",
"i+	c #1D5B5F",
"j+	c #1C484B",
"k+	c #1D464A",
"l+	c #18B9C4",
"m+	c #18A6B0",
"n+	c #1B6B72",
"o+	c #1F3436",
"p+	c #1E3435",
"q+	c #1D383B",
"r+	c #17CAD7",
"s+	c #1B6C73",
"t+	c #1F1E1E",
"u+	c #19B5C1",
"v+	c #1D4446",
"w+	c #1F2C2C",
"x+	c #1F2728",
"y+	c #1E2929",
"z+	c #1E3F42",
"A+	c #1A838B",
"B+	c #1C4447",
"C+	c #1C4245",
"D+	c #1C5357",
"E+	c #1A7E85",
"F+	c #18C2CE",
"G+	c #1C5E63",
"H+	c #17E3F2",
"I+	c #1A959E",
"J+	c #1F3E40",
"K+	c #1E282A",
"L+	c #1E2A2A",
"M+	c #1D393A",
"N+	c #1C3C3E",
"O+	c #1C555A",
"P+	c #17D8E6",
"Q+	c #1C3C3F",
"R+	c #1D4E51",
"S+	c #1C888F",
"T+	c #18D8E6",
"U+	c #1A8C95",
"V+	c #1B6A70",
"W+	c #1C6C72",
"X+	c #16E5F5",
"Y+	c #1C6A70",
"Z+	c #1E373A",
"`+	c #202A2C",
" @	c #1F2B2C",
".@	c #1D3738",
"+@	c #18ACB7",
"@@	c #1E3C3E",
"#@	c #1C585C",
"$@	c #18BBC7",
"%@	c #1B747A",
"&@	c #1C4244",
"*@	c #1A9AA3",
"=@	c #17DBEA",
"-@	c #1F2D2E",
";@	c #1C4F52",
">@	c #1D5154",
",@	c #1D3537",
"'@	c #1D3334",
")@	c #1F2F31",
"!@	c #1C6166",
"~@	c #19A7B2",
"{@	c #18E3F2",
"]@	c #19AFBA",
"^@	c #18B4C0",
"/@	c #1E4448",
"(@	c #19AAB4",
"_@	c #1A919A",
":@	c #1F2E2E",
"<@	c #1E2C2C",
"[@	c #1E2B2D",
"}@	c #1F2D2F",
"|@	c #1E5154",
"1@	c #1F3031",
"2@	c #1E4A4D",
"3@	c #17D6E4",
"4@	c #1C4A4E",
"5@	c #1F3133",
"6@	c #1D292B",
"7@	c #1F2729",
"8@	c #1F2A2C",
"9@	c #1C5255",
"0@	c #1B757D",
"a@	c #199AA3",
"b@	c #18BECA",
"c@	c #17E6F5",
"d@	c #1B6E75",
"e@	c #1D3336",
"f@	c #19A8B2",
"g@	c #1A9BA6",
"h@	c #1F3233",
"i@	c #1F2828",
"j@	c #1E2727",
"k@	c #1F2525",
"l@	c #1E2324",
"m@	c #1E4245",
"n@	c #1B737B",
"o@	c #18B2BD",
"p@	c #16DDEB",
"q@	c #1C575C",
"r@	c #1C3A3D",
"s@	c #1D4B4E",
"t@	c #1E484A",
"u@	c #202C2C",
"v@	c #202929",
"w@	c #1E6367",
"x@	c #1C7C84",
"y@	c #1BA2AD",
"z@	c #18C9D6",
"A@	c #17E7F6",
"B@	c #18D5E3",
"C@	c #1ABAC5",
"D@	c #1A9BA4",
"E@	c #1A828A",
"F@	c #1A9DA7",
"G@	c #1D484A",
"H@	c #1D4F52",
"I@	c #1A828B",
"J@	c #1C3B3E",
"K@	c #1B8289",
"L@	c #1999A2",
"M@	c #18BDC9",
"N@	c #17DCEC",
"O@	c #19C1CE",
"P@	c #18ADB8",
"Q@	c #19909A",
"R@	c #1D5459",
"S@	c #1C4E52",
"T@	c #1C484C",
"U@	c #1D4345",
"V@	c #19C2CE",
"W@	c #1F2020",
"X@	c #1E2121",
"Y@	c #1E3C3F",
"Z@	c #17B7C3",
"`@	c #15F0FF",
" #	c #18E5F5",
".#	c #1AADB7",
"+#	c #1B8D96",
"@#	c #1C6E75",
"##	c #1E4144",
"$#	c #1E3E40",
"%#	c #1C383B",
"&#	c #1F3B3D",
"*#	c #1A878F",
"=#	c #202020",
"-#	c #1F2323",
";#	c #1C7077",
">#	c #15E7F6",
",#	c #16D4E3",
"'#	c #17B8C5",
")#	c #1B9BA4",
"!#	c #1B848D",
"~#	c #1B5B60",
"{#	c #1D4042",
"]#	c #1E3839",
"^#	c #1F3739",
"/#	c #19B4BE",
"(#	c #1C5C60",
"_#	c #1F2222",
":#	c #1D646A",
"<#	c #16DEED",
"[#	c #1C99A2",
"}#	c #1C6F74",
"|#	c #1D565B",
"1#	c #1E4042",
"2#	c #1E3B3D",
"3#	c #1E3538",
"4#	c #1D494C",
"5#	c #199AA4",
"6#	c #1AA6B0",
"7#	c #202222",
"8#	c #19A3AC",
"9#	c #1E5156",
"0#	c #1D5C61",
"a#	c #1C5559",
"b#	c #1A848B",
"c#	c #16E3F2",
"d#	c #1C676D",
"e#	c #1E595D",
"f#	c #1F3132",
"g#	c #1D2E30",
"h#	c #1D2F30",
"i#	c #199EA7",
"j#	c #1C565A",
"k#	c #1B5C61",
"l#	c #1C5F64",
"m#	c #1D5458",
"n#	c #17D3E1",
"o#	c #1D4A4E",
"p#	c #1D5358",
"q#	c #1B7980",
"r#	c #18C1CD",
"s#	c #19A5B0",
"t#	c #1AA1AB",
"u#	c #19ACB7",
"v#	c #1F3536",
"w#	c #1E2D2F",
"x#	c #1D3A3B",
"y#	c #1A939B",
"z#	c #1A767E",
"A#	c #1A969F",
"B#	c #1D3F41",
"C#	c #1A8B92",
"D#	c #1B7278",
"E#	c #1C4E51",
"F#	c #15F1FF",
"G#	c #17DDEB",
"H#	c #1C4A4D",
"I#	c #1C5356",
"J#	c #1C4448",
"K#	c #1AA4AE",
"L#	c #1C5257",
"M#	c #1D2B2D",
"N#	c #1B7F86",
"O#	c #17C8D5",
"P#	c #17DAE8",
"Q#	c #199BA5",
"R#	c #1C5D62",
"S#	c #17D0DC",
"T#	c #1C4B4F",
"U#	c #17BDC9",
"V#	c #19BBC7",
"W#	c #1B818A",
"X#	c #1F2C2E",
"Y#	c #1D4447",
"Z#	c #18D0DE",
"`#	c #18B1BD",
" $	c #17DAE9",
".$	c #1A929B",
"+$	c #1C4649",
"@$	c #1D3D40",
"#$	c #15EEFF",
"$$	c #1C4B4E",
"%$	c #1D474B",
"&$	c #199DA7",
"*$	c #18C6D3",
"=$	c #1D4A4D",
"-$	c #1F2E30",
";$	c #1B7077",
">$	c #17E1F1",
",$	c #1C6D73",
"'$	c #17BFCC",
")$	c #18B0BC",
"!$	c #17D1DD",
"~$	c #18C6D2",
"{$	c #1C4F53",
"]$	c #1E2626",
"^$	c #18BCC8",
"/$	c #18AEB9",
"($	c #1A8D96",
"_$	c #1C5154",
":$	c #1C494D",
"<$	c #1B6267",
"[$	c #1B676D",
"}$	c #17E4F3",
"|$	c #1A8C94",
"1$	c #1D4143",
"2$	c #1C646A",
"3$	c #1C6066",
"4$	c #1C474A",
"5$	c #19939C",
"6$	c #1C5C61",
"7$	c #17EDFF",
"8$	c #19B5C0",
"9$	c #1C4D51",
"0$	c #199099",
"a$	c #1D4648",
"b$	c #1E2A2C",
"c$	c #1E2729",
"d$	c #1B646A",
"e$	c #1E393C",
"f$	c #1D5A5E",
"g$	c #1C5358",
"h$	c #17DCEB",
"i$	c #1B777E",
"j$	c #1D2B2B",
"k$	c #1E5457",
"l$	c #1C4D50",
"m$	c #17D5E4",
"n$	c #1A777F",
"o$	c #1D2324",
"p$	c #1B6469",
"q$	c #1B7D85",
"r$	c #18DCEB",
"s$	c #1D2929",
"t$	c #19A2AD",
"u$	c #17C9D5",
"v$	c #18E2F1",
"w$	c #1B878F",
"x$	c #19B3BF",
"y$	c #1E3F41",
"z$	c #1E2424",
"A$	c #1D4C50",
"B$	c #1C7379",
"C$	c #1AB1BC",
"D$	c #1B9098",
"E$	c #1AA3AD",
"F$	c #17F2FF",
"G$	c #16F1FF",
"                                                                                                                      ",
"                                                                                                                      ",
"                                                                                                                      ",
"                                                                                                                      ",
"                                                                                                                      ",
"                                                                                                                      ",
"                                                                                                                      ",
"                                                                    . + @ # $                                         ",
"                                                        % & # @ * = - ; > , # #                                       ",
"                                            # * * # # @ ' ) ! ~ { ] ^ / ( _ : < [                                     ",
"                                  } | * } # 1 2 3 4 5 6 7 8 9 0 ^ a b c d e f g *                                     ",
"                        $ h @ } i j k l m n o ^ o p ] q r ] ^ s t u v w x y z A B C                                   ",
"                      # @ D E F G H r p ^ ( / z / I I J A z z w K L M N O P Q R S T U                                 ",
"                    } # # V W X p 0 F Y Z c `  .w u Q u  ...+.@.#.$.%.&.*.=.-.;.>.{ = $                               ",
"                    } ,.'.# ).!.~.{.].^._ /.(._.P :.<.<.[.}.%.|.1.2.3.4.5.6.:.Q ( 7.8.#                               ",
"                    C 9.0.@ a.b.c.d.A ( ^ e.f.# g.8.S h.$.i.2.!.j.W k.l.m.n.o. ./ p.G q.[                             ",
"                  r.s.t.u.v.# w.x.%.t I y.Q c n.z.A.O B.C.m.F D.E.F.O D.G.H.I.J.K.( 0 K L.#                           ",
"                  } M.t.N./ O.@ P.Q.R.z S.z Q T.[.Q U.V.W.X.Y.Z.`. +.+++@+m.#+$+w z ( 0 W %+&+                        ",
"                  [ *+t.u.u.9.'.# =+-+;+J ( / c T.>+6.i.,+'+)+!+~+{+]+^+/+(+_+@.P u z ( :+<+C                         ",
"                  '.t.t.u.N.u.N # a.[+c.Q }+}+A c v |+9.1+F 2+D.3+4+5+6+7+8+_+$.R.<.9+0+a+s b+&                       ",
"                | c+t.t.u.u.u.u.d+@ e+x.M I p.}+A ` f+g+H.h+D.i+4.j+k+V.l+* m+n+o+R.p+w u 0+q+r+C                     ",
"                # s+t.t.t.t.t.t+A s.# u+v+T.w+x+y+0+v @.i.z+/+c+A+B+C+W h+D+E+F+O.^.G+w P X K.++H+@                   ",
"                * %.t.t.t.t.t.t.t.$.'.# I+J+y.K+L+s Q :.M+N+O+P+F j.5 Q+_+$.%.o.R+S+T+O.U+Z -.` V+C                   ",
"              # s.t.t.t.t.t.t.t.t.t.W+# X+Y+Z+I `+ @t ;+.@n.+@, 1+@@n.$.o.[.<.<.J.[.[.#@B.T+$@%@&@*@&                 ",
"              [ M.t.t.t.t.t.t.t.t.t.t.d+# =@'+R.-@:+z u R.;@_ >@q+I.,@'@T.u Q )@K.9+K ;+v J.!@~@{@]@T *               ",
"              [ *+t.t.t.t.t.t.t.t.t.t.( s.# ^@/@+.z I Q v (@_@o.:.X u K.:@<@( [@/ z )@u Q T.9+0+}@|@-+=               ",
"              '.t.t.t.t.t.t.t.t.t.t.t.t.9.'.[ k -++.0+1@2@3@4@T.5@z J 6@y+q 7@0 }+8@-@/ t 0+n.9@0@a@b@i &             ",
"            * c+t.t.t.t.t.t.t.t.t.t.t.t.t+E # c@d@z+e@-.f@g@h@0+b ( i@j@7 k@l@8 x+m@n@a@o@_ # # # C # [ h             ",
"            # s+t.t.t.t.t.t.t.t.t.t.t.t.u.u.I+# p@q@r@s@# t@c a+u@v@8 !.w@x@y@z@i # # * C * A@B@C@D@E@F@}             ",
"            * %.t.t.t.t.t.t.t.t.t.t.t.t.t+u.b z@@ e G@H@I@J@9@K@L@M@= @ @ # @ @ [ N@O@P@Q@V+R@S@T@U@2.V@}             ",
"          @ $@t.t.t.t.t.t.t.t.t.t.t.t.t.N.W@X@Y@i h M@Z@x @ `@* # # #  #z@.#+#@##@4@^+E.D.##$#%#.@-.&#@               ",
"          * *#t.t.t.t.t.t.t.t.t.t.t.t.t.u.u.=#-#;#@ @ # @ >#,#'#)#!#~#s@2+{#2.%#]#^#R.S R.v ..2./#(#g @               ",
"          # *+t.t.t.t.t.t.t.t.t.t.t.t.t.u.u.W@_#:#@ <#[#}#|#;@4@v+1#2#3#v 1@z A S.c 1@9+X K 4#_ 5#A 6#`@              ",
"          O.t.t.t.t.t.t+N.t+t.t.t.u.t.t+t.N.u.7#8#h q.9#0#a#@@9.o.h@c z <@s ^ s c c 9+K P N P+b#0+( c#                ",
"        [ )+t.t.t.t.t.t.t.t.t.t.t.t.t.t.t.u.u._#= # d#{#e#x !@<.v T.f#Q t g#h#Q w J.+.$+i#P+j# .t k#C                 ",
"        # l#t.t.t.t.t.t.t.t.t.t.t.t.t.t.t.t+W@m## n#o#.@u p#P+q#[.[.:.[.+.+.[.$+S M F r#r#j.K K.f s#C                 ",
"        } *#t.t.t.t.t.t.t.t.t.t.t.t.t.t.t.N.N.t#@ u#/+v#w#Q s@P+*#%.$.$.#+#+$.$.x#Z.P+y#,@p+9+z ^ 1 `@                ",
"          C *+t.t.t.t.t.t.t.t.t.t.t.t.t.t.u.N.B@@ z#i.0+/ Q P R+4.A#2.B#h+h+B#m.C#4.D#}.:.X c s E#F#                  ",
"          C '.%.t.t.t.t.t.t.t.t.t.t.t.t.t.t.Q.@ G#H#v#a f ~.[.%.I#X.L@D.J#B+v+K#X.L#$.M ;+c M#p.N#`@                  ",
"            # O#t.t.t.t.t.t.t.t.t.t.t.t.t.t.N # u+-+K.}+A Q [.$.m.q@P#Q#j+R#S#]@T#m.$.S 9+/ L+r U#@                   ",
"              # d+t.t.t.t.t.t.t.t.t.t.t.t.u.V## W#q+[@] X# .o._+h+Y#*+Z#`# $.$+$U@m.$.+.` s 0 @$[                     ",
"                #$N t.t.t.t.t.t.t.t.t.t.t+9.# a.$$:.p.p.I T.o._+G.B+%$&$# *$=$+$U@2.h.J.-$p j@;$&                     ",
"                  >$E.t.t.t.t.t.t.t.t.t.t+,$# '$D.` y+:+c K #.5.h+;@)$!$l#2 ~${$F 2.}.K / ] ]$^$[                     ",
"                  # O.s t.t.t.t.t.t.t.u.W@/$# ($N+b p.A Q P #.c.x.W.^._$^++$a@W.:$n.,@9+/ ] T.#                       ",
"                    # $@t.t.t.t.t.t.t.u./ # @ <$.@R ( 0+w $+I.[$}$|$1$-+-+-+W =+4.S@[. .f 7.2$#                       ",
"                      # *#t.t.t.t.t.u.u.3$# T 4$<.f / Q ;+S 5$O 6$H.H.2.H.H._+n.5$P+H#Q ( 0 K#7$                      ",
"                        C *+t.t.t.t.u.W@)+@ L@h+~.f 0+w h+8$r#9$}.#.#.M .@M M ,@[.0$_ a$b$c$3@                        ",
"                        C '.%.t.t.t.t+u.B@@ d$e$t -@K.T@P+&$R.$+P J.-.w w u  .u Q c E@_ @.f$[                         ",
"                          * O#s t.t.u.g$# h$_.L A I i$x (.K v -.Q z f A s ( s A f [@j$/+7.D C                         ",
"                            # d+t.t.N.d+@ u#].Q L+($_ k$K.K.c / [@L+] r r r r 0 y+0 $+l$D#m$r.                        ",
"                              C N t.u.s.@ n$n.-@7.~#I.f f f [@p 0 9 8 7 o$1+p$q$^.3@C [ [ r.                          ",
"                                >$E.h.# r$4#v 7.H r s$p.p.p.7.+.q@! t$u$v$[ @ [ & #                                   ",
"                                7$O.w$# x$y$/ 7 z$G A$B$3 C$3@* # h & *                                               ",
"                                  * # # D$8.N#E$B@# [ C # F$                                                          ",
"                                    # # G$[ h } `@                                                                    ",
"                                                                                                                      ",
"                                                                                                                      ",
"                                                                                                                      ",
"                                                                                                                      ",
"                                                                                                                      "};
