/* XPM */
static char * sprite8_xpm[] = {
"57 60 268 2",
"  	c None",
". 	c #D3FEFF",
"+ 	c #F2FEFF",
"@ 	c #A2F9FF",
"# 	c #C2FBFF",
"$ 	c #F1FEFF",
"% 	c #8AF7FF",
"& 	c #6DF5FF",
"* 	c #C5FBFF",
"= 	c #F0FEFF",
"- 	c #9CF9FF",
"; 	c #B6F9FF",
"> 	c #E8FDFF",
", 	c #24F0FF",
"' 	c #16EFFF",
") 	c #50F3FF",
"! 	c #9CF7FF",
"~ 	c #B8F9FF",
"{ 	c #F7FEFF",
"] 	c #99F8FF",
"^ 	c #AAF8FF",
"/ 	c #A8F9FF",
"( 	c #33F1FF",
"_ 	c #B7FAFF",
": 	c #EFFEFF",
"< 	c #9EF7FF",
"[ 	c #9DF9FF",
"} 	c #7BF5FF",
"| 	c #DFFEFF",
"1 	c #7CF6FF",
"2 	c #E0FDFF",
"3 	c #7FF6FF",
"4 	c #E1FDFF",
"5 	c #E2FDFF",
"6 	c #B9FBFF",
"7 	c #CCFBFF",
"8 	c #F1FFFF",
"9 	c #BAFBFF",
"0 	c #BEFBFF",
"a 	c #8BF7FF",
"b 	c #C2FCFF",
"c 	c #E4FDFF",
"d 	c #B6FAFF",
"e 	c #34F1FF",
"f 	c #FAFEFF",
"g 	c #DFFDFF",
"h 	c #D7FCFF",
"i 	c #C6FBFF",
"j 	c #D3FCFF",
"k 	c #A7F9FF",
"l 	c #D4FCFF",
"m 	c #C4FBFF",
"n 	c #D9FDFF",
"o 	c #2CF1FF",
"p 	c #79F5FF",
"q 	c #B2F9FF",
"r 	c #CBFCFF",
"s 	c #EFFDFF",
"t 	c #A6F9FF",
"u 	c #17EFFF",
"v 	c #CBFBFF",
"w 	c #AAFAFF",
"x 	c #7BF6FF",
"y 	c #E6FEFF",
"z 	c #2AF0FF",
"A 	c #75F6FF",
"B 	c #AEF9FF",
"C 	c #C9FCFF",
"D 	c #98F8FF",
"E 	c #F6FEFF",
"F 	c #29F0FF",
"G 	c #75F5FF",
"H 	c #FDFEFF",
"I 	c #89F7FF",
"J 	c #E8FEFF",
"K 	c #73F5FF",
"L 	c #F8FFFF",
"M 	c #FBFEFF",
"N 	c #16F0FF",
"O 	c #FEFFFF",
"P 	c #E9FEFF",
"Q 	c #88F7FF",
"R 	c #35F1FF",
"S 	c #FAFFFF",
"T 	c #F9FFFF",
"U 	c #17F0FF",
"V 	c #18F0FF",
"W 	c #AFFAFF",
"X 	c #D8FCFF",
"Y 	c #A9FAFF",
"Z 	c #3EF2FF",
"` 	c #15EFFF",
" .	c #F8FEFF",
"..	c #41F0FE",
"+.	c #40F1FE",
"@.	c #76F5FF",
"#.	c #18EFFF",
"$.	c #D1FCFF",
"%.	c #A8FAFF",
"&.	c #40F2FF",
"*.	c #B2F5FA",
"=.	c #4EF1FD",
"-.	c #CEF7F9",
";.	c #ADF9FF",
">.	c #D5FCFF",
",.	c #ADFAFF",
"'.	c #79F3FC",
").	c #A3F5FB",
"!.	c #F7FFFF",
"~.	c #BFF6FA",
"{.	c #6BF3FC",
"].	c #85F7FF",
"^.	c #ABF9FF",
"/.	c #DEFDFF",
"(.	c #25F0FF",
"_.	c #EDFDFF",
":.	c #AAF9FF",
"<.	c #87F7FF",
"[.	c #3FF2FF",
"}.	c #18EEFF",
"|.	c #32F0FE",
"1.	c #DCF7F9",
"2.	c #24F0FE",
"3.	c #84F6FF",
"4.	c #DBFDFF",
"5.	c #EBFEFF",
"6.	c #85F6FF",
"7.	c #17EEFF",
"8.	c #A3F4FB",
"9.	c #C0F6FA",
"0.	c #87F4FC",
"a.	c #3CF1FF",
"b.	c #8EF7FF",
"c.	c #98F7FF",
"d.	c #B8FBFF",
"e.	c #8AF6FF",
"f.	c #16EEFF",
"g.	c #32F1FE",
"h.	c #33F0FE",
"i.	c #EAF7F8",
"j.	c #95F7FF",
"k.	c #D0FBFF",
"l.	c #F9FEFF",
"m.	c #4EF1FE",
"n.	c #9AF8FF",
"o.	c #40F0FE",
"p.	c #4FF1FD",
"q.	c #19EFFF",
"r.	c #6AF2FD",
"s.	c #DBF7F9",
"t.	c #87F4FB",
"u.	c #9CF8FF",
"v.	c #ECFEFF",
"w.	c #DAF7F9",
"x.	c #D9F6F9",
"y.	c #6BF2FC",
"z.	c #FBFFFF",
"A.	c #9BF8FF",
"B.	c #EEFEFF",
"C.	c #A4F4FB",
"D.	c #75F3FC",
"E.	c #A0F5FB",
"F.	c #FCFFFF",
"G.	c #EAF7F9",
"H.	c #4EF2FE",
"I.	c #87F3FC",
"J.	c #7AF4FB",
"K.	c #31F0FE",
"L.	c #D3F6F9",
"M.	c #31F1FE",
"N.	c #FDFFFF",
"O.	c #FCFEFF",
"P.	c #9EF8FF",
"Q.	c #99F4FB",
"R.	c #9AF4FB",
"S.	c #9FF8FF",
"T.	c #F3FEFF",
"U.	c #95F4FB",
"V.	c #2FF1FE",
"W.	c #CAF7FA",
"X.	c #30F1FE",
"Y.	c #15F0FF",
"Z.	c #6AF2FC",
"`.	c #A1F8FF",
" +	c #F6FFFF",
".+	c #A1F5FB",
"++	c #62F3FD",
"@+	c #F8F8F8",
"#+	c #CDF7FA",
"$+	c #F2F8F8",
"%+	c #A3F8FF",
"&+	c #C6F7FA",
"*+	c #B9F5FA",
"=+	c #6AF3FC",
"-+	c #14EFFF",
";+	c #4FF2FE",
">+	c #70F3FC",
",+	c #95F4FC",
"'+	c #4EF2FD",
")+	c #CDF6F9",
"!+	c #30F0FE",
"~+	c #A3F9FF",
"{+	c #9CF4FB",
"]+	c #9BF5FB",
"^+	c #7AF3FC",
"/+	c #F5FEFF",
"(+	c #A4F8FF",
"_+	c #D5F7F9",
":+	c #A4F5FB",
"<+	c #F4FEFF",
"[+	c #AFF5FA",
"}+	c #69F3FC",
"|+	c #32F2FF",
"1+	c #24F1FE",
"2+	c #6BF2FD",
"3+	c #5CF3FD",
"4+	c #AFF8FE",
"5+	c #CAFBFF",
"6+	c #31F1FF",
"7+	c #B0F9FF",
"8+	c #C6FAFF",
"9+	c #32F1FF",
"0+	c #9DF8FF",
"a+	c #15EEFF",
"b+	c #24F1FF",
"c+	c #86F7FF",
"d+	c #E0FCFF",
"e+	c #ACF8FF",
"f+	c #C8FBFF",
"g+	c #DDFCFF",
"h+	c #88F4FB",
"i+	c #C9FAFF",
"j+	c #EDFEFF",
"k+	c #C9FDFF",
"l+	c #DDFDFF",
"m+	c #9BF7FF",
"n+	c #EBFDFF",
"o+	c #DAFCFF",
"p+	c #77F6FF",
"q+	c #CEF7FA",
"r+	c #84F7FF",
"s+	c #E7FDFF",
"t+	c #C7FBFF",
"u+	c #50F1FF",
"v+	c #D9FCFF",
"w+	c #69F5FF",
"x+	c #23F0FF",
"y+	c #83F6FF",
"z+	c #D6FDFF",
"A+	c #4EF3FF",
"B+	c #4DF1FF",
"C+	c #C3FBFF",
"D+	c #6AF5FF",
"E+	c #A2F8FF",
"F+	c #CDF6FA",
"G+	c #78F3FC",
"H+	c #78F4FF",
"I+	c #4FF3FF",
"J+	c #65F4FF",
"K+	c #ACF9FF",
"L+	c #D0FCFF",
"M+	c #C1FBFF",
"N+	c #BCFBFF",
"O+	c #DBFCFF",
"P+	c #75F7FF",
"Q+	c #BCFAFF",
"R+	c #E1FEFF",
"S+	c #80F6FF",
"                                                                                                                  ",
"                                                                                                                  ",
"                                                                                                                  ",
"                                                                                                                  ",
"                                                    . + @                                                         ",
"                                                # $ % & * = -                                                     ",
"                                            ; > % , ' ' ' ) * = !                                                 ",
"                                        ~ { ] , ' ' ' ' ' ' ' ) * = -                                             ",
"                                    ^ { / ( ' ' ' ' ' ' ' ' ' ' ' ) _ : !                                         ",
"                                < = * ) ' ' ' ' ' ' ' ' ' ' ' ' ' ' ' ( / = [                                     ",
"                            } | * ) ' ' ' ' ' ' ' ' ' ' ' ' ' ' ' ' ' ' ' ( / = -                                 ",
"                        1 2 * ) ' ' ' ' ' ' ' ' ' ' ' ' ' ' ' ' ' ' ' ' ' ' ' ( / : !                             ",
"                    3 4 5 & ' ' ' ' ' ' ' ' ' ' ' ' ' ' ' ' ' ' ' ' ' ' ' ' ' ' ' ( / = 6                         ",
"                  7 $ % ' ' ' ' ' ' ' ' ' ' ' ' ' ' ' ' ' ' ' ' ' ' ' ' ' ' ' ' ' ' ' ( / 8 9                     ",
"              0 $ a , ' ' ' ' ' ' ' ' ' ' ' ' ' ' ' ' ' ' ' ' ' ' ' ' ' ' ' ' ' ' ' ' ' ' ( / $ b                 ",
"            c { d e ' ' ' ' ' ' ' ' ' ' ' ' ' ' ' ' ' ' ' ' ' ' ' ' ' ' ' ' ' ' ' ' ' ' ' ' ( d f g               ",
"            h i j $ k ( ' ' ' ' ' ' ' ' ' ' ' ' ' ' ' ' ' ' ' ' ' ' ' ' ' ' ' ' ' ' ' ' e k { l m n               ",
"            c o p q r s t ( ' u ' u ' ' ' ' ' ' ' ' ' ' ' ' ' ' ' ' ' ' ' ' ' u ' u e t { v w x o y               ",
"            $ ' u z A B C : k ( ' ' ' ' ' ' ' ' ' ' ' ' ' ' ' ' ' ' ' ' ' ' u ' , D E C / A z ' u =               ",
"            f ' ' ' u F G B h H k ( ' ' ' ' ' ' ' ' ' ' ' ' ' ' ' ' ' ' ' ' , I J C k K z ' ' ' ' L               ",
"            M ' ' ' N ' N z G B h O k ( ' ' ' ' ' ' ' ' ' ' ' ' ' ' ' ' , a P r / Q R ' u N ' N ' S               ",
"            T ' N N ' U V ' ' F A W X O a ( ' ' u u u ' ' u ' ' ' ' , a P r Y I Z ` U N ' ' ' ' ' L               ",
"             .' N ..+.' N ` N N ' z @.W X 4 % ( u ' u u u #.u u , % = $.%.a &.' ' ' u ' ' ' *.' ' {               ",
"             .' ' =.-.' ' ' u N u ' u z I ;.h g I e u ' #.#., % : >.,.% Z u u u ' ' ' ' ' '.).' N E               ",
"            !.N ' ' ~.{.' ' ' ' N N ` ' ' Z ].^.j /.Q ' (.Q _.j :.<.[.' }.u ' V ' ' ' ' |.1.|.' u E               ",
"            { N ' ' =.1.2.' ' ' ' ' U N N ' N [.3.t $.4.5.l Y 6.[.' ' u }.7.u #.u u ' ' 8.).' ' N E               ",
"            { N N ' ' 9.0.N ' ' ' ' ' u u N N U ' a.b.c.d.e.Z u V ' ' f.u u ' ' #.u V g.1.|.' ' ' E               ",
"             .N ' ' ' h.i.2.' ' ' ' ' ' ' ' ' #.u u ' j.k.' u ` #.u ' u ' N ' ' u u N *.{.' f.' ' {               ",
"            l.N ' ' ' N ).0.' ' N N N ' ' ' ' u m.+.` n.c o.p.' q.u ' ' ` ' U f.f.' r.s.N ' ' u U L               ",
"            T ' ' ' ' N , 1.2.' ' N ' ' ' N u t.1...u u.v.o.w.0.' ' ' f.' ' ' ' ' ' x.y.N ' u u ' l.              ",
"            z.' N u ' ' ' t.).' ' ' ' ' ' |.9.9.h.u ' A.B.u |.C.1.h.N ` ' ' ' U N D.E.' ' ' u ' N M               ",
"            F.' ' u ' N ' , G.g.' ' ' ' H.1.I.N 7.' u u.: ' f.u J.i.y.N ` ` ' N K.L.M.U ' ' ' ' u N.              ",
"            O.' N ' ' ' ' ' t.9.N ' ' t.1.=.N N #.N ` P.+ #.7.' u |.1.).2.u U ' Q.R.V U N ' u f.' F.              ",
"            M ' N ' ' u ' ' , 1.=.h.9.9.|.' ' u ' u ' S.T.u #.u 7.' ` U.1.|.N V.W.X.u ' Y.u f.f.f.N.              ",
"            z.' ' ' ' ' ' N ' Z.-.1.I.' ' ' ' u ' ' ' `. +N ' #.u ' N N Z.1.0..+++#.` f.N Y.' ' ' M               ",
"            f ' ' ' ' ' ' ` ' t.@+'.' N ' ' ' ' ' ` ' `.T u U ' ' ' ' ' ` |.#+$+h.' Y.f.N N ' u ' S               ",
"            l.N ' f.' ' ' |.9.9.y.-.' N ' ' ' ' U ' ' %+F.f.#.` ' ' ' f.' N &+*+1.=+' U -+' u ' N  .              ",
"            L ' ` ` ' ' ;+1.I.' ' 9.{.N ' ' N ' N ` #.%+S u u ' ` U ` ' ' >+U.' M.1.,+U N ' ' ' U !.              ",
"            { ' ' N ' t.1.=.' N ' '+1.2.' u N ' ' N #.%+N.u 7.' f.' ' ' X.)+!+' Y., 8.1.|.N ' ' ' E               ",
"            { ' ' |.9.9.h.' ' ' ' N 9.I.' ' ' ' ' N u ~+z.u u u u f.f.N {+]+N ' ` N N =+G.^+' ' ' /+              ",
"            { N +.1.I.N N ' ' ' ' ' |.i.2.N ' ' u ` ' (+S ' ' u f.' ' g._+K.N ' ' 7.N ' |.1.:+|.' <+              ",
"             .' o.=.' ' N ' ' ' N ` ' 8.0.N N ' ' N ' `.T U N ' ' N ' [+}+' u ' U ` f.7.}.' t.1.+.<+              ",
"            l.~+|+' ' ' ' ' ' ' ' N ' , 1.1+' ` ' N Y.S.E N u ' ' N 2+w.u ' ' ' N N ' f.7.' N 3+4+=               ",
"              5+!.@ 6+u ' ' ' ' ' ' ' ' t.:+N ' ' u u P.T.u u u Y.' s.y.U ' ' f.` ` N u u , 6./.7+                ",
"                  8+ .~+9+N ' ' ' ` ` N , G.g.' ' ' ' 0+$ u u ' ' '.).' ' u u f.' a+' b+c+d+e+                    ",
"                      f+g+Q ( ' ' ' ' ' ' h+9.' ' ' ' 0+: ' ' U h.1.g.' ` ' ' ' ' , I 4 W                         ",
"                          i+g <.9+' ' ' f., 1.=.' f.' u.B.u ' ' ).).N ' ' N N , I j+f+                            ",
"                              k+l+<.9+' ' u y.9.' f.' m+j+f.u |.1.h.' ' ' , <.n+5+                                ",
"                                  8+o+p+' ' ' q+p.' ` A.B.7.#.*.y.' a+, r+s+t+                                    ",
"                                    u+* v+w+U ....' ' 0+: u 2+1.' x+y+c z+A+                                      ",
"                                        B+C+v+D+' ' u E++ ' F+G+y+5 j H+                                          ",
"                                            I+C+o+J+' K+<+, 4+c j G                                               ",
"                                                A+L+M+N+{ O+X @.                                                  ",
"                                                    P+Q+R+S+                                                      ",
"                                                                                                                  ",
"                                                                                                                  ",
"                                                                                                                  ",
"                                                                                                                  ",
"                                                                                                                  ",
"                                                                                                                  "};
